<svg width="324" height="34" viewBox="0 0 324 34" fill="none" xmlns="http://www.w3.org/2000/svg">
<path d="M8.01367 9.91895C8.01367 10.6162 7.81543 11.1494 7.41895 11.5186C7.02702 11.8831 6.47103 12.0654 5.75098 12.0654C5.03548 12.0654 4.46126 11.8262 4.02832 11.3477C3.59993 10.8646 3.38574 10.2083 3.38574 9.37891V8.62695C3.38574 7.82487 3.60221 7.18457 4.03516 6.70605C4.47266 6.22298 5.0446 5.98145 5.75098 5.98145C6.48014 5.98145 7.04069 6.16829 7.43262 6.54199C7.82454 6.91569 8.02051 7.44206 8.02051 8.12109H7.02246C7.02246 7.66992 6.91309 7.34863 6.69434 7.15723C6.48014 6.96126 6.16569 6.86328 5.75098 6.86328C5.32259 6.86328 4.98535 7.02051 4.73926 7.33496C4.49316 7.64941 4.37012 8.08691 4.37012 8.64746V9.41992C4.37012 9.9668 4.49316 10.3975 4.73926 10.7119C4.98535 11.0264 5.32259 11.1836 5.75098 11.1836C6.17025 11.1836 6.4847 11.0879 6.69434 10.8965C6.90853 10.7051 7.01562 10.3792 7.01562 9.91895H8.01367ZM1.77246 9.0166C1.77246 9.80046 1.95475 10.5273 2.31934 11.1973C2.68392 11.8626 3.17839 12.3844 3.80273 12.7627C4.43164 13.141 5.11068 13.3301 5.83984 13.3301C6.56901 13.3301 7.24577 13.141 7.87012 12.7627C8.49447 12.3844 8.98893 11.8626 9.35352 11.1973C9.7181 10.5273 9.90039 9.80046 9.90039 9.0166C9.90039 8.24186 9.72038 7.52409 9.36035 6.86328C9.00033 6.20247 8.50586 5.68294 7.87695 5.30469C7.2526 4.92188 6.57357 4.73047 5.83984 4.73047C5.11068 4.73047 4.43164 4.9196 3.80273 5.29785C3.17383 5.67155 2.67708 6.19108 2.3125 6.85645C1.95247 7.52181 1.77246 8.24186 1.77246 9.0166ZM0.986328 9.0166C0.986328 8.09603 1.19824 7.24154 1.62207 6.45312C2.05046 5.66471 2.64062 5.04492 3.39258 4.59375C4.14909 4.13802 4.96484 3.91016 5.83984 3.91016C6.71484 3.91016 7.52832 4.13802 8.28027 4.59375C9.03223 5.04492 9.62012 5.66471 10.0439 6.45312C10.4723 7.24154 10.6865 8.09603 10.6865 9.0166C10.6865 9.91439 10.4814 10.7552 10.0713 11.5391C9.66113 12.3229 9.0778 12.9541 8.32129 13.4326C7.56934 13.9066 6.74219 14.1436 5.83984 14.1436C4.94206 14.1436 4.11491 13.9089 3.3584 13.4395C2.60645 12.9655 2.02311 12.3366 1.6084 11.5527C1.19368 10.7689 0.986328 9.9235 0.986328 9.0166ZM23.3193 10.8418C23.1963 11.8945 22.8066 12.708 22.1504 13.2822C21.4987 13.8519 20.6305 14.1367 19.5459 14.1367C18.3701 14.1367 17.4268 13.7152 16.7158 12.8721C16.0094 12.029 15.6562 10.901 15.6562 9.48828V8.53125C15.6562 7.60612 15.8203 6.79264 16.1484 6.09082C16.4811 5.389 16.9505 4.85124 17.5566 4.47754C18.1628 4.09928 18.8646 3.91016 19.6621 3.91016C20.7194 3.91016 21.5671 4.20638 22.2051 4.79883C22.8431 5.38672 23.2145 6.20247 23.3193 7.24609H22C21.8861 6.45312 21.6377 5.87891 21.2549 5.52344C20.8766 5.16797 20.3457 4.99023 19.6621 4.99023C18.8236 4.99023 18.165 5.30013 17.6865 5.91992C17.2126 6.53971 16.9756 7.42155 16.9756 8.56543V9.5293C16.9756 10.6094 17.2012 11.4684 17.6523 12.1064C18.1035 12.7445 18.7347 13.0635 19.5459 13.0635C20.2751 13.0635 20.8333 12.8994 21.2207 12.5713C21.6126 12.2386 21.8724 11.6621 22 10.8418H23.3193ZM24.584 10.2334C24.584 9.50879 24.7253 8.8571 25.0078 8.27832C25.2949 7.69954 25.6914 7.25293 26.1973 6.93848C26.7077 6.62402 27.2887 6.4668 27.9404 6.4668C28.9476 6.4668 29.7611 6.81543 30.3809 7.5127C31.0052 8.20996 31.3174 9.13737 31.3174 10.2949V10.3838C31.3174 11.1038 31.1784 11.751 30.9004 12.3252C30.627 12.8949 30.2327 13.3392 29.7178 13.6582C29.2074 13.9772 28.6195 14.1367 27.9541 14.1367C26.9515 14.1367 26.138 13.7881 25.5137 13.0908C24.8939 12.3936 24.584 11.4707 24.584 10.3223V10.2334ZM25.8555 10.3838C25.8555 11.2041 26.0446 11.8626 26.4229 12.3594C26.8057 12.8561 27.3161 13.1045 27.9541 13.1045C28.5967 13.1045 29.1071 12.8538 29.4854 12.3525C29.8636 11.8467 30.0527 11.1403 30.0527 10.2334C30.0527 9.4222 29.859 8.76595 29.4717 8.26465C29.0889 7.75879 28.5785 7.50586 27.9404 7.50586C27.3161 7.50586 26.8125 7.75423 26.4297 8.25098C26.0469 8.74772 25.8555 9.45866 25.8555 10.3838ZM39.1514 10.3838C39.1514 11.5094 38.8939 12.4163 38.3789 13.1045C37.8639 13.7926 37.1667 14.1367 36.2871 14.1367C35.3893 14.1367 34.6829 13.8519 34.168 13.2822V16.8438H32.9033V6.60352H34.0586L34.1201 7.42383C34.6351 6.78581 35.3506 6.4668 36.2666 6.4668C37.1553 6.4668 37.8571 6.80176 38.3721 7.47168C38.8916 8.1416 39.1514 9.07357 39.1514 10.2676V10.3838ZM37.8867 10.2402C37.8867 9.40625 37.709 8.74772 37.3535 8.26465C36.998 7.78158 36.5104 7.54004 35.8906 7.54004C35.125 7.54004 34.5508 7.87956 34.168 8.55859V12.0928C34.5462 12.7673 35.125 13.1045 35.9043 13.1045C36.5104 13.1045 36.9912 12.8652 37.3467 12.3867C37.7067 11.9036 37.8867 11.1882 37.8867 10.2402ZM43.1025 12.1475L44.8252 6.60352H46.1787L43.2051 15.1416C42.7448 16.3721 42.0133 16.9873 41.0107 16.9873L40.7715 16.9668L40.2998 16.8779V15.8525L40.6416 15.8799C41.07 15.8799 41.4027 15.7933 41.6396 15.6201C41.8812 15.4469 42.0794 15.1302 42.2344 14.6699L42.5146 13.918L39.876 6.60352H41.2568L43.1025 12.1475ZM50.8887 7.73828C50.6973 7.70638 50.4899 7.69043 50.2666 7.69043C49.4372 7.69043 48.8743 8.04362 48.5781 8.75V14H47.3135V6.60352H48.5439L48.5645 7.45801C48.9792 6.7972 49.5671 6.4668 50.3281 6.4668C50.5742 6.4668 50.7611 6.4987 50.8887 6.5625V7.73828ZM53.4316 14H52.167V6.60352H53.4316V14ZM52.0645 4.6416C52.0645 4.43652 52.126 4.26335 52.249 4.12207C52.3766 3.98079 52.5635 3.91016 52.8096 3.91016C53.0557 3.91016 53.2425 3.98079 53.3701 4.12207C53.4977 4.26335 53.5615 4.43652 53.5615 4.6416C53.5615 4.84668 53.4977 5.01758 53.3701 5.1543C53.2425 5.29102 53.0557 5.35938 52.8096 5.35938C52.5635 5.35938 52.3766 5.29102 52.249 5.1543C52.126 5.01758 52.0645 4.84668 52.0645 4.6416ZM55.1611 10.2402C55.1611 9.08724 55.4277 8.17122 55.9609 7.49219C56.4941 6.80859 57.2005 6.4668 58.0801 6.4668C58.9824 6.4668 59.6865 6.78581 60.1924 7.42383L60.2539 6.60352H61.4092V13.8223C61.4092 14.7793 61.1243 15.5335 60.5547 16.085C59.9896 16.6364 59.2285 16.9121 58.2715 16.9121C57.7383 16.9121 57.2165 16.7982 56.7061 16.5703C56.1956 16.3424 55.806 16.0303 55.5371 15.6338L56.1934 14.875C56.7357 15.5449 57.3988 15.8799 58.1826 15.8799C58.7979 15.8799 59.2764 15.7067 59.6182 15.3604C59.9645 15.014 60.1377 14.5264 60.1377 13.8975V13.2617C59.6318 13.8451 58.9414 14.1367 58.0664 14.1367C57.2005 14.1367 56.4987 13.7881 55.9609 13.0908C55.4277 12.3936 55.1611 11.4434 55.1611 10.2402ZM56.4326 10.3838C56.4326 11.2178 56.6035 11.874 56.9453 12.3525C57.2871 12.8265 57.7656 13.0635 58.3809 13.0635C59.1784 13.0635 59.764 12.7012 60.1377 11.9766V8.59961C59.7503 7.89323 59.1693 7.54004 58.3945 7.54004C57.7793 7.54004 57.2985 7.7793 56.9521 8.25781C56.6058 8.73633 56.4326 9.44499 56.4326 10.3838ZM64.5879 7.49902C65.1484 6.81087 65.8776 6.4668 66.7754 6.4668C68.3385 6.4668 69.127 7.34863 69.1406 9.1123V14H67.876V9.10547C67.8714 8.57227 67.7484 8.17806 67.5068 7.92285C67.2699 7.66764 66.8984 7.54004 66.3926 7.54004C65.9824 7.54004 65.6224 7.64941 65.3125 7.86816C65.0026 8.08691 64.7611 8.37402 64.5879 8.72949V14H63.3232V3.5H64.5879V7.49902ZM72.75 4.8125V6.60352H74.1309V7.58105H72.75V12.168C72.75 12.4642 72.8115 12.6875 72.9346 12.8379C73.0576 12.9837 73.2673 13.0566 73.5635 13.0566C73.7093 13.0566 73.9098 13.0293 74.165 12.9746V14C73.8324 14.0911 73.5088 14.1367 73.1943 14.1367C72.6292 14.1367 72.2031 13.9658 71.916 13.624C71.6289 13.2822 71.4854 12.7969 71.4854 12.168V7.58105H70.1387V6.60352H71.4854V4.8125H72.75ZM85.4785 14H78.957V13.0908L82.4023 9.2627C82.9128 8.68392 83.2637 8.21452 83.4551 7.85449C83.651 7.48991 83.749 7.11393 83.749 6.72656C83.749 6.20703 83.5918 5.78092 83.2773 5.44824C82.9629 5.11556 82.5436 4.94922 82.0195 4.94922C81.3906 4.94922 80.9007 5.12923 80.5498 5.48926C80.2035 5.84473 80.0303 6.34147 80.0303 6.97949H78.7656C78.7656 6.06348 79.0596 5.32292 79.6475 4.75781C80.2399 4.19271 81.0306 3.91016 82.0195 3.91016C82.9447 3.91016 83.6761 4.15397 84.2139 4.6416C84.7516 5.12467 85.0205 5.76953 85.0205 6.57617C85.0205 7.55599 84.3962 8.72266 83.1475 10.0762L80.4814 12.9678H85.4785V14ZM93.0596 9.75488C93.0596 11.236 92.8066 12.3366 92.3008 13.0566C91.7949 13.7767 91.0042 14.1367 89.9287 14.1367C88.8669 14.1367 88.0807 13.7858 87.5703 13.084C87.0599 12.3776 86.7956 11.3249 86.7773 9.92578V8.2373C86.7773 6.77441 87.0303 5.6875 87.5361 4.97656C88.042 4.26562 88.835 3.91016 89.915 3.91016C90.986 3.91016 91.7744 4.25423 92.2803 4.94238C92.7861 5.62598 93.0459 6.68327 93.0596 8.11426V9.75488ZM91.7949 8.02539C91.7949 6.95443 91.6445 6.17513 91.3438 5.6875C91.043 5.19531 90.5667 4.94922 89.915 4.94922C89.2679 4.94922 88.7962 5.19303 88.5 5.68066C88.2038 6.16829 88.0511 6.91797 88.042 7.92969V9.95312C88.042 11.0286 88.1969 11.8239 88.5068 12.3389C88.8213 12.8493 89.2952 13.1045 89.9287 13.1045C90.5531 13.1045 91.0156 12.863 91.3164 12.3799C91.6217 11.8968 91.7812 11.1357 91.7949 10.0967V8.02539ZM101.201 14H94.6797V13.0908L98.125 9.2627C98.6354 8.68392 98.9863 8.21452 99.1777 7.85449C99.3737 7.48991 99.4717 7.11393 99.4717 6.72656C99.4717 6.20703 99.3145 5.78092 99 5.44824C98.6855 5.11556 98.2663 4.94922 97.7422 4.94922C97.1133 4.94922 96.6234 5.12923 96.2725 5.48926C95.9261 5.84473 95.7529 6.34147 95.7529 6.97949H94.4883C94.4883 6.06348 94.7822 5.32292 95.3701 4.75781C95.9626 4.19271 96.7533 3.91016 97.7422 3.91016C98.6673 3.91016 99.3988 4.15397 99.9365 4.6416C100.474 5.12467 100.743 5.76953 100.743 6.57617C100.743 7.55599 100.119 8.72266 98.8701 10.0762L96.2041 12.9678H101.201V14ZM106.697 14H105.426V5.57129L102.876 6.50781V5.35938L106.499 3.99902H106.697V14ZM121.853 14H120.533L115.522 6.33008V14H114.203V4.04688H115.522L120.547 11.751V4.04688H121.853V14ZM127.055 14.1367C126.052 14.1367 125.236 13.8086 124.607 13.1523C123.979 12.4915 123.664 11.6097 123.664 10.5068V10.2744C123.664 9.54069 123.803 8.88672 124.081 8.3125C124.364 7.73372 124.756 7.28255 125.257 6.95898C125.763 6.63086 126.31 6.4668 126.897 6.4668C127.859 6.4668 128.606 6.78353 129.14 7.41699C129.673 8.05046 129.939 8.95736 129.939 10.1377V10.6641H124.929C124.947 11.3932 125.159 11.9834 125.564 12.4346C125.975 12.8812 126.494 13.1045 127.123 13.1045C127.57 13.1045 127.948 13.0133 128.258 12.8311C128.568 12.6488 128.839 12.4072 129.071 12.1064L129.844 12.708C129.224 13.6605 128.294 14.1367 127.055 14.1367ZM126.897 7.50586C126.387 7.50586 125.959 7.69271 125.612 8.06641C125.266 8.43555 125.052 8.95508 124.97 9.625H128.675V9.5293C128.638 8.88672 128.465 8.38997 128.155 8.03906C127.845 7.68359 127.426 7.50586 126.897 7.50586ZM133.891 9.30371L135.531 6.60352H137.008L134.588 10.2607L137.083 14H135.62L133.911 11.2314L132.202 14H130.732L133.228 10.2607L130.808 6.60352H132.271L133.891 9.30371ZM140.07 4.8125V6.60352H141.451V7.58105H140.07V12.168C140.07 12.4642 140.132 12.6875 140.255 12.8379C140.378 12.9837 140.588 13.0566 140.884 13.0566C141.03 13.0566 141.23 13.0293 141.485 12.9746V14C141.153 14.0911 140.829 14.1367 140.515 14.1367C139.95 14.1367 139.523 13.9658 139.236 13.624C138.949 13.2822 138.806 12.7969 138.806 12.168V7.58105H137.459V6.60352H138.806V4.8125H140.07ZM144.24 6.60352V14.8545C144.24 16.2764 143.595 16.9873 142.306 16.9873C142.028 16.9873 141.77 16.9463 141.533 16.8643V15.8525C141.679 15.889 141.87 15.9072 142.107 15.9072C142.39 15.9072 142.604 15.8298 142.75 15.6748C142.9 15.5244 142.976 15.2601 142.976 14.8818V6.60352H144.24ZM142.846 4.6416C142.846 4.44108 142.907 4.27018 143.03 4.12891C143.158 3.98307 143.342 3.91016 143.584 3.91016C143.83 3.91016 144.017 3.98079 144.145 4.12207C144.272 4.26335 144.336 4.43652 144.336 4.6416C144.336 4.84668 144.272 5.01758 144.145 5.1543C144.017 5.29102 143.83 5.35938 143.584 5.35938C143.338 5.35938 143.153 5.29102 143.03 5.1543C142.907 5.01758 142.846 4.84668 142.846 4.6416ZM150.591 12.0381C150.591 11.6963 150.461 11.432 150.201 11.2451C149.946 11.0537 149.497 10.8896 148.854 10.7529C148.216 10.6162 147.708 10.4521 147.33 10.2607C146.956 10.0693 146.678 9.84147 146.496 9.57715C146.318 9.31283 146.229 8.99837 146.229 8.63379C146.229 8.02767 146.485 7.51497 146.995 7.0957C147.51 6.67643 148.166 6.4668 148.964 6.4668C149.802 6.4668 150.481 6.68327 151.001 7.11621C151.525 7.54915 151.787 8.10286 151.787 8.77734H150.516C150.516 8.43099 150.368 8.13249 150.071 7.88184C149.78 7.63118 149.41 7.50586 148.964 7.50586C148.504 7.50586 148.144 7.60612 147.884 7.80664C147.624 8.00716 147.494 8.26921 147.494 8.59277C147.494 8.89811 147.615 9.12826 147.856 9.2832C148.098 9.43815 148.533 9.58626 149.162 9.72754C149.796 9.86882 150.308 10.0374 150.7 10.2334C151.092 10.4294 151.382 10.6663 151.568 10.9443C151.76 11.2178 151.855 11.5527 151.855 11.9492C151.855 12.61 151.591 13.141 151.062 13.542C150.534 13.9385 149.848 14.1367 149.005 14.1367C148.412 14.1367 147.888 14.0319 147.433 13.8223C146.977 13.6126 146.619 13.321 146.359 12.9473C146.104 12.569 145.977 12.1611 145.977 11.7236H147.241C147.264 12.1475 147.433 12.4847 147.747 12.7354C148.066 12.9814 148.485 13.1045 149.005 13.1045C149.483 13.1045 149.866 13.0088 150.153 12.8174C150.445 12.6214 150.591 12.3617 150.591 12.0381ZM160.106 9.56348C158.981 9.23991 158.16 8.84342 157.646 8.37402C157.135 7.90007 156.88 7.31673 156.88 6.62402C156.88 5.84017 157.192 5.19303 157.816 4.68262C158.445 4.16764 159.261 3.91016 160.264 3.91016C160.947 3.91016 161.556 4.04232 162.089 4.30664C162.627 4.57096 163.041 4.93555 163.333 5.40039C163.629 5.86523 163.777 6.37337 163.777 6.9248H162.458C162.458 6.32324 162.267 5.85156 161.884 5.50977C161.501 5.16341 160.961 4.99023 160.264 4.99023C159.617 4.99023 159.111 5.13379 158.746 5.4209C158.386 5.70345 158.206 6.09766 158.206 6.60352C158.206 7.00911 158.377 7.35319 158.719 7.63574C159.065 7.91374 159.651 8.16895 160.476 8.40137C161.305 8.63379 161.952 8.89128 162.417 9.17383C162.886 9.45182 163.233 9.77767 163.456 10.1514C163.684 10.5251 163.798 10.9648 163.798 11.4707C163.798 12.2773 163.483 12.9245 162.854 13.4121C162.226 13.8952 161.385 14.1367 160.332 14.1367C159.648 14.1367 159.01 14.0068 158.418 13.7471C157.826 13.4827 157.368 13.1227 157.044 12.667C156.725 12.2113 156.565 11.694 156.565 11.1152H157.885C157.885 11.7168 158.106 12.193 158.548 12.5439C158.994 12.8903 159.589 13.0635 160.332 13.0635C161.025 13.0635 161.556 12.9222 161.925 12.6396C162.294 12.3571 162.479 11.972 162.479 11.4844C162.479 10.9967 162.308 10.6208 161.966 10.3564C161.624 10.0876 161.004 9.82324 160.106 9.56348ZM167.004 4.8125V6.60352H168.385V7.58105H167.004V12.168C167.004 12.4642 167.065 12.6875 167.188 12.8379C167.312 12.9837 167.521 13.0566 167.817 13.0566C167.963 13.0566 168.164 13.0293 168.419 12.9746V14C168.086 14.0911 167.763 14.1367 167.448 14.1367C166.883 14.1367 166.457 13.9658 166.17 13.624C165.883 13.2822 165.739 12.7969 165.739 12.168V7.58105H164.393V6.60352H165.739V4.8125H167.004ZM174.435 14C174.362 13.8542 174.302 13.5944 174.257 13.2207C173.669 13.8314 172.967 14.1367 172.151 14.1367C171.422 14.1367 170.823 13.9316 170.354 13.5215C169.889 13.1068 169.656 12.5827 169.656 11.9492C169.656 11.179 169.948 10.582 170.531 10.1582C171.119 9.72982 171.944 9.51562 173.006 9.51562H174.236V8.93457C174.236 8.49251 174.104 8.1416 173.84 7.88184C173.576 7.61751 173.186 7.48535 172.671 7.48535C172.22 7.48535 171.841 7.59928 171.536 7.82715C171.231 8.05501 171.078 8.33073 171.078 8.6543H169.807C169.807 8.28516 169.937 7.92969 170.196 7.58789C170.461 7.24154 170.816 6.9681 171.263 6.76758C171.714 6.56706 172.208 6.4668 172.746 6.4668C173.598 6.4668 174.266 6.68099 174.749 7.10938C175.232 7.5332 175.483 8.11882 175.501 8.86621V12.2705C175.501 12.9495 175.588 13.4896 175.761 13.8906V14H174.435ZM172.336 13.0361C172.732 13.0361 173.108 12.9336 173.464 12.7285C173.819 12.5234 174.077 12.2568 174.236 11.9287V10.4111H173.245C171.696 10.4111 170.921 10.8646 170.921 11.7715C170.921 12.168 171.053 12.4779 171.317 12.7012C171.582 12.9245 171.921 13.0361 172.336 13.0361ZM181.059 7.73828C180.867 7.70638 180.66 7.69043 180.437 7.69043C179.607 7.69043 179.044 8.04362 178.748 8.75V14H177.483V6.60352H178.714L178.734 7.45801C179.149 6.7972 179.737 6.4668 180.498 6.4668C180.744 6.4668 180.931 6.4987 181.059 6.5625V7.73828ZM184.285 4.8125V6.60352H185.666V7.58105H184.285V12.168C184.285 12.4642 184.347 12.6875 184.47 12.8379C184.593 12.9837 184.802 13.0566 185.099 13.0566C185.244 13.0566 185.445 13.0293 185.7 12.9746V14C185.368 14.0911 185.044 14.1367 184.729 14.1367C184.164 14.1367 183.738 13.9658 183.451 13.624C183.164 13.2822 183.021 12.7969 183.021 12.168V7.58105H181.674V6.60352H183.021V4.8125H184.285ZM190.219 14.1367C189.216 14.1367 188.4 13.8086 187.771 13.1523C187.143 12.4915 186.828 11.6097 186.828 10.5068V10.2744C186.828 9.54069 186.967 8.88672 187.245 8.3125C187.528 7.73372 187.92 7.28255 188.421 6.95898C188.927 6.63086 189.474 6.4668 190.062 6.4668C191.023 6.4668 191.771 6.78353 192.304 7.41699C192.837 8.05046 193.104 8.95736 193.104 10.1377V10.6641H188.093C188.111 11.3932 188.323 11.9834 188.729 12.4346C189.139 12.8812 189.658 13.1045 190.287 13.1045C190.734 13.1045 191.112 13.0133 191.422 12.8311C191.732 12.6488 192.003 12.4072 192.235 12.1064L193.008 12.708C192.388 13.6605 191.458 14.1367 190.219 14.1367ZM190.062 7.50586C189.551 7.50586 189.123 7.69271 188.776 8.06641C188.43 8.43555 188.216 8.95508 188.134 9.625H191.839V9.5293C191.802 8.88672 191.629 8.38997 191.319 8.03906C191.009 7.68359 190.59 7.50586 190.062 7.50586ZM198.148 7.73828C197.957 7.70638 197.75 7.69043 197.526 7.69043C196.697 7.69043 196.134 8.04362 195.838 8.75V14H194.573V6.60352H195.804L195.824 7.45801C196.239 6.7972 196.827 6.4668 197.588 6.4668C197.834 6.4668 198.021 6.4987 198.148 6.5625V7.73828ZM198.497 13.3369C198.497 13.1182 198.561 12.9359 198.688 12.79C198.821 12.6442 199.017 12.5713 199.276 12.5713C199.536 12.5713 199.732 12.6442 199.864 12.79C200.001 12.9359 200.069 13.1182 200.069 13.3369C200.069 13.5465 200.001 13.722 199.864 13.8633C199.732 14.0046 199.536 14.0752 199.276 14.0752C199.017 14.0752 198.821 14.0046 198.688 13.8633C198.561 13.722 198.497 13.5465 198.497 13.3369ZM207.145 10.1035V14H205.832V4.04688H209.503C210.592 4.04688 211.444 4.32487 212.06 4.88086C212.679 5.43685 212.989 6.17285 212.989 7.08887C212.989 8.05501 212.686 8.80013 212.08 9.32422C211.479 9.84375 210.615 10.1035 209.489 10.1035H207.145ZM207.145 9.03027H209.503C210.205 9.03027 210.743 8.86621 211.116 8.53809C211.49 8.2054 211.677 7.72689 211.677 7.10254C211.677 6.51009 211.49 6.03613 211.116 5.68066C210.743 5.3252 210.23 5.14062 209.578 5.12695H207.145V9.03027ZM214.035 10.2334C214.035 9.50879 214.176 8.8571 214.459 8.27832C214.746 7.69954 215.143 7.25293 215.648 6.93848C216.159 6.62402 216.74 6.4668 217.392 6.4668C218.399 6.4668 219.212 6.81543 219.832 7.5127C220.456 8.20996 220.769 9.13737 220.769 10.2949V10.3838C220.769 11.1038 220.63 11.751 220.352 12.3252C220.078 12.8949 219.684 13.3392 219.169 13.6582C218.659 13.9772 218.071 14.1367 217.405 14.1367C216.403 14.1367 215.589 13.7881 214.965 13.0908C214.345 12.3936 214.035 11.4707 214.035 10.3223V10.2334ZM215.307 10.3838C215.307 11.2041 215.496 11.8626 215.874 12.3594C216.257 12.8561 216.767 13.1045 217.405 13.1045C218.048 13.1045 218.558 12.8538 218.937 12.3525C219.315 11.8467 219.504 11.1403 219.504 10.2334C219.504 9.4222 219.31 8.76595 218.923 8.26465C218.54 7.75879 218.03 7.50586 217.392 7.50586C216.767 7.50586 216.264 7.75423 215.881 8.25098C215.498 8.74772 215.307 9.45866 215.307 10.3838ZM228.903 12.2568L230.325 6.60352H231.59L229.437 14H228.411L226.613 8.39453L224.863 14H223.838L221.691 6.60352H222.949L224.405 12.1406L226.128 6.60352H227.146L228.903 12.2568ZM235.951 14.1367C234.949 14.1367 234.133 13.8086 233.504 13.1523C232.875 12.4915 232.561 11.6097 232.561 10.5068V10.2744C232.561 9.54069 232.7 8.88672 232.978 8.3125C233.26 7.73372 233.652 7.28255 234.153 6.95898C234.659 6.63086 235.206 6.4668 235.794 6.4668C236.756 6.4668 237.503 6.78353 238.036 7.41699C238.569 8.05046 238.836 8.95736 238.836 10.1377V10.6641H233.825C233.843 11.3932 234.055 11.9834 234.461 12.4346C234.871 12.8812 235.391 13.1045 236.02 13.1045C236.466 13.1045 236.844 13.0133 237.154 12.8311C237.464 12.6488 237.735 12.4072 237.968 12.1064L238.74 12.708C238.12 13.6605 237.191 14.1367 235.951 14.1367ZM235.794 7.50586C235.284 7.50586 234.855 7.69271 234.509 8.06641C234.162 8.43555 233.948 8.95508 233.866 9.625H237.571V9.5293C237.535 8.88672 237.362 8.38997 237.052 8.03906C236.742 7.68359 236.323 7.50586 235.794 7.50586ZM243.881 7.73828C243.689 7.70638 243.482 7.69043 243.259 7.69043C242.429 7.69043 241.867 8.04362 241.57 8.75V14H240.306V6.60352H241.536L241.557 7.45801C241.971 6.7972 242.559 6.4668 243.32 6.4668C243.566 6.4668 243.753 6.4987 243.881 6.5625V7.73828ZM247.982 14.1367C246.98 14.1367 246.164 13.8086 245.535 13.1523C244.906 12.4915 244.592 11.6097 244.592 10.5068V10.2744C244.592 9.54069 244.731 8.88672 245.009 8.3125C245.291 7.73372 245.683 7.28255 246.185 6.95898C246.69 6.63086 247.237 6.4668 247.825 6.4668C248.787 6.4668 249.534 6.78353 250.067 7.41699C250.601 8.05046 250.867 8.95736 250.867 10.1377V10.6641H245.856C245.875 11.3932 246.087 11.9834 246.492 12.4346C246.902 12.8812 247.422 13.1045 248.051 13.1045C248.497 13.1045 248.876 13.0133 249.186 12.8311C249.495 12.6488 249.767 12.4072 249.999 12.1064L250.771 12.708C250.152 13.6605 249.222 14.1367 247.982 14.1367ZM247.825 7.50586C247.315 7.50586 246.886 7.69271 246.54 8.06641C246.194 8.43555 245.979 8.95508 245.897 9.625H249.603V9.5293C249.566 8.88672 249.393 8.38997 249.083 8.03906C248.773 7.68359 248.354 7.50586 247.825 7.50586ZM252.029 10.2402C252.029 9.10547 252.298 8.19401 252.836 7.50586C253.374 6.81315 254.078 6.4668 254.948 6.4668C255.814 6.4668 256.5 6.76302 257.006 7.35547V3.5H258.271V14H257.108L257.047 13.207C256.541 13.8268 255.837 14.1367 254.935 14.1367C254.078 14.1367 253.378 13.7858 252.836 13.084C252.298 12.3822 252.029 11.4661 252.029 10.3359V10.2402ZM253.294 10.3838C253.294 11.2223 253.467 11.8786 253.813 12.3525C254.16 12.8265 254.638 13.0635 255.249 13.0635C256.051 13.0635 256.637 12.7035 257.006 11.9834V8.58594C256.628 7.88867 256.047 7.54004 255.263 7.54004C254.643 7.54004 254.16 7.7793 253.813 8.25781C253.467 8.73633 253.294 9.44499 253.294 10.3838ZM270.261 12.2568L271.683 6.60352H272.947L270.794 14H269.769L267.971 8.39453L266.221 14H265.195L263.049 6.60352H264.307L265.763 12.1406L267.485 6.60352H268.504L270.261 12.2568ZM275.613 14H274.349V6.60352H275.613V14ZM274.246 4.6416C274.246 4.43652 274.308 4.26335 274.431 4.12207C274.558 3.98079 274.745 3.91016 274.991 3.91016C275.237 3.91016 275.424 3.98079 275.552 4.12207C275.679 4.26335 275.743 4.43652 275.743 4.6416C275.743 4.84668 275.679 5.01758 275.552 5.1543C275.424 5.29102 275.237 5.35938 274.991 5.35938C274.745 5.35938 274.558 5.29102 274.431 5.1543C274.308 5.01758 274.246 4.84668 274.246 4.6416ZM279.359 4.8125V6.60352H280.74V7.58105H279.359V12.168C279.359 12.4642 279.421 12.6875 279.544 12.8379C279.667 12.9837 279.877 13.0566 280.173 13.0566C280.319 13.0566 280.519 13.0293 280.774 12.9746V14C280.442 14.0911 280.118 14.1367 279.804 14.1367C279.239 14.1367 278.812 13.9658 278.525 13.624C278.238 13.2822 278.095 12.7969 278.095 12.168V7.58105H276.748V6.60352H278.095V4.8125H279.359ZM283.488 7.49902C284.049 6.81087 284.778 6.4668 285.676 6.4668C287.239 6.4668 288.027 7.34863 288.041 9.1123V14H286.776V9.10547C286.772 8.57227 286.649 8.17806 286.407 7.92285C286.17 7.66764 285.799 7.54004 285.293 7.54004C284.883 7.54004 284.523 7.64941 284.213 7.86816C283.903 8.08691 283.661 8.37402 283.488 8.72949V14H282.224V3.5H283.488V7.49902ZM300.38 12.3867C300.116 12.7057 299.879 13.0475 299.669 13.4121C299.468 13.7676 299.282 14.2005 299.108 14.7109C298.926 14.2005 298.73 13.7676 298.521 13.4121C298.311 13.0566 298.078 12.7194 297.823 12.4004C297.486 11.9447 297.085 11.4661 296.62 10.9648C296.155 10.4635 295.718 9.93945 295.308 9.39258C294.916 8.85482 294.578 8.29427 294.296 7.71094C294.013 7.1276 293.872 6.5306 293.872 5.91992C293.872 5.57357 293.936 5.25456 294.063 4.96289C294.191 4.66211 294.369 4.40234 294.597 4.18359C294.825 3.96484 295.089 3.79622 295.39 3.67773C295.7 3.55013 296.032 3.48633 296.388 3.48633C296.707 3.48633 297.007 3.55013 297.29 3.67773C297.582 3.79622 297.841 3.96029 298.069 4.16992C298.306 4.37044 298.507 4.61198 298.671 4.89453C298.844 5.17708 298.976 5.47331 299.067 5.7832C299.195 5.46419 299.35 5.16797 299.532 4.89453C299.724 4.61198 299.933 4.36589 300.161 4.15625C300.398 3.94661 300.653 3.78255 300.927 3.66406C301.2 3.53646 301.496 3.47266 301.815 3.47266C302.171 3.47266 302.499 3.53646 302.8 3.66406C303.11 3.78255 303.374 3.95117 303.593 4.16992C303.821 4.38867 303.998 4.64844 304.126 4.94922C304.254 5.24089 304.317 5.5599 304.317 5.90625C304.317 6.29818 304.258 6.68555 304.14 7.06836C304.021 7.44206 303.866 7.80664 303.675 8.16211C303.483 8.51758 303.265 8.85938 303.019 9.1875C302.782 9.50651 302.54 9.81185 302.294 10.1035C301.948 10.5137 301.61 10.901 301.282 11.2656C300.963 11.6302 300.662 12.0039 300.38 12.3867ZM316.444 10.3838C316.444 11.514 316.185 12.4232 315.665 13.1113C315.146 13.7949 314.448 14.1367 313.573 14.1367C312.639 14.1367 311.917 13.8063 311.406 13.1455L311.345 14H310.183V3.5H311.447V7.41699C311.958 6.78353 312.662 6.4668 313.56 6.4668C314.457 6.4668 315.161 6.80632 315.672 7.48535C316.187 8.16439 316.444 9.09408 316.444 10.2744V10.3838ZM315.18 10.2402C315.18 9.37891 315.013 8.71354 314.681 8.24414C314.348 7.77474 313.869 7.54004 313.245 7.54004C312.411 7.54004 311.812 7.92741 311.447 8.70215V11.9014C311.835 12.6761 312.438 13.0635 313.259 13.0635C313.865 13.0635 314.337 12.8288 314.674 12.3594C315.011 11.89 315.18 11.1836 315.18 10.2402ZM320.382 12.1475L322.104 6.60352H323.458L320.484 15.1416C320.024 16.3721 319.293 16.9873 318.29 16.9873L318.051 16.9668L317.579 16.8779V15.8525L317.921 15.8799C318.349 15.8799 318.682 15.7933 318.919 15.6201C319.16 15.4469 319.359 15.1302 319.514 14.6699L319.794 13.918L317.155 6.60352H318.536L320.382 12.1475Z" fill="#718096"/>
<path d="M110.659 27.8418C110.536 28.8945 110.146 29.708 109.49 30.2822C108.839 30.8519 107.97 31.1367 106.886 31.1367C105.71 31.1367 104.767 30.7152 104.056 29.8721C103.349 29.029 102.996 27.901 102.996 26.4883V25.5312C102.996 24.6061 103.16 23.7926 103.488 23.0908C103.821 22.389 104.29 21.8512 104.896 21.4775C105.503 21.0993 106.204 20.9102 107.002 20.9102C108.059 20.9102 108.907 21.2064 109.545 21.7988C110.183 22.3867 110.554 23.2025 110.659 24.2461H109.34C109.226 23.4531 108.978 22.8789 108.595 22.5234C108.216 22.168 107.686 21.9902 107.002 21.9902C106.163 21.9902 105.505 22.3001 105.026 22.9199C104.552 23.5397 104.315 24.4215 104.315 25.5654V26.5293C104.315 27.6094 104.541 28.4684 104.992 29.1064C105.443 29.7445 106.075 30.0635 106.886 30.0635C107.615 30.0635 108.173 29.8994 108.561 29.5713C108.952 29.2386 109.212 28.6621 109.34 27.8418H110.659ZM115.834 24.7383C115.643 24.7064 115.435 24.6904 115.212 24.6904C114.382 24.6904 113.82 25.0436 113.523 25.75V31H112.259V23.6035H113.489L113.51 24.458C113.924 23.7972 114.512 23.4668 115.273 23.4668C115.52 23.4668 115.706 23.4987 115.834 23.5625V24.7383ZM119.936 31.1367C118.933 31.1367 118.117 30.8086 117.488 30.1523C116.859 29.4915 116.545 28.6097 116.545 27.5068V27.2744C116.545 26.5407 116.684 25.8867 116.962 25.3125C117.244 24.7337 117.636 24.2826 118.138 23.959C118.644 23.6309 119.19 23.4668 119.778 23.4668C120.74 23.4668 121.487 23.7835 122.021 24.417C122.554 25.0505 122.82 25.9574 122.82 27.1377V27.6641H117.81C117.828 28.3932 118.04 28.9834 118.445 29.4346C118.855 29.8812 119.375 30.1045 120.004 30.1045C120.451 30.1045 120.829 30.0133 121.139 29.8311C121.449 29.6488 121.72 29.4072 121.952 29.1064L122.725 29.708C122.105 30.6605 121.175 31.1367 119.936 31.1367ZM119.778 24.5059C119.268 24.5059 118.84 24.6927 118.493 25.0664C118.147 25.4355 117.933 25.9551 117.851 26.625H121.556V26.5293C121.519 25.8867 121.346 25.39 121.036 25.0391C120.726 24.6836 120.307 24.5059 119.778 24.5059ZM128.856 31C128.784 30.8542 128.724 30.5944 128.679 30.2207C128.091 30.8314 127.389 31.1367 126.573 31.1367C125.844 31.1367 125.245 30.9316 124.775 30.5215C124.311 30.1068 124.078 29.5827 124.078 28.9492C124.078 28.179 124.37 27.582 124.953 27.1582C125.541 26.7298 126.366 26.5156 127.428 26.5156H128.658V25.9346C128.658 25.4925 128.526 25.1416 128.262 24.8818C127.997 24.6175 127.608 24.4854 127.093 24.4854C126.642 24.4854 126.263 24.5993 125.958 24.8271C125.653 25.055 125.5 25.3307 125.5 25.6543H124.229C124.229 25.2852 124.358 24.9297 124.618 24.5879C124.882 24.2415 125.238 23.9681 125.685 23.7676C126.136 23.5671 126.63 23.4668 127.168 23.4668C128.02 23.4668 128.688 23.681 129.171 24.1094C129.654 24.5332 129.905 25.1188 129.923 25.8662V29.2705C129.923 29.9495 130.009 30.4896 130.183 30.8906V31H128.856ZM126.758 30.0361C127.154 30.0361 127.53 29.9336 127.886 29.7285C128.241 29.5234 128.499 29.2568 128.658 28.9287V27.4111H127.667C126.118 27.4111 125.343 27.8646 125.343 28.7715C125.343 29.168 125.475 29.4779 125.739 29.7012C126.004 29.9245 126.343 30.0361 126.758 30.0361ZM133.621 21.8125V23.6035H135.002V24.5811H133.621V29.168C133.621 29.4642 133.683 29.6875 133.806 29.8379C133.929 29.9837 134.138 30.0566 134.435 30.0566C134.58 30.0566 134.781 30.0293 135.036 29.9746V31C134.703 31.0911 134.38 31.1367 134.065 31.1367C133.5 31.1367 133.074 30.9658 132.787 30.624C132.5 30.2822 132.356 29.7969 132.356 29.168V24.5811H131.01V23.6035H132.356V21.8125H133.621ZM137.859 31H136.595V23.6035H137.859V31ZM136.492 21.6416C136.492 21.4365 136.554 21.2633 136.677 21.1221C136.804 20.9808 136.991 20.9102 137.237 20.9102C137.483 20.9102 137.67 20.9808 137.798 21.1221C137.925 21.2633 137.989 21.4365 137.989 21.6416C137.989 21.8467 137.925 22.0176 137.798 22.1543C137.67 22.291 137.483 22.3594 137.237 22.3594C136.991 22.3594 136.804 22.291 136.677 22.1543C136.554 22.0176 136.492 21.8467 136.492 21.6416ZM142.33 29.2842L144.162 23.6035H145.454L142.802 31H141.838L139.158 23.6035H140.45L142.33 29.2842ZM149.645 31.1367C148.642 31.1367 147.826 30.8086 147.197 30.1523C146.568 29.4915 146.254 28.6097 146.254 27.5068V27.2744C146.254 26.5407 146.393 25.8867 146.671 25.3125C146.953 24.7337 147.345 24.2826 147.847 23.959C148.353 23.6309 148.899 23.4668 149.487 23.4668C150.449 23.4668 151.196 23.7835 151.729 24.417C152.263 25.0505 152.529 25.9574 152.529 27.1377V27.6641H147.519C147.537 28.3932 147.749 28.9834 148.154 29.4346C148.564 29.8812 149.084 30.1045 149.713 30.1045C150.16 30.1045 150.538 30.0133 150.848 29.8311C151.158 29.6488 151.429 29.4072 151.661 29.1064L152.434 29.708C151.814 30.6605 150.884 31.1367 149.645 31.1367ZM149.487 24.5059C148.977 24.5059 148.549 24.6927 148.202 25.0664C147.856 25.4355 147.642 25.9551 147.56 26.625H151.265V26.5293C151.228 25.8867 151.055 25.39 150.745 25.0391C150.435 24.6836 150.016 24.5059 149.487 24.5059ZM154.197 31V21.0469H157.007C157.873 21.0469 158.638 21.2383 159.304 21.6211C159.969 22.0039 160.482 22.5485 160.842 23.2549C161.206 23.9613 161.391 24.7725 161.396 25.6885V26.3242C161.396 27.263 161.213 28.0856 160.849 28.792C160.489 29.4984 159.971 30.0407 159.297 30.4189C158.627 30.7972 157.845 30.9909 156.952 31H154.197ZM155.51 22.127V29.9268H156.891C157.902 29.9268 158.688 29.6123 159.249 28.9834C159.814 28.3545 160.097 27.459 160.097 26.2969V25.7158C160.097 24.5856 159.83 23.7083 159.297 23.084C158.768 22.4551 158.016 22.1361 157.041 22.127H155.51ZM166.256 31.1367C165.253 31.1367 164.438 30.8086 163.809 30.1523C163.18 29.4915 162.865 28.6097 162.865 27.5068V27.2744C162.865 26.5407 163.004 25.8867 163.282 25.3125C163.565 24.7337 163.957 24.2826 164.458 23.959C164.964 23.6309 165.511 23.4668 166.099 23.4668C167.06 23.4668 167.808 23.7835 168.341 24.417C168.874 25.0505 169.141 25.9574 169.141 27.1377V27.6641H164.13C164.148 28.3932 164.36 28.9834 164.766 29.4346C165.176 29.8812 165.695 30.1045 166.324 30.1045C166.771 30.1045 167.149 30.0133 167.459 29.8311C167.769 29.6488 168.04 29.4072 168.272 29.1064L169.045 29.708C168.425 30.6605 167.495 31.1367 166.256 31.1367ZM166.099 24.5059C165.588 24.5059 165.16 24.6927 164.813 25.0664C164.467 25.4355 164.253 25.9551 164.171 26.625H167.876V26.5293C167.84 25.8867 167.666 25.39 167.356 25.0391C167.047 24.6836 166.627 24.5059 166.099 24.5059ZM174.917 29.0381C174.917 28.6963 174.787 28.432 174.527 28.2451C174.272 28.0537 173.823 27.8896 173.181 27.7529C172.543 27.6162 172.035 27.4521 171.656 27.2607C171.283 27.0693 171.005 26.8415 170.822 26.5771C170.645 26.3128 170.556 25.9984 170.556 25.6338C170.556 25.0277 170.811 24.515 171.321 24.0957C171.836 23.6764 172.493 23.4668 173.29 23.4668C174.129 23.4668 174.808 23.6833 175.327 24.1162C175.851 24.5492 176.113 25.1029 176.113 25.7773H174.842C174.842 25.431 174.694 25.1325 174.397 24.8818C174.106 24.6312 173.737 24.5059 173.29 24.5059C172.83 24.5059 172.47 24.6061 172.21 24.8066C171.95 25.0072 171.82 25.2692 171.82 25.5928C171.82 25.8981 171.941 26.1283 172.183 26.2832C172.424 26.4382 172.859 26.5863 173.488 26.7275C174.122 26.8688 174.634 27.0374 175.026 27.2334C175.418 27.4294 175.708 27.6663 175.895 27.9443C176.086 28.2178 176.182 28.5527 176.182 28.9492C176.182 29.61 175.917 30.141 175.389 30.542C174.86 30.9385 174.174 31.1367 173.331 31.1367C172.739 31.1367 172.215 31.0319 171.759 30.8223C171.303 30.6126 170.945 30.321 170.686 29.9473C170.43 29.569 170.303 29.1611 170.303 28.7236H171.567C171.59 29.1475 171.759 29.4847 172.073 29.7354C172.392 29.9814 172.812 30.1045 173.331 30.1045C173.81 30.1045 174.192 30.0088 174.479 29.8174C174.771 29.6214 174.917 29.3617 174.917 29.0381ZM179.203 31H177.938V23.6035H179.203V31ZM177.836 21.6416C177.836 21.4365 177.897 21.2633 178.021 21.1221C178.148 20.9808 178.335 20.9102 178.581 20.9102C178.827 20.9102 179.014 20.9808 179.142 21.1221C179.269 21.2633 179.333 21.4365 179.333 21.6416C179.333 21.8467 179.269 22.0176 179.142 22.1543C179.014 22.291 178.827 22.3594 178.581 22.3594C178.335 22.3594 178.148 22.291 178.021 22.1543C177.897 22.0176 177.836 21.8467 177.836 21.6416ZM180.933 27.2402C180.933 26.0872 181.199 25.1712 181.732 24.4922C182.266 23.8086 182.972 23.4668 183.852 23.4668C184.754 23.4668 185.458 23.7858 185.964 24.4238L186.025 23.6035H187.181V30.8223C187.181 31.7793 186.896 32.5335 186.326 33.085C185.761 33.6364 185 33.9121 184.043 33.9121C183.51 33.9121 182.988 33.7982 182.478 33.5703C181.967 33.3424 181.577 33.0303 181.309 32.6338L181.965 31.875C182.507 32.5449 183.17 32.8799 183.954 32.8799C184.569 32.8799 185.048 32.7067 185.39 32.3604C185.736 32.014 185.909 31.5264 185.909 30.8975V30.2617C185.403 30.8451 184.713 31.1367 183.838 31.1367C182.972 31.1367 182.27 30.7881 181.732 30.0908C181.199 29.3936 180.933 28.4434 180.933 27.2402ZM182.204 27.3838C182.204 28.2178 182.375 28.874 182.717 29.3525C183.059 29.8265 183.537 30.0635 184.152 30.0635C184.95 30.0635 185.535 29.7012 185.909 28.9766V25.5996C185.522 24.8932 184.941 24.54 184.166 24.54C183.551 24.54 183.07 24.7793 182.724 25.2578C182.377 25.7363 182.204 26.445 182.204 27.3838ZM190.291 23.6035L190.332 24.5332C190.897 23.8223 191.635 23.4668 192.547 23.4668C194.11 23.4668 194.898 24.3486 194.912 26.1123V31H193.647V26.1055C193.643 25.5723 193.52 25.1781 193.278 24.9229C193.041 24.6676 192.67 24.54 192.164 24.54C191.754 24.54 191.394 24.6494 191.084 24.8682C190.774 25.0869 190.533 25.374 190.359 25.7295V31H189.095V23.6035H190.291ZM201.126 29.0381C201.126 28.6963 200.996 28.432 200.736 28.2451C200.481 28.0537 200.032 27.8896 199.39 27.7529C198.752 27.6162 198.243 27.4521 197.865 27.2607C197.492 27.0693 197.214 26.8415 197.031 26.5771C196.854 26.3128 196.765 25.9984 196.765 25.6338C196.765 25.0277 197.02 24.515 197.53 24.0957C198.045 23.6764 198.701 23.4668 199.499 23.4668C200.338 23.4668 201.017 23.6833 201.536 24.1162C202.06 24.5492 202.322 25.1029 202.322 25.7773H201.051C201.051 25.431 200.903 25.1325 200.606 24.8818C200.315 24.6312 199.946 24.5059 199.499 24.5059C199.039 24.5059 198.679 24.6061 198.419 24.8066C198.159 25.0072 198.029 25.2692 198.029 25.5928C198.029 25.8981 198.15 26.1283 198.392 26.2832C198.633 26.4382 199.068 26.5863 199.697 26.7275C200.331 26.8688 200.843 27.0374 201.235 27.2334C201.627 27.4294 201.917 27.6663 202.104 27.9443C202.295 28.2178 202.391 28.5527 202.391 28.9492C202.391 29.61 202.126 30.141 201.598 30.542C201.069 30.9385 200.383 31.1367 199.54 31.1367C198.948 31.1367 198.424 31.0319 197.968 30.8223C197.512 30.6126 197.154 30.321 196.895 29.9473C196.639 29.569 196.512 29.1611 196.512 28.7236H197.776C197.799 29.1475 197.968 29.4847 198.282 29.7354C198.601 29.9814 199.021 30.1045 199.54 30.1045C200.019 30.1045 200.401 30.0088 200.688 29.8174C200.98 29.6214 201.126 29.3617 201.126 29.0381ZM211.585 29.6943C211.248 30.1774 210.776 30.5397 210.17 30.7812C209.568 31.0182 208.867 31.1367 208.064 31.1367C207.253 31.1367 206.533 30.9476 205.904 30.5693C205.275 30.1865 204.788 29.6442 204.441 28.9424C204.1 28.2406 203.924 27.4271 203.915 26.502V25.6338C203.915 24.1344 204.264 22.9723 204.961 22.1475C205.663 21.3226 206.647 20.9102 207.914 20.9102C208.953 20.9102 209.789 21.1768 210.423 21.71C211.056 22.2386 211.444 22.9906 211.585 23.9658H210.272C210.026 22.6488 209.243 21.9902 207.921 21.9902C207.041 21.9902 206.374 22.3001 205.918 22.9199C205.467 23.5352 205.239 24.4284 205.234 25.5996V26.4131C205.234 27.5296 205.49 28.4183 206 29.0791C206.51 29.7354 207.201 30.0635 208.071 30.0635C208.563 30.0635 208.994 30.0088 209.363 29.8994C209.732 29.79 210.038 29.6055 210.279 29.3457V27.1104H207.976V26.0439H211.585V29.6943ZM218.147 30.2686C217.655 30.8473 216.933 31.1367 215.98 31.1367C215.192 31.1367 214.59 30.9089 214.176 30.4531C213.766 29.9928 213.558 29.3138 213.554 28.416V23.6035H214.818V28.3818C214.818 29.5029 215.274 30.0635 216.186 30.0635C217.152 30.0635 217.794 29.7035 218.113 28.9834V23.6035H219.378V31H218.175L218.147 30.2686ZM224.881 24.7383C224.689 24.7064 224.482 24.6904 224.259 24.6904C223.429 24.6904 222.867 25.0436 222.57 25.75V31H221.306V23.6035H222.536L222.557 24.458C222.971 23.7972 223.559 23.4668 224.32 23.4668C224.566 23.4668 224.753 23.4987 224.881 23.5625V24.7383ZM230.616 30.2686C230.124 30.8473 229.402 31.1367 228.449 31.1367C227.661 31.1367 227.059 30.9089 226.645 30.4531C226.234 29.9928 226.027 29.3138 226.022 28.416V23.6035H227.287V28.3818C227.287 29.5029 227.743 30.0635 228.654 30.0635C229.62 30.0635 230.263 29.7035 230.582 28.9834V23.6035H231.847V31H230.644L230.616 30.2686Z" fill="#03A9F4"/>
</svg>
