<svg width="318" height="260" viewBox="0 0 318 260" fill="none" xmlns="http://www.w3.org/2000/svg">
<g clip-path="url(#clip0)">
<path opacity="0.18" d="M144.895 0.271944C113.447 1.96044 82.9438 11.5849 56.243 28.2435C43.7776 36.1264 31.975 45.7215 24.234 58.2748C16.493 70.8281 13.2896 86.7295 18.2859 100.58C21.2685 108.81 26.8766 115.795 30.8788 123.576C34.881 131.357 37.1838 140.935 33.1986 148.725C28.6271 157.743 17.5977 161.058 9.78873 167.55C-2.60872 177.841 -1.19818 187.131 2.99095 200.557C6.61926 212.288 12.4484 222.443 21.9058 230.461C40.3787 246.125 65.9554 250.965 89.1783 254.813C122.827 260.391 157.326 261.849 191.196 257.356C207.774 255.169 223.247 250.575 239.316 246.532C255.019 242.607 270.84 237.708 284.232 228.35C300.171 217.212 311.441 200.61 315.892 181.712C320.343 162.814 317.663 142.943 308.364 125.89C294.972 101.309 269.566 85.4581 254.126 62.14C245.051 48.4424 239.588 32.4138 229.017 19.8605C219.305 8.48541 193.677 4.00996 179.784 1.857C172.819 0.794018 165.79 0.190894 158.745 0.0515616C154.131 -0.0501532 149.509 0.00918042 144.895 0.271944Z" fill="#4FC3F7"/>
<path d="M52.9547 192.156C55.9967 194.343 59.0472 196.53 62.2507 198.471C68.0543 201.989 74.3082 204.693 80.5367 207.38C82.3551 208.159 84.182 208.948 86.0089 209.702C87.1796 210.268 88.4493 210.602 89.7477 210.685C92.5943 210.685 94.846 208.465 97.3952 207.125C99.613 205.947 102.128 205.43 104.371 204.328C105.221 203.921 106.071 203.243 105.994 202.336C105.918 201.429 105.145 200.997 104.405 200.641C97.939 197.25 90.8948 195.004 83.9016 192.826C82.79 192.392 81.6025 192.184 80.4092 192.216C78.1745 192.419 76.4325 194.191 74.3167 194.936C72.9036 195.366 71.4199 195.516 69.9492 195.377C64.1031 195.064 58.7583 192.216 52.9547 192.156Z" fill="url(#paint0_linear)"/>
<path d="M173.853 208.1L173.369 208.168C173.012 208.448 174.006 208.524 173.853 208.1Z" fill="url(#paint1_linear)"/>
<path d="M65.7515 151.818C69.3798 153.267 73.195 154.674 75.5488 156.336L131.299 195.386C135.569 198.47 140.018 201.301 144.623 203.862C148.378 205.888 150.52 209.795 155.074 210.779C157.327 211.167 159.634 211.127 161.872 210.66C165.537 210.066 169.142 209.152 172.647 207.93C173.08 207.786 173.683 207.693 173.879 208.109C206.346 203.684 237.395 191.927 269.583 185.808C269.967 185.744 270.319 185.556 270.585 185.272C270.851 184.989 271.016 184.626 271.053 184.239C271.091 183.853 271 183.465 270.794 183.135C270.588 182.806 270.279 182.553 269.914 182.417C267.218 181.469 264.434 180.788 261.604 180.383C256.506 179.433 251.348 178.509 246.198 177.67C235.818 175.882 225.339 174.721 214.818 174.195C197.348 173.492 179.725 175.322 162.45 172.618C146.033 170.076 130.551 163.507 115.273 156.971C111.594 155.395 107.838 153.759 104.949 151.038C102.689 148.877 100.87 146.003 97.9814 144.579C95.0924 143.155 91.3706 143.359 88.1246 143.511C81.7311 143.943 75.3729 144.792 69.0909 146.054C67.9013 147.919 66.7966 149.86 65.7515 151.818Z" fill="url(#paint2_linear)"/>
<path d="M268.104 174.839L195.181 143.198C193.607 142.408 191.829 142.112 190.083 142.35L99.8593 150.038C98.1599 150.284 98.4403 157.666 99.8593 158.87L153.128 204.099C154.729 205.507 156.644 206.512 158.714 207.031C160.783 207.55 162.947 207.568 165.025 207.083L267.476 182.248C268.776 181.892 269.336 175.467 268.104 174.839Z" fill="#4FC3F7"/>
<path d="M268.104 174.839L195.181 143.198C193.607 142.408 191.829 142.112 190.083 142.35L99.8593 150.038C98.1599 150.284 98.4403 157.666 99.8593 158.87L153.128 204.099C154.729 205.507 156.644 206.512 158.714 207.031C160.783 207.55 162.947 207.568 165.025 207.083L267.476 182.248C268.776 181.892 269.336 175.467 268.104 174.839Z" fill="url(#paint3_linear)"/>
<path d="M99.8594 153.581L153.12 198.81C154.72 200.218 156.635 201.223 158.705 201.741C160.775 202.259 162.939 202.274 165.016 201.785L267.425 176.958C267.839 176.783 268.167 176.45 268.335 176.034C268.504 175.617 268.501 175.151 268.325 174.738C268.192 174.424 267.967 174.159 267.679 173.975L239.596 158.167L232.229 154.039L209.805 141.417C208.23 140.628 206.453 140.332 204.707 140.57L100.786 149.597C99.0521 149.843 98.4828 152.394 99.8594 153.581Z" fill="#4FC3F7"/>
<path d="M204.749 143.07L109.716 157.099L138.972 180.781L236.495 161.099L204.749 143.07Z" fill="url(#paint4_linear)"/>
<path d="M214.691 166.982L175.527 174.873L195.776 191.351L236.495 182.239L214.691 166.982Z" fill="url(#paint5_linear)"/>
<path d="M234.268 185.096C233.87 185.9 233.304 186.611 232.608 187.179C231.912 187.748 231.102 188.162 230.232 188.393C227.36 189.079 210.587 193.36 210.587 193.36C210.587 193.36 207.859 193.69 206.338 191.868L234.268 185.096Z" fill="url(#paint6_linear)"/>
<path d="M207.723 140.57L100.48 155.827C99.6933 155.935 98.8951 155.741 98.2478 155.282C97.6004 154.824 97.1527 154.137 96.9958 153.36L81.7008 76.2946C81.382 74.7536 81.6899 73.1493 82.5568 71.8348C83.4236 70.5202 84.7784 69.6029 86.3232 69.2847C86.5614 69.2342 86.8027 69.2003 87.0455 69.183L192.955 59.8592C194.516 59.7123 196.073 60.1866 197.285 61.1787C198.498 62.1709 199.269 63.6006 199.43 65.1568L207.723 140.57Z" fill="#4FC3F7"/>
<path d="M207.723 140.57L100.76 155.751C99.8966 155.876 99.018 155.665 98.3062 155.161C97.5944 154.658 97.1039 153.901 96.9363 153.047L81.6923 76.2946C81.3735 74.7536 81.6814 73.1493 82.5483 71.8348C83.4151 70.5202 84.77 69.6029 86.3148 69.2847C86.5529 69.2343 86.7942 69.2003 87.037 69.183L192.955 59.8592C194.516 59.7123 196.073 60.1866 197.285 61.1787C198.498 62.1709 199.269 63.6006 199.43 65.1568L207.723 140.57Z" fill="url(#paint7_linear)"/>
<path d="M102.409 151.36L87.1815 73.5992L195.47 66.0892L204.061 139.705L102.409 151.36Z" fill="white"/>
<path d="M253.498 120.278C253.498 127.795 250.504 135.005 245.175 140.32C239.846 145.636 232.619 148.622 225.083 148.622C217.547 148.622 210.319 145.636 204.991 140.32C199.662 135.005 196.668 127.795 196.668 120.278C196.654 119.556 196.682 118.834 196.753 118.116C197.321 110.813 200.7 104.012 206.184 99.1404C211.668 94.2683 218.829 91.7031 226.167 91.9826C233.505 92.2621 240.45 95.3646 245.545 100.64C250.64 105.915 253.49 112.953 253.498 120.278Z" fill="#4FC3F7"/>
<path opacity="0.14" d="M213.136 133.153C212.201 137.247 213.348 141.629 212.507 145.698C205.946 142.457 200.884 136.825 198.368 129.966C198.23 128.554 198.267 127.131 198.478 125.728C198.798 124.237 198.812 122.698 198.521 121.202C198.114 120.077 197.517 119.03 196.753 118.108C197.071 113.96 198.302 109.934 200.359 106.315C202.415 102.696 205.246 99.5744 208.649 97.1715C208.683 97.3622 208.683 97.5573 208.649 97.7479L207.434 103.147C207.672 104.746 207.672 106.371 207.434 107.97C207.303 108.768 206.999 109.527 206.544 110.196C206.089 110.865 205.494 111.427 204.8 111.844C204.272 112.058 203.761 112.31 203.271 112.598C202.803 112.984 202.411 113.452 202.115 113.98C201.34 115.074 200.764 116.297 200.415 117.591C200.243 118.239 200.235 118.921 200.392 119.573C200.549 120.226 200.867 120.829 201.316 121.329L209.236 119.795C210.085 119.634 211.071 119.523 211.64 120.151C212.21 120.778 211.895 122.075 212.048 123.075C212.235 124.355 213.374 125.27 213.901 126.465C214.776 128.559 213.663 130.915 213.136 133.153ZM253.498 120.278C253.503 124.565 252.531 128.797 250.656 132.655C248.78 136.513 246.05 139.894 242.672 142.545C242.283 142.284 241.948 141.95 241.686 141.562C241.258 140.926 241.099 140.147 241.246 139.396C241.392 138.644 241.832 137.981 242.468 137.552C241.992 137.798 240.115 137.188 239.554 137.095L236.631 136.645C235.229 136.433 232.781 136.518 231.966 135.111C231.874 134.917 231.763 134.733 231.634 134.56C231.465 134.381 231.259 134.239 231.031 134.145C230.181 133.713 229.119 133.229 228.907 132.272C228.762 131.577 229.111 130.78 228.754 130.153C228.635 129.966 228.465 129.813 228.354 129.619C228.23 129.33 228.182 129.015 228.217 128.703C228.251 128.391 228.366 128.093 228.55 127.839C229.782 125.686 232.34 124.651 234.787 124.236C237.234 123.821 239.766 123.889 242.154 123.194C243.616 122.626 245.119 122.167 246.649 121.82C247.499 121.702 248.569 121.617 248.884 120.812C249.062 120.363 248.884 119.829 249.071 119.371C249.139 119.176 249.266 118.998 249.342 118.803C249.436 118.508 249.409 118.189 249.267 117.914C249.126 117.639 248.881 117.432 248.586 117.336C248.515 117.312 248.441 117.294 248.365 117.286C248.561 116.752 248.722 116.074 248.306 115.692C248.159 115.584 247.988 115.512 247.807 115.484C247.627 115.456 247.442 115.472 247.269 115.531C246.249 115.794 245.51 116.65 244.652 117.226C241.814 119.235 237.931 118.523 235.56 116.158C235.173 115.821 234.898 115.375 234.77 114.878C234.737 114.457 234.836 114.035 235.051 113.671C235.267 113.307 235.59 113.019 235.976 112.844C236.751 112.511 237.588 112.346 238.432 112.361L237.497 106.216C232.773 107.479 230.853 102.995 230.181 99.2652C229.51 95.5356 232.161 94.1794 235.585 93.9506C240.868 96.0491 245.398 99.6794 248.591 104.372C251.784 109.066 253.493 114.606 253.498 120.278Z" fill="#020202"/>
<path d="M117.44 122.422C118.29 130.051 118.341 137.773 119.709 145.308C120.023 147.003 120.559 148.936 122.071 149.792C123.281 150.317 124.629 150.436 125.912 150.131C133.991 149.025 141.852 146.686 149.22 143.197C147.081 133.085 143.924 123.214 139.796 113.734C138.717 111.276 137.536 108.784 135.616 106.902C132.701 104.054 128.665 103.156 124.79 102.393C122.776 101.995 120.729 101.723 118.732 101.215C117.5 100.901 113.999 98.8498 112.979 99.0448C109.58 99.6805 112.979 105.037 113.829 107.114C115.749 112.022 116.965 117.175 117.44 122.422Z" fill="url(#paint8_linear)"/>
<path d="M188.681 96.6545L107.694 104.309L105.629 94.866L186.624 87.2035L188.681 96.6545Z" fill="#4FC3F7"/>
<path d="M188.681 96.6545L107.694 104.309L105.629 94.866L186.624 87.2035L188.681 96.6545Z" fill="url(#paint9_linear)"/>
<path d="M179.946 91.1195C186.2 90.4499 192.258 94.4253 195.606 99.7314C198.954 105.038 199.855 107.606 200.28 113.861C200.415 115.896 200.585 118.15 202.089 119.532C204.596 121.829 208.513 120.04 211.793 119.142C219.568 117.006 228.601 121.549 231.507 129.059C234.345 136.391 230.283 147.275 236.741 151.784C242.494 155.785 257.984 146.13 262.836 137.442C262.836 137.442 264.247 156.522 249.147 166.058C226.74 180.213 184.738 185.714 180.32 185.24C172.969 184.434 164.948 181.892 161.43 175.407C157.912 168.923 160.19 160.769 160.19 153.284C160.19 148.978 158.244 143.587 153.927 143.494C150.698 143.418 148.362 146.486 146.858 149.334C145.354 152.182 143.782 155.463 140.714 156.48C137.978 157.387 134.868 156.039 132.99 153.861C131.112 151.682 130.254 148.775 129.676 145.986C127.679 136.205 128.588 126.042 126.983 116.184C126.371 112.437 125.283 108.598 122.734 105.792C120.185 102.986 114.194 98.8329 109.623 99.0109L179.946 91.1195Z" fill="#4FC3F7"/>
<path d="M179.946 91.1195C186.2 90.4499 192.258 94.4253 195.606 99.7314C198.954 105.038 199.855 107.606 200.28 113.861C200.415 115.896 200.585 118.15 202.089 119.532C204.596 121.829 208.513 120.04 211.793 119.142C219.568 117.006 228.601 121.549 231.507 129.059C233.869 135.162 232.458 142.011 234.744 148.122C236.07 151.682 238.203 152.106 241.916 151.843C245.536 151.498 249.001 150.206 251.96 148.097C256.404 145.037 259.82 140.739 263.167 136.51C262.377 141.723 262.513 147.139 260.737 152.098C257.806 160.303 250.201 165.863 242.613 170.177C229.707 177.501 215.711 182.721 201.155 185.638C194.357 187.011 187.236 185.952 180.354 185.206C173.003 184.358 164.982 181.815 161.464 175.373C157.946 168.931 160.232 160.735 160.258 153.25C160.258 148.944 158.312 143.554 153.995 143.46C150.766 143.384 148.429 146.452 146.925 149.3C145.421 152.148 143.849 155.429 140.782 156.446C138.046 157.353 134.936 156.005 133.058 153.827C131.18 151.648 130.322 148.741 129.744 145.952C127.747 136.171 128.656 126.008 127.05 116.15C126.439 112.403 125.351 108.521 122.802 105.758C120.253 102.995 114.262 98.799 109.691 98.977L179.946 91.1195Z" fill="url(#paint10_linear)"/>
<path d="M206.346 120.574L153.536 140.494C153.536 140.494 150.622 141.197 146.925 149.334C143.229 157.471 130.05 160.353 129.379 134.382C128.707 108.411 127.331 110.055 124.025 104.665L200.127 112.174C200.127 112.174 199.625 122.482 206.346 120.574Z" fill="url(#paint11_linear)"/>
<path d="M178.433 148.198L187.619 144.791M140.672 103.274L180.574 99.0278L140.672 103.274ZM145.235 116.023L185.137 111.776L145.235 116.023ZM147.155 124.524L187.066 120.278L147.155 124.524ZM174.847 106.521L182.597 105.699L174.847 106.521ZM159.34 108.174L169.842 107.055L159.34 108.174ZM142.685 109.945L152.066 108.945L142.685 109.945ZM177.133 141.477L216.203 127.008L177.133 141.477ZM180.303 154.149L219.373 139.68L180.303 154.149ZM181.331 162.879L220.409 148.41L181.331 162.879ZM209.924 136.535L217.503 133.73L209.924 136.535ZM194.739 142.155L205.021 138.349L194.739 142.155Z" stroke="#473F47" stroke-width="2" stroke-linecap="round" stroke-linejoin="round"/>
<path opacity="0.45" d="M259.165 142.265C259.165 142.265 222.627 174.797 197.985 171.33C197.985 171.33 177.736 194.14 169.8 180.79C161.864 167.44 175.485 158.845 175.485 158.845L234.702 148.122C234.702 148.122 238.627 161.303 259.165 142.265Z" fill="url(#paint12_linear)"/>
<path d="M79.8314 196.106C79.9079 197.089 81.3099 197.106 82.8989 196.954C84.4879 196.801 84.063 197.174 86.2978 197.2C88.5325 197.225 89.2973 196.496 89.4078 196.182C89.5182 195.869 88.4306 195.665 87.2835 195.386L86.8416 195.275C85.55 194.945 84.6918 193.979 83.5872 193.139C82.4825 192.3 81.1909 189.444 81.1909 189.444L78.1404 189.308C78.1404 189.308 79.4235 191.902 79.9079 193.021C80.1034 193.702 80.1034 194.425 79.9079 195.106C79.84 195.435 79.8143 195.771 79.8314 196.106Z" fill="#FFB27D"/>
<path d="M82.8649 196.92C84.4539 196.733 84.029 197.14 86.2638 197.166C88.4986 197.191 89.2633 196.462 89.3738 196.149C89.4842 195.835 88.3966 195.631 87.2495 195.352C86.2312 195.835 85.1013 196.037 83.978 195.937C82.4825 195.784 80.9615 195.165 79.9334 195.089C79.85 195.427 79.8128 195.775 79.8229 196.123C79.9079 197.089 81.3099 197.106 82.8649 196.92Z" fill="#473F47"/>
<path d="M59.5655 195.106L59.8969 195.275C61.2645 195.879 62.6873 196.351 64.1455 196.683C64.6225 196.821 65.1232 196.858 65.6155 196.793C65.923 196.733 66.2132 196.605 66.4653 196.42C66.5842 196.327 66.7032 196.182 66.6352 196.055C66.6132 196.007 66.5778 195.966 66.5332 195.937C65.8875 195.42 65.0802 195.259 64.4004 194.792C63.7207 194.326 63.1768 193.792 62.548 193.317C61.4944 192.512 62.548 187.774 62.548 187.774L59.2086 187.452C59.2086 187.452 59.3616 191.444 59.3616 193.25C59.3616 193.792 58.9027 194.521 59.3616 194.945C59.4196 195.01 59.4886 195.065 59.5655 195.106Z" fill="#FFB27D"/>
<path d="M61.9022 197.089C62.5087 197.364 63.1333 197.596 63.7716 197.784C64.3897 197.998 65.0379 198.113 65.692 198.124C66.3527 198.142 66.9991 197.929 67.5189 197.522C67.5888 197.475 67.6478 197.413 67.6918 197.342C67.7357 197.27 67.7637 197.19 67.7738 197.106C67.7635 196.96 67.707 196.82 67.6124 196.708C67.3038 196.273 66.8999 195.913 66.4313 195.657C66.1848 195.538 66.0404 195.657 65.8025 195.784C65.5275 195.894 65.2431 195.979 64.9527 196.038C63.9544 196.243 62.921 196.2 61.9433 195.913C60.9655 195.626 60.0732 195.105 59.3446 194.394C59.3446 194.394 59.2851 194.318 59.2426 194.309C59.2001 194.301 59.0727 194.394 59.0557 194.496C59.0172 194.654 59.0125 194.819 59.0417 194.98C59.071 195.14 59.1336 195.293 59.2256 195.428C59.3844 195.645 59.5834 195.829 59.8119 195.971C60.4712 196.409 61.1711 196.784 61.9022 197.089Z" fill="#473F47"/>
<path d="M68.6916 114.438C68.7667 113.913 68.7951 113.382 68.7765 112.853C68.7696 112.305 68.6296 111.767 68.3687 111.284C68.1902 110.962 67.6974 110.666 67.5699 110.369C67.1001 109.438 66.4364 108.617 65.6231 107.962C64.8098 107.307 63.8657 106.833 62.854 106.572C61.3663 106.369 59.8514 106.571 58.4694 107.157C58.1052 107.251 57.764 107.418 57.4667 107.648C57.2144 107.903 57.0202 108.21 56.8974 108.547C56.5681 109.257 56.2843 109.987 56.0477 110.734C55.41 109.779 54.5305 109.01 53.4985 108.504C52.8926 108.304 52.2451 108.262 51.6185 108.384C50.9919 108.506 50.4073 108.787 49.9212 109.199C49.4447 109.619 49.0566 110.128 48.7794 110.699C48.5022 111.269 48.3415 111.889 48.3067 112.522C48.3425 113.337 48.2797 114.154 48.1198 114.955C47.959 115.421 47.6725 115.834 47.2917 116.148C46.9109 116.462 46.4506 116.665 45.9615 116.735C46.4335 117.439 47.1018 117.99 47.8839 118.32C48.666 118.65 49.5278 118.744 50.363 118.591C50.0656 119.262 49.725 119.913 49.3434 120.541C50.4261 120.851 51.5837 120.773 52.6148 120.32C53.2746 119.847 53.8061 119.218 54.1613 118.489L53.456 120.024C54.6796 118.871 54.3737 116.633 55.6483 115.557C56.0137 115.735 56.1497 116.184 56.4046 116.497C56.6595 116.811 57.2543 116.921 57.3903 116.497C57.4728 117.465 57.8002 118.395 58.3419 119.201C58.7138 119.686 59.2002 120.071 59.7577 120.323C60.3152 120.574 60.9265 120.684 61.5369 120.642C61.7663 120.642 62.0552 120.473 61.9788 120.269C62.5311 120.151 62.8285 119.557 63.3213 119.261C63.9586 118.862 64.7828 119.057 65.5306 118.93C65.9783 118.829 66.4003 118.637 66.7702 118.365C67.1401 118.094 67.4499 117.75 67.6804 117.353C68.226 116.466 68.5711 115.471 68.6916 114.438Z" fill="#FC682D"/>
<path d="M66.4143 123.38C65.4652 123.896 64.3743 124.092 63.3043 123.94C62.3937 123.557 61.6559 122.854 61.231 121.965C61.7663 121.854 61.9192 121.117 61.9107 117.972L62.1487 118.023L66.2188 118.82C66.2188 118.82 66.1254 120.1 66.1254 121.303C66.1169 122.312 66.1848 123.27 66.4143 123.38Z" fill="#FFB27D"/>
<path d="M66.2188 118.82C66.2188 118.82 66.1254 120.1 66.1254 121.303C63.8481 121.236 62.6415 119.167 62.1487 118.023L66.2188 118.82Z" fill="#ED975D"/>
<path d="M82.763 191.02C82.8402 191.274 82.8139 191.549 82.6899 191.783C82.5658 192.018 82.3539 192.195 82.1002 192.275C82.0185 192.288 81.9354 192.288 81.8538 192.275L80.2648 192.351L78.5653 192.402C78.3573 192.41 78.1503 192.369 77.9612 192.282C77.7722 192.195 77.6065 192.065 77.4777 191.902C73.9179 187.41 71.2136 182.305 69.4988 176.84C69.4308 176.619 69.3543 176.39 69.2779 176.162C67.5784 171.356 64.1795 165.312 62.3866 159.845C62.0977 158.997 61.8428 158.15 61.6049 157.387C61.5369 157.132 61.4604 156.887 61.3924 156.649C60.366 153.106 59.6803 149.473 59.3446 145.8L72.3963 145.901C74.6235 161.196 78.0904 176.285 82.763 191.02Z" fill="#473F47"/>
<path d="M70.5694 138.434C70.5694 144.63 71.4786 147.283 71.4786 147.283C67.6254 148.99 63.2842 149.255 59.2511 148.029L53.7534 146.774C53.8639 146.52 54.8496 142.35 54.96 142.121C56.3621 139.112 57.4242 137.798 57.5942 136.874C57.8772 135.16 57.9315 133.415 57.7556 131.687C57.491 128.925 56.9502 126.196 56.1411 123.541C57.9758 123.048 59.7755 122.433 61.5284 121.702C62.3266 122.413 63.3644 122.797 64.4344 122.778C65.76 122.778 66.1849 122.185 66.1339 121.566C67.5444 122.346 68.683 123.083 68.683 123.083C69.8811 125.16 72.3114 127.177 72.4813 130.365C72.4983 131.144 70.5694 138.264 70.5694 138.434Z" fill="white"/>
<path d="M59.3446 139.12C58.7753 139.926 57.6451 144.825 54.96 145.444C56.3621 141.952 57.4242 140.417 57.5942 139.349C57.8772 137.353 57.9314 135.331 57.7556 133.323C58.6648 131.729 59.3446 130.636 59.3446 130.636C59.4211 130.381 60.7891 126.135 61.231 129.932C61.4514 133.109 60.7992 136.286 59.3446 139.12Z" fill="#4FC3F7"/>
<path d="M66.9751 119.964C66.9751 119.964 61.5964 120.049 61.5879 116.709C61.5794 113.37 60.8911 111.123 64.324 110.92C67.7569 110.717 68.4366 111.996 68.7085 113.115C68.9805 114.234 68.4196 119.854 66.9751 119.964Z" fill="#FFB27D"/>
<path d="M66.7797 110.844C66.7797 110.844 65.3012 114.768 63.0409 115.345C60.7807 115.921 59.8035 115.345 59.8035 115.345C60.917 114.367 61.6558 113.033 61.8938 111.573C61.8938 111.573 65.6665 108.97 66.7797 110.844Z" fill="#FC682D"/>
<path d="M66.4143 111.157C66.9918 111.613 67.4593 112.193 67.7824 112.853C68.0543 113.7 68.1732 115.455 68.6831 115.395C68.6831 115.395 69.7962 112.734 68.5471 111.225C67.298 109.716 66.4143 111.157 66.4143 111.157Z" fill="#FC682D"/>
<path d="M77.5966 140.833L81.6328 147.91L80.3242 148.758L74.8435 142.901L77.5966 140.833Z" fill="#FFB27D"/>
<path d="M66.8731 122.499C66.8731 122.499 70.0426 123.066 71.2662 124.702C72.4898 126.338 76.2455 138.264 77.0103 139.392C77.775 140.519 78.3614 141.451 78.3614 141.451C77.654 142.325 76.7235 142.993 75.6677 143.384C74.1977 143.782 66.8731 122.499 66.8731 122.499Z" fill="#4FC3F7"/>
<path d="M66.1169 121.566C66.1169 121.566 69.2354 129.237 69.3288 130.797C69.4223 132.356 69.6942 156.225 69.6942 156.225C69.6942 156.225 69.5073 157.319 71.6146 156.861C72.553 156.74 73.4575 156.431 74.2742 155.954C74.2742 155.954 72.2604 141.24 72.8042 136.128C73.348 131.017 68.5556 122.668 68.5556 122.668L66.1169 121.566Z" fill="#4FC3F7"/>
<path d="M80.2647 192.419L78.4463 192.47C78.2845 192.478 78.123 192.448 77.9752 192.382C77.8275 192.315 77.6977 192.215 77.5966 192.088C73.9935 187.566 71.2569 182.42 69.5243 176.907C69.4563 176.687 69.3798 176.458 69.3033 176.229C67.6039 171.423 64.205 165.38 62.4121 159.913C62.1232 159.065 61.8683 158.217 61.6303 157.455C61.5624 157.2 61.4859 156.954 61.4179 156.717L63.3383 155.268C63.3383 155.268 69.1079 164.591 70.8923 173.356C72.4473 180.942 78.6588 190.113 80.2647 192.419Z" fill="url(#paint13_linear)"/>
<path d="M63.5422 174.144C63.5422 178.179 63.3808 187.172 62.888 191.563C62.8689 191.758 62.7773 191.94 62.6311 192.072C62.4849 192.203 62.2947 192.276 62.0977 192.275H59.4466C59.3262 192.272 59.2104 192.228 59.1179 192.151C59.0254 192.074 58.9616 191.969 58.9367 191.851C57.5857 184.977 56.617 179.272 55.9117 174.339C55.3169 170.203 54.7901 166.711 54.3822 163.617C53.9744 160.523 53.6855 157.98 53.5835 155.81V153.869L64.8593 152.776C64.6809 160.209 63.5252 171.669 63.5422 174.144Z" fill="#473F47"/>
<path d="M60.7721 192.275H59.54C59.3943 192.272 59.2536 192.221 59.141 192.128C59.0284 192.036 58.9504 191.908 58.9197 191.766C57.5772 184.926 56.617 179.247 55.9117 174.339C55.3169 170.203 54.7901 166.711 54.3822 163.617C53.9744 160.523 53.6855 157.98 53.5835 155.81L57.7216 158.243C57.7216 158.243 55.0875 159.167 56.0902 166.202C57.0928 173.237 59.3276 191.275 60.7721 192.275Z" fill="url(#paint14_linear)"/>
<path d="M61.265 155.734C61.265 155.734 60.4747 158.599 57.7216 158.234C55.4392 157.8 53.209 157.127 51.0683 156.225C51.0683 156.225 52.2409 152.521 53.7024 147.656C55.4699 141.774 57.6621 134.187 58.6903 129.398C58.9363 128.321 59.1235 127.232 59.2511 126.135L61.5284 121.719C61.5284 121.719 64.9273 129.347 65.1142 131.246C65.3011 133.145 61.265 155.734 61.265 155.734Z" fill="#4FC3F7"/>
<path d="M61.146 135.272C61.0186 138.375 60.2963 144.41 53.7534 147.631H53.7025C55.4699 141.748 57.6622 134.162 58.6903 129.373C59.9224 131.187 61.214 133.56 61.146 135.272Z" fill="url(#paint15_linear)"/>
<path d="M61.5284 121.719C61.5284 121.719 55.9542 122.117 54.6116 125.109C53.269 128.101 53.3285 132.034 53.456 135.221C53.5325 137.154 53.5834 139.163 54.4926 140.917C55.7165 142.951 57.2179 144.806 58.9537 146.427C59.2116 146.743 59.5487 146.986 59.9309 147.13C60.3593 147.214 60.8032 147.157 61.197 146.969C62.1119 146.606 62.9399 146.054 63.6272 145.35C63.3468 145.105 63.2363 144.503 63.0239 144.138C62.7073 143.623 62.4235 143.088 62.1741 142.536C61.6636 141.426 61.0964 140.342 60.4747 139.29C59.8364 138.442 59.2681 137.543 58.7752 136.603C58.5601 136.121 58.4539 135.598 58.4641 135.071C58.4744 134.543 58.6009 134.025 58.8347 133.552C59.1979 132.368 59.4818 131.162 59.6845 129.941C60.2963 127.203 60.9081 124.457 61.5284 121.719Z" fill="#4FC3F7"/>
<path fill-rule="evenodd" clip-rule="evenodd" d="M91.855 186.096C90.6823 185.57 89.7307 186.24 89.7307 187.596C89.7597 188.296 89.9709 188.977 90.3433 189.572C90.7157 190.166 91.2366 190.654 91.855 190.987C93.0276 191.512 93.9708 190.842 93.9708 189.486C93.9434 188.787 93.7339 188.106 93.3629 187.512C92.9919 186.917 92.4723 186.429 91.855 186.096Z" fill="#4FC3F7"/>
<path fill-rule="evenodd" clip-rule="evenodd" d="M91.1752 185.909C90.7302 185.885 90.2849 185.951 89.8666 186.104C89.6032 186.223 91.3621 187.223 91.1752 185.909ZM91.838 191.275C92.2796 191.302 92.7221 191.239 93.138 191.088C93.4015 190.97 91.6255 189.969 91.838 191.275Z" fill="#4FC3F7"/>
<path fill-rule="evenodd" clip-rule="evenodd" d="M91.0817 186.189C89.9091 185.663 88.9659 186.333 88.9659 187.689C88.9916 188.389 89.2004 189.071 89.5716 189.665C89.9427 190.26 90.4633 190.748 91.0817 191.08C92.2543 191.614 93.206 190.944 93.206 189.588C93.1767 188.887 92.9656 188.205 92.5933 187.609C92.221 187.013 91.7001 186.524 91.0817 186.189Z" fill="#4FC3F7"/>
<path fill-rule="evenodd" clip-rule="evenodd" d="M91.0817 187.927C90.7418 187.766 90.4614 187.969 90.4614 188.367C90.4679 188.574 90.5287 188.775 90.6375 188.95C90.7464 189.126 90.8996 189.27 91.0817 189.368C91.4301 189.52 91.7105 189.325 91.7105 188.927C91.7032 188.72 91.6412 188.518 91.5308 188.342C91.4204 188.167 91.2655 188.023 91.0817 187.927ZM77.7156 180.654L99.4685 195.801L99.1881 196.386L77.4352 181.23L77.7156 180.654Z" fill="#4FC3F7"/>
<path fill-rule="evenodd" clip-rule="evenodd" d="M80.4687 179.832L102.222 194.979L101.95 195.564L80.1883 180.408L80.4687 179.832ZM83.4767 177.814L105.23 192.961L104.949 193.529L83.1963 178.391L83.4767 177.814ZM86.5782 177.052L108.331 192.199L108.051 192.783L86.2978 177.628L86.5782 177.052ZM104.958 195.225C103.785 194.699 102.842 195.369 102.842 196.725C102.869 197.425 103.079 198.105 103.45 198.7C103.821 199.294 104.34 199.782 104.958 200.115C106.13 200.641 107.082 199.971 107.082 198.615C107.053 197.915 106.842 197.234 106.469 196.64C106.097 196.045 105.576 195.558 104.958 195.225Z" fill="#4FC3F7"/>
<path fill-rule="evenodd" clip-rule="evenodd" d="M104.303 195.038C103.858 195.014 103.413 195.08 102.995 195.233C102.731 195.352 104.507 196.352 104.303 195.038ZM104.958 200.404C105.402 200.431 105.847 200.368 106.266 200.217C106.538 200.098 104.762 199.098 104.958 200.404Z" fill="#4FC3F7"/>
<path fill-rule="evenodd" clip-rule="evenodd" d="M104.21 195.318C103.046 194.792 102.094 195.462 102.094 196.818C102.12 197.518 102.329 198.199 102.7 198.794C103.071 199.389 103.592 199.877 104.21 200.209C105.383 200.743 106.334 200.073 106.334 198.717C106.305 198.015 106.094 197.334 105.722 196.738C105.349 196.142 104.828 195.653 104.21 195.318Z" fill="#4FC3F7"/>
<path fill-rule="evenodd" clip-rule="evenodd" d="M104.21 197.055C103.87 196.894 103.59 197.098 103.59 197.496C103.596 197.703 103.657 197.904 103.766 198.079C103.875 198.255 104.028 198.399 104.21 198.496C104.558 198.649 104.839 198.496 104.839 198.056C104.831 197.849 104.769 197.647 104.659 197.471C104.549 197.296 104.394 197.152 104.21 197.055Z" fill="#4FC3F7"/>
<path fill-rule="evenodd" clip-rule="evenodd" d="M104.711 194.292C104.706 194.153 104.654 194.019 104.563 193.913C104.472 193.806 104.347 193.734 104.21 193.707C104.157 193.696 104.103 193.695 104.051 193.705C103.998 193.715 103.948 193.735 103.903 193.764C103.858 193.793 103.819 193.831 103.788 193.875C103.758 193.919 103.737 193.969 103.726 194.021C103.721 194.055 103.721 194.089 103.726 194.123V197.683C103.73 197.821 103.781 197.954 103.871 198.06C103.96 198.166 104.082 198.239 104.218 198.268C104.269 198.282 104.321 198.286 104.373 198.279C104.425 198.272 104.475 198.256 104.52 198.23C104.565 198.204 104.604 198.169 104.636 198.127C104.667 198.086 104.69 198.038 104.703 197.988C104.711 197.946 104.711 197.903 104.703 197.861L104.711 194.292ZM91.583 185.172C91.5768 185.032 91.5243 184.897 91.4336 184.79C91.3429 184.683 91.2192 184.608 91.0817 184.578C91.0281 184.567 90.9729 184.567 90.9191 184.577C90.8653 184.587 90.8141 184.608 90.7683 184.638C90.7226 184.668 90.6831 184.706 90.6523 184.751C90.6216 184.796 90.6 184.847 90.5888 184.901C90.5846 184.932 90.5846 184.963 90.5888 184.994V188.554C90.5939 188.693 90.6463 188.827 90.7373 188.933C90.8283 189.04 90.9527 189.112 91.0902 189.139C91.1404 189.153 91.1929 189.157 91.2447 189.15C91.2964 189.144 91.3463 189.127 91.3915 189.101C91.4366 189.075 91.476 189.04 91.5075 188.998C91.5389 188.957 91.5617 188.909 91.5745 188.859C91.5828 188.817 91.5828 188.774 91.5745 188.732L91.583 185.172ZM92.2628 159.116L92.9596 179.213C92.9603 179.292 92.9888 179.368 93.04 179.429C93.0912 179.489 93.1619 179.53 93.24 179.544C93.2712 179.546 93.3026 179.542 93.3324 179.532C93.3622 179.522 93.3897 179.507 93.4134 179.486C93.437 179.466 93.4564 179.441 93.4704 179.413C93.4844 179.385 93.4927 179.354 93.4949 179.323V179.281L92.8066 159.184C92.8028 159.106 92.7733 159.031 92.7226 158.971C92.6719 158.911 92.6029 158.87 92.5262 158.853C92.4949 158.85 92.4633 158.852 92.4331 158.861C92.4028 158.87 92.3746 158.885 92.3501 158.904C92.3256 158.924 92.3053 158.948 92.2903 158.976C92.2753 159.003 92.266 159.034 92.2628 159.065V159.116ZM109.699 171.406L106.3 188.613C106.287 188.691 106.3 188.772 106.339 188.841C106.378 188.911 106.439 188.965 106.513 188.995C106.54 189.007 106.57 189.013 106.601 189.013C106.631 189.014 106.661 189.008 106.689 188.996C106.717 188.984 106.742 188.966 106.763 188.944C106.784 188.922 106.8 188.896 106.81 188.867C106.814 188.851 106.814 188.833 106.81 188.817L110.209 171.618C110.229 171.544 110.224 171.464 110.193 171.394C110.162 171.323 110.108 171.264 110.039 171.228C109.984 171.205 109.921 171.203 109.864 171.223C109.807 171.244 109.761 171.285 109.733 171.339C109.729 171.358 109.729 171.378 109.733 171.398L109.699 171.406ZM97.0467 162.481L95.7891 181.256C95.7843 181.335 95.807 181.414 95.8534 181.479C95.8998 181.544 95.9671 181.591 96.0441 181.612C96.1048 181.625 96.1682 181.613 96.2206 181.58C96.273 181.546 96.3103 181.494 96.3245 181.434L97.5821 162.65C97.5869 162.571 97.5642 162.492 97.5178 162.427C97.4714 162.363 97.4041 162.316 97.3271 162.294C97.2664 162.282 97.203 162.293 97.1506 162.327C97.0982 162.36 97.0609 162.412 97.0467 162.472C97.0466 162.475 97.0466 162.478 97.0467 162.481ZM105.153 168.194L102.069 185.638C102.059 185.716 102.076 185.794 102.116 185.862C102.156 185.929 102.217 185.982 102.29 186.011C102.343 186.035 102.403 186.038 102.458 186.019C102.514 186 102.56 185.961 102.587 185.909C102.591 185.884 102.591 185.858 102.587 185.833L105.663 168.406C105.675 168.328 105.661 168.248 105.622 168.179C105.584 168.11 105.523 168.055 105.45 168.024C105.423 168.012 105.393 168.006 105.362 168.006C105.332 168.005 105.302 168.011 105.274 168.023C105.246 168.035 105.221 168.053 105.2 168.075C105.179 168.097 105.163 168.123 105.153 168.152C105.149 168.171 105.149 168.191 105.153 168.211V168.194ZM98.9331 183.451C98.9253 183.53 98.9446 183.609 98.9879 183.675C99.0311 183.741 99.0957 183.791 99.171 183.816C99.2252 183.835 99.2848 183.833 99.3371 183.809C99.3895 183.785 99.4305 183.742 99.4515 183.688C99.4554 183.663 99.4554 183.637 99.4515 183.612L101.729 165.617C101.733 165.553 101.719 165.489 101.689 165.432C101.659 165.375 101.614 165.328 101.559 165.295C101.531 165.284 101.501 165.279 101.471 165.28C101.442 165.282 101.412 165.289 101.385 165.301C101.358 165.314 101.334 165.332 101.314 165.354C101.294 165.376 101.279 165.402 101.27 165.431C101.266 165.453 101.266 165.476 101.27 165.498L98.9331 183.451Z" fill="#4FC3F7"/>
<path fill-rule="evenodd" clip-rule="evenodd" d="M88.3626 156.819L115.375 175.992L110.277 190.664L89.6627 176.077L88.3626 156.819ZM88.9489 176.84L110.328 192.021C110.375 192.061 110.429 192.092 110.488 192.111C110.546 192.13 110.608 192.138 110.67 192.133C110.732 192.129 110.792 192.112 110.847 192.084C110.902 192.056 110.951 192.017 110.991 191.97L111.05 191.877L116.556 176.085C116.598 175.947 116.594 175.799 116.547 175.662C116.5 175.525 116.411 175.406 116.293 175.322L87.9632 155.268C87.9165 155.227 87.8622 155.197 87.8035 155.177C87.7448 155.158 87.6828 155.15 87.6212 155.155C87.5596 155.16 87.4995 155.177 87.4444 155.205C87.3894 155.233 87.3404 155.271 87.3005 155.319L87.241 155.412C87.2001 155.505 87.1798 155.606 87.1815 155.708L88.6345 176.314C88.638 176.425 88.6684 176.533 88.7232 176.629C88.778 176.725 88.8555 176.806 88.9489 176.865V176.84Z" fill="#4FC3F7"/>
<path fill-rule="evenodd" clip-rule="evenodd" d="M93.6309 179.611L77.928 185.282L77.6476 184.604L93.359 178.933L93.6309 179.611ZM96.4689 181.714L80.7576 187.376L80.4857 186.715L96.197 181.044L96.4689 181.714ZM99.4345 183.672L83.7316 189.342L83.4512 188.673L99.1626 183.01L99.4345 183.672ZM103.097 186.265L87.3854 191.927L87.1135 191.249L102.825 185.596L103.097 186.265ZM106.87 189.105L91.1582 194.775L90.8863 194.106L106.598 188.435L106.87 189.105ZM74.4951 181.4L69.3543 163.54L87.275 156.598L88.6005 175.924L74.4951 181.4ZM89.7052 176.407L88.2861 155.793C88.2781 155.637 88.2162 155.488 88.1108 155.373C88.0056 155.257 87.8633 155.181 87.7083 155.158C87.6324 155.154 87.5568 155.169 87.4874 155.2L68.4536 162.574C68.3344 162.631 68.2407 162.731 68.1905 162.853C68.1402 162.975 68.1371 163.111 68.1817 163.235L73.6624 182.248C73.6951 182.399 73.7825 182.532 73.908 182.623C74.0334 182.714 74.1881 182.755 74.3422 182.739H74.4357L89.4163 176.933C89.5158 176.889 89.598 176.814 89.6503 176.719C89.7025 176.624 89.7218 176.515 89.7052 176.407Z" fill="#4FC3F7"/>
<path fill-rule="evenodd" clip-rule="evenodd" d="M84.0885 157.056L86.0938 177.442C86.0992 177.52 86.1318 177.594 86.186 177.652C86.2403 177.709 86.3129 177.745 86.3912 177.755C86.424 177.755 86.4564 177.749 86.4864 177.736C86.5164 177.723 86.5434 177.704 86.5658 177.68C86.5881 177.656 86.6053 177.628 86.6162 177.597C86.6271 177.566 86.6315 177.533 86.6292 177.501L84.6323 157.116C84.6254 157.037 84.5923 156.964 84.5383 156.907C84.4844 156.85 84.4127 156.813 84.3349 156.802C84.2696 156.802 84.2069 156.828 84.1607 156.874C84.1145 156.92 84.0885 156.983 84.0885 157.048V157.056ZM80.2223 158.565L83.1963 178.586C83.2062 178.663 83.2432 178.734 83.3007 178.787C83.3583 178.84 83.4326 178.871 83.5107 178.874C83.5431 178.872 83.5747 178.863 83.6038 178.849C83.6329 178.835 83.6588 178.815 83.6801 178.79C83.7014 178.766 83.7177 178.737 83.728 178.707C83.7383 178.676 83.7424 178.644 83.7401 178.611V178.569L80.7661 158.556C80.7564 158.481 80.7206 158.41 80.6649 158.358C80.6091 158.305 80.5367 158.274 80.4602 158.268C80.3956 158.273 80.335 158.301 80.2908 158.348C80.2466 158.396 80.2221 158.458 80.2223 158.523V158.565ZM73.4245 161.218L77.0528 180.976C77.061 181.054 77.0975 181.126 77.1554 181.179C77.2133 181.232 77.2886 181.263 77.3672 181.264C77.4008 181.26 77.4332 181.249 77.4626 181.233C77.492 181.216 77.5177 181.193 77.5382 181.166C77.5588 181.14 77.5738 181.109 77.5824 181.076C77.5909 181.044 77.5929 181.01 77.5881 180.976L73.9598 161.218C73.9478 161.141 73.9087 161.07 73.8496 161.019C73.7905 160.968 73.7152 160.939 73.6369 160.938C73.6056 160.941 73.5752 160.951 73.5475 160.966C73.5199 160.981 73.4955 161.001 73.4757 161.025C73.4559 161.05 73.4412 161.078 73.4324 161.108C73.4236 161.138 73.4209 161.17 73.4245 161.201C73.424 161.207 73.424 161.212 73.4245 161.218ZM77.0273 159.591C77.1054 159.594 77.1797 159.625 77.2372 159.677C77.2948 159.73 77.3317 159.801 77.3417 159.879L80.6556 179.764C80.6645 179.795 80.6668 179.828 80.6626 179.86C80.6583 179.892 80.6474 179.923 80.6307 179.951C80.614 179.979 80.5918 180.003 80.5653 180.022C80.5389 180.04 80.5089 180.054 80.4772 180.061C80.3991 180.057 80.3248 180.027 80.2672 179.974C80.2097 179.921 80.1727 179.85 80.1628 179.772L76.8489 159.896C76.8398 159.865 76.837 159.832 76.8406 159.8C76.8443 159.767 76.8543 159.736 76.8701 159.708C76.8859 159.679 76.9072 159.654 76.9327 159.634C76.9582 159.614 76.9875 159.599 77.0188 159.591H77.0273ZM89.1953 184.036C89.209 184.173 89.2683 184.302 89.3637 184.402C89.4592 184.502 89.5853 184.567 89.7221 184.587C89.7741 184.597 89.8274 184.596 89.8791 184.585C89.9308 184.574 89.9798 184.553 90.0232 184.523C90.0667 184.493 90.1038 184.455 90.1323 184.411C90.1609 184.366 90.1803 184.317 90.1895 184.265C90.1937 184.225 90.1937 184.186 90.1895 184.146L87.7338 148.546C87.7215 148.406 87.6618 148.274 87.5645 148.173C87.4672 148.071 87.3381 148.005 87.1985 147.987C87.1466 147.978 87.0935 147.98 87.0423 147.992C86.9911 148.004 86.9428 148.026 86.9002 148.057C86.8576 148.088 86.8214 148.126 86.7939 148.171C86.7663 148.216 86.7479 148.265 86.7396 148.317C86.7311 148.356 86.7311 148.397 86.7396 148.436L89.1953 184.036Z" fill="#4FC3F7"/>
<path fill-rule="evenodd" clip-rule="evenodd" d="M87.6743 149.317C87.7685 149.274 87.8532 149.213 87.9236 149.138C87.9939 149.062 88.0484 148.973 88.084 148.876C88.1196 148.779 88.1355 148.676 88.1308 148.573C88.1261 148.469 88.1009 148.368 88.0567 148.275C88.0431 148.239 88.0261 148.205 88.0057 148.173C87.9049 147.952 87.7269 147.775 87.5049 147.675C87.2828 147.575 87.032 147.559 86.7991 147.631L66.2953 155.573C66.1078 155.658 65.9612 155.813 65.8866 156.005C65.812 156.196 65.8153 156.409 65.8959 156.598C65.9106 156.638 65.9306 156.675 65.9554 156.709C66.0589 156.928 66.2368 157.103 66.4577 157.204C66.6785 157.305 66.9281 157.325 67.162 157.26L87.6743 149.317Z" fill="#4FC3F7"/>
<path d="M81.2334 147.775C81.2334 147.775 83.7826 148.563 84.2584 149.47C84.7343 150.377 84.9552 152.403 84.5898 152.454C84.2245 152.504 83.2473 150.479 82.8904 150.394C82.5335 150.309 82.0407 149.945 82.1171 150.267C82.1936 150.589 82.61 151.114 82.474 151.258C82.3381 151.402 81.6753 150.546 81.3099 150.411C80.9445 150.275 80.5112 148.851 80.1033 148.512C79.6954 148.173 81.2334 147.775 81.2334 147.775ZM63.6272 144.791L67.6634 151.86L66.3633 152.733L60.8741 146.859L63.6272 144.791Z" fill="#4FC3F7"/>
<path d="M67.2725 151.733C67.4832 151.786 67.6881 151.86 67.8843 151.953C68.3126 152.074 68.7196 152.26 69.0909 152.504C69.7317 153.054 70.2449 153.737 70.5949 154.505C70.7047 154.69 70.7716 154.897 70.7907 155.111C70.8098 155.325 70.7807 155.541 70.7054 155.742C70.5196 155.999 70.2627 156.197 69.9661 156.31C69.8875 156.353 69.8006 156.379 69.7112 156.386C69.5739 156.366 69.4462 156.304 69.3458 156.208L67.4679 154.64C67.1894 154.439 66.9527 154.186 66.7712 153.894C66.6097 153.606 66.5587 153.267 66.4143 152.971C66.2698 152.674 65.9809 152.504 66.1933 152.216C66.4058 151.928 66.9581 151.826 67.2725 151.733Z" fill="#4FC3F7"/>
<path fill-rule="evenodd" clip-rule="evenodd" d="M75.5063 188.859C75.5402 188.994 75.6213 189.113 75.735 189.194C75.8487 189.274 75.9875 189.312 76.1266 189.3C76.2335 189.287 76.331 189.233 76.3978 189.148C76.4647 189.064 76.4955 188.957 76.4835 188.851V188.749L67.23 156.353C67.1932 156.219 67.1114 156.103 66.9984 156.022C66.8854 155.942 66.7482 155.903 66.6097 155.912C66.5015 155.929 66.4039 155.987 66.3374 156.073C66.2709 156.16 66.2406 156.269 66.2529 156.378V156.471L75.5063 188.859ZM78.6163 191.478C77.4437 190.944 76.5005 191.614 76.5005 192.97C76.5279 193.67 76.7374 194.35 77.1084 194.945C77.4793 195.539 77.999 196.027 78.6163 196.36C79.7889 196.886 80.7406 196.216 80.7406 194.86C80.7126 194.161 80.5018 193.481 80.1292 192.887C79.7566 192.294 79.2351 191.808 78.6163 191.478Z" fill="#4FC3F7"/>
<path fill-rule="evenodd" clip-rule="evenodd" d="M77.962 191.283C77.5171 191.259 77.0718 191.325 76.6534 191.478C76.39 191.571 78.1659 192.597 77.962 191.283ZM78.6163 196.657C79.0608 196.689 79.507 196.625 79.9249 196.471C80.1968 196.344 78.4208 195.343 78.6163 196.657Z" fill="#4FC3F7"/>
<path fill-rule="evenodd" clip-rule="evenodd" d="M77.8686 191.571C76.7044 191.046 75.7527 191.715 75.7527 193.072C75.7785 193.772 75.9873 194.453 76.3584 195.048C76.7296 195.642 77.2502 196.13 77.8686 196.462C79.0412 196.996 79.9929 196.327 79.9929 194.97C79.9636 194.269 79.7525 193.587 79.3801 192.991C79.0078 192.396 78.487 191.906 77.8686 191.571Z" fill="#4FC3F7"/>
<path fill-rule="evenodd" clip-rule="evenodd" d="M77.8685 193.267C77.5286 193.106 77.2482 193.309 77.2482 193.707C77.2547 193.914 77.3155 194.115 77.4243 194.29C77.5332 194.466 77.6864 194.61 77.8685 194.708C78.2169 194.869 78.4973 194.708 78.4973 194.267C78.49 194.06 78.428 193.858 78.3176 193.682C78.2072 193.507 78.0523 193.363 77.8685 193.267ZM91.77 200.599C90.6059 200.073 89.6542 200.743 89.6542 202.099C89.6816 202.799 89.8911 203.479 90.262 204.074C90.633 204.668 91.1527 205.156 91.77 205.489C92.9426 206.015 93.8943 205.345 93.8943 203.989C93.8652 203.289 93.6541 202.608 93.2817 202.014C92.9092 201.419 92.3883 200.932 91.77 200.599Z" fill="#4FC3F7"/>
<path fill-rule="evenodd" clip-rule="evenodd" d="M91.0902 200.412C90.6452 200.388 90.1999 200.454 89.7816 200.607C89.5267 200.726 91.2941 201.743 91.0902 200.412ZM91.753 205.778C92.1973 205.805 92.6427 205.742 93.0615 205.591C93.325 205.472 91.549 204.472 91.753 205.778Z" fill="#4FC3F7"/>
<path fill-rule="evenodd" clip-rule="evenodd" d="M91.0052 200.692C89.8326 200.166 88.8809 200.836 88.8809 202.192C88.9075 202.893 89.1176 203.575 89.4903 204.17C89.8629 204.765 90.3852 205.252 91.0052 205.583C92.1778 206.117 93.121 205.447 93.121 204.091C93.0951 203.39 92.8863 202.707 92.5152 202.111C92.1442 201.515 91.6237 201.026 91.0052 200.692Z" fill="#4FC3F7"/>
<path fill-rule="evenodd" clip-rule="evenodd" d="M91.5066 199.675C91.5004 199.534 91.4479 199.4 91.3572 199.293C91.2665 199.185 91.1427 199.111 91.0052 199.081C90.9528 199.069 90.8983 199.067 90.8451 199.075C90.7918 199.084 90.7408 199.103 90.6949 199.131C90.6491 199.16 90.6094 199.197 90.578 199.241C90.5467 199.284 90.5244 199.334 90.5124 199.386C90.5082 199.423 90.5082 199.46 90.5124 199.497V203.057C90.5185 203.197 90.5711 203.331 90.6618 203.438C90.7525 203.546 90.8762 203.62 91.0137 203.65C91.0673 203.661 91.1225 203.662 91.1763 203.652C91.2301 203.641 91.2813 203.621 91.3271 203.591C91.3728 203.561 91.4123 203.522 91.4431 203.477C91.4739 203.432 91.4954 203.381 91.5066 203.328C91.5108 203.297 91.5108 203.266 91.5066 203.235V199.675Z" fill="#4FC3F7"/>
<path fill-rule="evenodd" clip-rule="evenodd" d="M107.549 197.352L89.4502 184.485L77.2567 189.122L95.3048 202.116L107.549 197.352ZM95.0499 203.057L75.9906 189.342C75.8755 189.269 75.7918 189.155 75.7557 189.024C75.7196 188.892 75.7337 188.752 75.7952 188.63C75.8379 188.557 75.9037 188.501 75.9821 188.469L89.2038 183.443C89.2873 183.417 89.3759 183.412 89.4619 183.428C89.5478 183.444 89.6284 183.481 89.6966 183.536L108.815 197.098C108.931 197.171 109.014 197.285 109.05 197.416C109.086 197.548 109.072 197.688 109.011 197.81C108.967 197.89 108.894 197.95 108.807 197.979L95.5512 203.133C95.4679 203.163 95.3784 203.171 95.2909 203.158C95.2034 203.144 95.1206 203.11 95.0499 203.057Z" fill="#4FC3F7"/>
<path fill-rule="evenodd" clip-rule="evenodd" d="M78.3699 190.546C78.3663 190.406 78.3146 190.271 78.2233 190.165C78.132 190.058 78.0067 189.986 77.8685 189.961C77.8172 189.948 77.7639 189.946 77.7116 189.954C77.6594 189.962 77.6093 189.981 77.5642 190.008C77.5192 190.036 77.4801 190.072 77.4492 190.115C77.4183 190.158 77.3962 190.206 77.3842 190.258C77.38 190.294 77.38 190.331 77.3842 190.368V193.928C77.3885 194.067 77.4393 194.201 77.5285 194.309C77.6178 194.416 77.7404 194.491 77.877 194.521C77.9295 194.534 77.9839 194.536 78.0372 194.527C78.0905 194.519 78.1415 194.5 78.1873 194.471C78.2332 194.443 78.2729 194.406 78.3042 194.362C78.3356 194.318 78.3579 194.268 78.3699 194.216C78.3741 194.179 78.3741 194.142 78.3699 194.106V190.546ZM93.1975 186.486L92.9256 185.816L79.1346 190.792L79.4065 191.461L93.1975 186.486ZM96.0356 188.596L82.2446 193.572L81.9727 192.902L95.7637 187.927L96.0356 188.596ZM99.0096 190.554L85.2186 195.53L84.9467 194.86L98.7292 189.876L99.0011 190.546L99.0096 190.554ZM102.672 193.097L88.8809 198.073L88.609 197.403L102.409 192.478L102.68 193.148L102.672 193.097ZM92.6537 200.921L92.3818 200.251L106.173 195.276L106.445 195.945L92.6537 200.921Z" fill="#4FC3F7"/>
<path fill-rule="evenodd" clip-rule="evenodd" d="M104.958 195.225C103.785 194.699 102.842 195.369 102.842 196.725C102.869 197.425 103.079 198.105 103.45 198.7C103.821 199.294 104.34 199.782 104.958 200.115C106.13 200.641 107.082 199.971 107.082 198.615C107.053 197.915 106.842 197.234 106.469 196.64C106.097 196.045 105.576 195.558 104.958 195.225Z" fill="url(#paint16_linear)"/>
<path fill-rule="evenodd" clip-rule="evenodd" d="M104.303 195.038C103.858 195.014 103.413 195.08 102.995 195.233C102.731 195.352 104.507 196.352 104.303 195.038Z" fill="url(#paint17_linear)"/>
<path fill-rule="evenodd" clip-rule="evenodd" d="M104.958 200.404C105.402 200.431 105.847 200.368 106.266 200.217C106.538 200.098 104.762 199.098 104.958 200.404Z" fill="url(#paint18_linear)"/>
<path fill-rule="evenodd" clip-rule="evenodd" d="M104.21 195.318C103.046 194.792 102.094 195.462 102.094 196.818C102.12 197.518 102.329 198.199 102.7 198.794C103.071 199.389 103.592 199.877 104.21 200.209C105.383 200.743 106.334 200.073 106.334 198.717C106.305 198.015 106.094 197.334 105.722 196.738C105.349 196.142 104.828 195.653 104.21 195.318Z" fill="#473F47"/>
<path fill-rule="evenodd" clip-rule="evenodd" d="M104.21 197.055C103.87 196.894 103.59 197.098 103.59 197.496C103.596 197.703 103.657 197.904 103.766 198.079C103.875 198.255 104.028 198.399 104.21 198.496C104.558 198.649 104.839 198.496 104.839 198.056C104.831 197.849 104.769 197.647 104.659 197.471C104.549 197.296 104.394 197.152 104.21 197.055Z" fill="url(#paint19_linear)"/>
<path fill-rule="evenodd" clip-rule="evenodd" d="M104.711 194.292C104.706 194.153 104.654 194.019 104.563 193.913C104.472 193.806 104.347 193.734 104.21 193.707C104.157 193.696 104.103 193.695 104.051 193.705C103.998 193.715 103.947 193.735 103.903 193.764C103.858 193.793 103.819 193.831 103.788 193.875C103.758 193.919 103.737 193.969 103.726 194.021C103.721 194.055 103.721 194.089 103.726 194.123V197.683C103.73 197.821 103.781 197.954 103.871 198.06C103.96 198.166 104.082 198.239 104.218 198.268C104.269 198.282 104.321 198.285 104.373 198.279C104.425 198.272 104.475 198.256 104.52 198.23C104.565 198.203 104.604 198.169 104.636 198.127C104.667 198.086 104.69 198.038 104.703 197.988C104.711 197.946 104.711 197.903 104.703 197.861L104.711 194.292Z" fill="url(#paint20_linear)"/>
<path fill-rule="evenodd" clip-rule="evenodd" d="M92.2628 159.116L92.9596 179.213C92.9604 179.292 92.9888 179.368 93.04 179.429C93.0912 179.489 93.162 179.53 93.24 179.544C93.2713 179.546 93.3027 179.542 93.3324 179.532C93.3622 179.522 93.3897 179.507 93.4134 179.486C93.4371 179.466 93.4565 179.441 93.4705 179.413C93.4845 179.385 93.4928 179.354 93.4949 179.323V179.281L92.8066 159.184C92.8028 159.106 92.7733 159.031 92.7226 158.971C92.6719 158.911 92.6029 158.87 92.5262 158.853C92.495 158.85 92.4633 158.852 92.4331 158.861C92.4028 158.87 92.3747 158.885 92.3502 158.904C92.3257 158.924 92.3053 158.948 92.2903 158.976C92.2753 159.003 92.266 159.034 92.2628 159.065V159.116ZM109.699 171.406L106.3 188.613C106.287 188.691 106.3 188.772 106.339 188.841C106.378 188.911 106.439 188.965 106.513 188.995C106.54 189.007 106.57 189.013 106.601 189.013C106.631 189.014 106.661 189.008 106.689 188.996C106.717 188.984 106.742 188.966 106.763 188.944C106.784 188.922 106.8 188.896 106.81 188.867C106.814 188.851 106.814 188.833 106.81 188.817L110.209 171.618C110.229 171.544 110.224 171.464 110.193 171.394C110.162 171.323 110.108 171.264 110.039 171.228C109.984 171.205 109.921 171.203 109.864 171.223C109.807 171.244 109.761 171.285 109.733 171.339C109.729 171.358 109.729 171.378 109.733 171.398L109.699 171.406ZM97.0468 162.481L95.7892 181.256C95.7843 181.335 95.807 181.414 95.8534 181.479C95.8998 181.544 95.9671 181.591 96.0441 181.612C96.1049 181.625 96.1682 181.613 96.2206 181.58C96.273 181.546 96.3103 181.494 96.3245 181.434L97.5821 162.65C97.5869 162.571 97.5642 162.492 97.5178 162.427C97.4714 162.363 97.4041 162.316 97.3272 162.294C97.2664 162.282 97.203 162.293 97.1506 162.327C97.0982 162.36 97.061 162.412 97.0468 162.472C97.0466 162.475 97.0466 162.478 97.0468 162.481ZM105.153 168.194L102.069 185.638C102.059 185.716 102.076 185.794 102.116 185.862C102.156 185.929 102.217 185.982 102.29 186.011C102.343 186.035 102.403 186.038 102.458 186.019C102.514 186 102.56 185.961 102.587 185.909C102.591 185.884 102.591 185.858 102.587 185.833L105.663 168.406C105.675 168.328 105.661 168.248 105.622 168.179C105.584 168.11 105.523 168.055 105.451 168.024C105.423 168.012 105.393 168.006 105.362 168.006C105.332 168.005 105.302 168.011 105.274 168.023C105.246 168.035 105.221 168.053 105.2 168.075C105.179 168.097 105.163 168.123 105.153 168.152C105.149 168.171 105.149 168.191 105.153 168.211V168.194ZM98.9331 183.451C98.9253 183.53 98.9446 183.609 98.9879 183.675C99.0311 183.741 99.0958 183.791 99.1711 183.816C99.2252 183.835 99.2848 183.833 99.3371 183.809C99.3895 183.785 99.4305 183.742 99.4515 183.688C99.4555 183.663 99.4555 183.637 99.4515 183.612L101.729 165.617C101.733 165.553 101.719 165.489 101.689 165.432C101.659 165.375 101.614 165.328 101.559 165.295C101.531 165.284 101.501 165.279 101.471 165.28C101.442 165.282 101.412 165.289 101.385 165.301C101.358 165.314 101.334 165.332 101.314 165.354C101.294 165.376 101.279 165.402 101.27 165.431C101.266 165.453 101.266 165.476 101.27 165.498L98.9331 183.451Z" fill="url(#paint21_linear)"/>
<path fill-rule="evenodd" clip-rule="evenodd" d="M88.3626 156.819L115.375 175.992L110.277 190.664L89.6627 176.077L88.3626 156.819ZM88.9489 176.84L110.328 192.021C110.375 192.061 110.429 192.092 110.488 192.111C110.546 192.13 110.608 192.138 110.67 192.133C110.732 192.129 110.792 192.112 110.847 192.084C110.902 192.056 110.951 192.017 110.991 191.97L111.05 191.877L116.556 176.085C116.597 175.947 116.594 175.799 116.547 175.662C116.5 175.525 116.411 175.406 116.293 175.322L87.9632 155.268C87.9165 155.227 87.8623 155.197 87.8035 155.177C87.7448 155.158 87.6828 155.15 87.6212 155.155C87.5596 155.16 87.4995 155.177 87.4444 155.205C87.3893 155.233 87.3404 155.271 87.3005 155.319L87.241 155.412C87.2001 155.505 87.1798 155.606 87.1815 155.708L88.6345 176.314C88.638 176.425 88.6684 176.533 88.7232 176.629C88.778 176.725 88.8555 176.806 88.9489 176.865V176.84Z" fill="url(#paint22_linear)"/>
<path fill-rule="evenodd" clip-rule="evenodd" d="M74.4951 181.4L69.3543 163.54L87.275 156.598L88.6005 175.924L74.4951 181.4ZM89.7052 176.407L88.2861 155.793C88.2781 155.637 88.2162 155.488 88.1109 155.373C88.0056 155.257 87.8633 155.181 87.7083 155.157C87.6324 155.154 87.5568 155.169 87.4874 155.2L68.4536 162.574C68.3344 162.631 68.2407 162.731 68.1904 162.853C68.1402 162.975 68.1371 163.111 68.1817 163.235L73.6624 182.247C73.6951 182.399 73.7825 182.532 73.908 182.623C74.0334 182.714 74.1881 182.755 74.3422 182.739H74.4357L89.4163 176.933C89.5158 176.889 89.598 176.814 89.6503 176.719C89.7025 176.624 89.7218 176.514 89.7052 176.407Z" fill="url(#paint23_linear)"/>
<path fill-rule="evenodd" clip-rule="evenodd" d="M84.0885 157.056L86.0938 177.442C86.0992 177.52 86.1318 177.594 86.186 177.652C86.2403 177.709 86.3129 177.745 86.3912 177.755C86.424 177.755 86.4564 177.749 86.4864 177.736C86.5164 177.723 86.5435 177.704 86.5658 177.68C86.5881 177.656 86.6053 177.628 86.6162 177.597C86.6271 177.566 86.6315 177.533 86.6292 177.501L84.6323 157.116C84.6255 157.037 84.5923 156.964 84.5384 156.907C84.4844 156.85 84.4127 156.813 84.3349 156.802C84.2696 156.802 84.2069 156.828 84.1607 156.874C84.1145 156.92 84.0885 156.983 84.0885 157.048V157.056ZM80.2223 158.565L83.1963 178.586C83.2062 178.663 83.2432 178.734 83.3008 178.787C83.3583 178.84 83.4326 178.871 83.5107 178.874C83.5431 178.872 83.5747 178.863 83.6038 178.849C83.6329 178.835 83.6588 178.815 83.6801 178.79C83.7015 178.766 83.7177 178.737 83.728 178.707C83.7383 178.676 83.7424 178.644 83.7401 178.611V178.569L80.7661 158.556C80.7564 158.481 80.7206 158.41 80.6649 158.358C80.6091 158.305 80.5367 158.274 80.4602 158.268C80.3956 158.273 80.335 158.301 80.2908 158.348C80.2466 158.396 80.2221 158.458 80.2223 158.523V158.565ZM73.4245 161.218L77.0528 180.976C77.0611 181.054 77.0975 181.126 77.1554 181.179C77.2133 181.232 77.2886 181.263 77.3672 181.264C77.4008 181.26 77.4332 181.249 77.4626 181.233C77.492 181.216 77.5177 181.193 77.5382 181.166C77.5588 181.14 77.5738 181.109 77.5824 181.076C77.5909 181.044 77.5929 181.01 77.5881 180.976L73.9598 161.218C73.9478 161.141 73.9087 161.07 73.8496 161.019C73.7905 160.968 73.7152 160.939 73.6369 160.938C73.6056 160.941 73.5752 160.951 73.5475 160.966C73.5199 160.981 73.4954 161.001 73.4757 161.025C73.4559 161.05 73.4412 161.078 73.4324 161.108C73.4237 161.138 73.4209 161.17 73.4245 161.201C73.424 161.207 73.424 161.212 73.4245 161.218ZM77.0273 159.591C77.1054 159.594 77.1797 159.625 77.2372 159.677C77.2948 159.73 77.3318 159.801 77.3417 159.879L80.6556 179.764C80.6645 179.795 80.6668 179.828 80.6626 179.86C80.6583 179.892 80.6474 179.923 80.6307 179.951C80.614 179.979 80.5918 180.003 80.5654 180.022C80.5389 180.041 80.5089 180.054 80.4772 180.061C80.3991 180.057 80.3248 180.027 80.2672 179.974C80.2097 179.921 80.1727 179.85 80.1628 179.772L76.8489 159.896C76.8398 159.865 76.837 159.832 76.8406 159.8C76.8443 159.767 76.8543 159.736 76.8701 159.708C76.8859 159.679 76.9072 159.654 76.9327 159.634C76.9582 159.614 76.9875 159.599 77.0188 159.591H77.0273Z" fill="url(#paint24_linear)"/>
<path fill-rule="evenodd" clip-rule="evenodd" d="M89.1954 184.036C89.209 184.173 89.2683 184.302 89.3638 184.402C89.4592 184.502 89.5854 184.567 89.7222 184.587C89.7741 184.597 89.8274 184.596 89.8791 184.585C89.9308 184.574 89.9798 184.553 90.0233 184.523C90.0667 184.493 90.1038 184.455 90.1324 184.411C90.1609 184.366 90.1803 184.317 90.1895 184.265C90.1937 184.225 90.1937 184.186 90.1895 184.146L87.7338 148.546C87.7216 148.406 87.6619 148.274 87.5646 148.173C87.4673 148.071 87.3382 148.005 87.1985 147.987C87.1466 147.978 87.0935 147.98 87.0424 147.992C86.9912 148.004 86.9429 148.026 86.9002 148.057C86.8576 148.087 86.8215 148.126 86.7939 148.171C86.7664 148.216 86.7479 148.265 86.7397 148.317C86.7311 148.356 86.7311 148.397 86.7397 148.436L89.1954 184.036Z" fill="url(#paint25_linear)"/>
<path fill-rule="evenodd" clip-rule="evenodd" d="M87.6743 149.317C87.7685 149.274 87.8532 149.213 87.9236 149.138C87.9939 149.062 88.0484 148.973 88.084 148.876C88.1196 148.779 88.1355 148.676 88.1308 148.573C88.1261 148.469 88.1009 148.368 88.0567 148.275C88.0431 148.239 88.0261 148.205 88.0057 148.173C87.9049 147.952 87.7269 147.775 87.5049 147.675C87.2828 147.575 87.032 147.559 86.7991 147.631L66.2953 155.573C66.1078 155.658 65.9612 155.813 65.8866 156.005C65.812 156.196 65.8153 156.409 65.8959 156.598C65.9106 156.638 65.9306 156.675 65.9554 156.709C66.0589 156.928 66.2368 157.103 66.4577 157.204C66.6785 157.305 66.9281 157.325 67.162 157.26L87.6743 149.317Z" fill="#4FC3F7"/>
<path d="M81.2334 147.775C81.2334 147.775 83.7826 148.563 84.2584 149.47C84.7343 150.377 84.9552 152.403 84.5898 152.454C84.2245 152.504 83.2473 150.479 82.8904 150.394C82.5335 150.309 82.0407 149.945 82.1171 150.267C82.1936 150.589 82.61 151.114 82.474 151.258C82.3381 151.402 81.6753 150.546 81.3099 150.411C80.9445 150.275 80.5112 148.851 80.1033 148.512C79.6954 148.173 81.2334 147.775 81.2334 147.775ZM63.6272 144.791L67.6634 151.86L66.3633 152.733L60.8741 146.859L63.6272 144.791Z" fill="#FFB27D"/>
<path d="M67.2725 151.733C67.4832 151.786 67.6881 151.86 67.8843 151.953C68.3126 152.074 68.7196 152.26 69.0909 152.504C69.7317 153.054 70.2449 153.737 70.5949 154.505C70.7047 154.69 70.7716 154.897 70.7907 155.111C70.8098 155.325 70.7807 155.541 70.7054 155.742C70.5196 155.999 70.2627 156.197 69.9661 156.31C69.8875 156.353 69.8006 156.379 69.7112 156.386C69.5739 156.366 69.4462 156.304 69.3458 156.208L67.4679 154.64C67.1894 154.439 66.9527 154.186 66.7712 153.894C66.6097 153.606 66.5587 153.267 66.4143 152.971C66.2698 152.674 65.9809 152.504 66.1933 152.216C66.4058 151.928 66.9581 151.826 67.2725 151.733Z" fill="#FFB27D"/>
<path fill-rule="evenodd" clip-rule="evenodd" d="M75.5063 188.859C75.5402 188.994 75.6213 189.113 75.735 189.193C75.8487 189.274 75.9875 189.312 76.1266 189.3C76.2335 189.287 76.331 189.233 76.3978 189.148C76.4647 189.064 76.4955 188.957 76.4835 188.85V188.749L67.23 156.353C67.1932 156.219 67.1114 156.103 66.9984 156.022C66.8854 155.942 66.7482 155.903 66.6097 155.912C66.5015 155.929 66.4039 155.987 66.3374 156.073C66.2709 156.16 66.2406 156.269 66.2529 156.378V156.471L75.5063 188.859Z" fill="url(#paint26_linear)"/>
<path fill-rule="evenodd" clip-rule="evenodd" d="M78.6163 191.478C77.4437 190.944 76.5005 191.614 76.5005 192.97C76.5279 193.67 76.7374 194.35 77.1083 194.945C77.4793 195.539 77.999 196.027 78.6163 196.36C79.7889 196.886 80.7406 196.216 80.7406 194.86C80.7126 194.161 80.5018 193.481 80.1292 192.887C79.7566 192.294 79.2351 191.808 78.6163 191.478Z" fill="url(#paint27_linear)"/>
<path fill-rule="evenodd" clip-rule="evenodd" d="M77.962 191.283C77.5171 191.259 77.0718 191.325 76.6534 191.478C76.39 191.571 78.1659 192.597 77.962 191.283Z" fill="url(#paint28_linear)"/>
<path fill-rule="evenodd" clip-rule="evenodd" d="M78.6163 196.657C79.0609 196.689 79.5071 196.625 79.9249 196.471C80.1968 196.343 78.4209 195.343 78.6163 196.657Z" fill="url(#paint29_linear)"/>
<path fill-rule="evenodd" clip-rule="evenodd" d="M77.8686 191.571C76.7044 191.046 75.7527 191.715 75.7527 193.072C75.7785 193.772 75.9873 194.453 76.3584 195.048C76.7296 195.642 77.2502 196.13 77.8686 196.462C79.0412 196.996 79.9929 196.327 79.9929 194.97C79.9636 194.269 79.7525 193.587 79.3801 192.991C79.0078 192.396 78.487 191.906 77.8686 191.571Z" fill="#473F47"/>
<path fill-rule="evenodd" clip-rule="evenodd" d="M77.8685 193.267C77.5286 193.106 77.2482 193.309 77.2482 193.707C77.2547 193.914 77.3155 194.115 77.4243 194.29C77.5332 194.466 77.6864 194.61 77.8685 194.708C78.2169 194.869 78.4973 194.708 78.4973 194.267C78.49 194.06 78.428 193.858 78.3176 193.682C78.2072 193.507 78.0523 193.363 77.8685 193.267Z" fill="url(#paint30_linear)"/>
<path fill-rule="evenodd" clip-rule="evenodd" d="M91.77 200.599C90.6059 200.073 89.6542 200.743 89.6542 202.099C89.6816 202.799 89.8911 203.479 90.262 204.074C90.633 204.668 91.1527 205.156 91.77 205.489C92.9426 206.015 93.8943 205.345 93.8943 203.989C93.8652 203.289 93.6541 202.608 93.2817 202.014C92.9092 201.419 92.3883 200.932 91.77 200.599Z" fill="url(#paint31_linear)"/>
<path fill-rule="evenodd" clip-rule="evenodd" d="M91.0902 200.412C90.6452 200.388 90.1999 200.454 89.7816 200.607C89.5267 200.726 91.2941 201.743 91.0902 200.412Z" fill="url(#paint32_linear)"/>
<path fill-rule="evenodd" clip-rule="evenodd" d="M91.753 205.778C92.1974 205.805 92.6427 205.742 93.0616 205.591C93.325 205.472 91.5491 204.472 91.753 205.778Z" fill="url(#paint33_linear)"/>
<path fill-rule="evenodd" clip-rule="evenodd" d="M91.0052 200.692C89.8326 200.166 88.8809 200.836 88.8809 202.192C88.9075 202.893 89.1176 203.575 89.4903 204.17C89.8629 204.765 90.3852 205.252 91.0052 205.583C92.1778 206.117 93.121 205.447 93.121 204.091C93.0951 203.39 92.8863 202.707 92.5152 202.111C92.1442 201.515 91.6237 201.026 91.0052 200.692Z" fill="#473F47"/>
<path fill-rule="evenodd" clip-rule="evenodd" d="M91.5066 199.675C91.5004 199.534 91.4479 199.4 91.3572 199.293C91.2665 199.185 91.1428 199.111 91.0053 199.081C90.9528 199.069 90.8984 199.067 90.8451 199.075C90.7918 199.084 90.7408 199.103 90.695 199.131C90.6491 199.16 90.6094 199.197 90.5781 199.241C90.5467 199.284 90.5244 199.334 90.5124 199.386C90.5082 199.423 90.5082 199.46 90.5124 199.497V203.057C90.5186 203.197 90.5711 203.331 90.6618 203.438C90.7525 203.546 90.8762 203.62 91.0138 203.65C91.0673 203.661 91.1226 203.662 91.1763 203.652C91.2301 203.641 91.2813 203.621 91.3271 203.591C91.3729 203.561 91.4123 203.522 91.4431 203.477C91.4739 203.432 91.4955 203.381 91.5066 203.328C91.5108 203.297 91.5108 203.266 91.5066 203.235V199.675ZM78.3699 190.546C78.3663 190.406 78.3146 190.271 78.2233 190.165C78.132 190.058 78.0067 189.986 77.8685 189.961C77.8172 189.948 77.7639 189.946 77.7116 189.954C77.6594 189.962 77.6093 189.981 77.5642 190.008C77.5192 190.036 77.4801 190.072 77.4492 190.115C77.4183 190.158 77.3962 190.206 77.3842 190.258C77.38 190.294 77.38 190.331 77.3842 190.368V193.928C77.3885 194.067 77.4393 194.201 77.5285 194.309C77.6178 194.416 77.7404 194.491 77.877 194.521C77.9295 194.534 77.9839 194.536 78.0372 194.527C78.0905 194.519 78.1415 194.5 78.1873 194.471C78.2332 194.443 78.2729 194.406 78.3042 194.362C78.3356 194.318 78.3579 194.268 78.3699 194.216C78.3741 194.179 78.3741 194.142 78.3699 194.106V190.546Z" fill="white"/>
<path fill-rule="evenodd" clip-rule="evenodd" d="M93.1975 186.486L92.9256 185.816L79.1346 190.792L79.4066 191.461L93.1975 186.486ZM96.0356 188.596L82.2446 193.572L81.9727 192.902L95.7637 187.927L96.0356 188.596ZM99.0096 190.554L85.2186 195.53L84.9467 194.86L98.7292 189.876L99.0011 190.546L99.0096 190.554ZM102.672 193.097L88.881 198.073L88.609 197.403L102.409 192.478L102.68 193.148L102.672 193.097ZM92.6537 200.921L92.3818 200.251L106.173 195.276L106.445 195.945L92.6537 200.921Z" fill="url(#paint34_linear)"/>
<path fill-rule="evenodd" clip-rule="evenodd" d="M96.214 196.462L97.4971 183.68L115.086 176.899L110.132 191.105L96.214 196.496V196.462ZM111.084 191.809L116.556 176.111C116.6 175.959 116.591 175.797 116.531 175.651C116.47 175.505 116.363 175.383 116.225 175.305C116.094 175.237 115.942 175.222 115.8 175.263L96.7494 182.646C96.667 182.682 96.5959 182.74 96.5435 182.813C96.4912 182.886 96.4596 182.972 96.452 183.061L95.0329 197.225C95.0213 197.382 95.0627 197.538 95.1505 197.669C95.2383 197.799 95.3674 197.897 95.5173 197.946C95.6135 197.979 95.7184 197.979 95.8147 197.946L110.812 192.131C110.879 192.102 110.939 192.057 110.986 192.001C111.033 191.946 111.067 191.88 111.084 191.809Z" fill="white"/>
<path fill-rule="evenodd" clip-rule="evenodd" d="M111.203 177.501L107.847 192.419C107.83 192.497 107.842 192.579 107.879 192.65C107.916 192.721 107.977 192.777 108.051 192.809C108.106 192.833 108.169 192.835 108.225 192.814C108.282 192.794 108.329 192.752 108.357 192.699C108.36 192.679 108.36 192.659 108.357 192.639L111.755 177.713C111.768 177.636 111.755 177.557 111.718 177.488C111.681 177.419 111.623 177.364 111.552 177.331C111.496 177.308 111.434 177.306 111.377 177.326C111.32 177.347 111.273 177.388 111.246 177.441C111.242 177.461 111.242 177.481 111.246 177.501H111.203ZM107.328 179.01C107.337 178.95 107.368 178.895 107.415 178.857C107.463 178.82 107.523 178.801 107.583 178.806H107.643C107.716 178.835 107.777 178.888 107.817 178.955C107.857 179.023 107.873 179.101 107.864 179.179L105.484 193.707C105.482 193.737 105.474 193.767 105.461 193.794C105.447 193.821 105.428 193.845 105.405 193.864C105.383 193.884 105.356 193.899 105.327 193.909C105.299 193.918 105.268 193.922 105.238 193.919H105.17C105.096 193.89 105.033 193.836 104.993 193.767C104.953 193.698 104.938 193.617 104.949 193.538L107.328 179.01ZM100.531 181.671L98.8312 195.945C98.8233 196.024 98.8427 196.103 98.8859 196.169C98.9292 196.235 98.9938 196.285 99.0691 196.31C99.1277 196.326 99.1902 196.319 99.244 196.291C99.2977 196.262 99.3385 196.214 99.358 196.157C99.3621 196.137 99.3621 196.117 99.358 196.098L101.057 181.824C101.065 181.745 101.046 181.666 101.003 181.6C100.959 181.533 100.895 181.484 100.82 181.459C100.761 181.443 100.698 181.45 100.645 181.478C100.591 181.507 100.55 181.554 100.531 181.612C100.526 181.631 100.526 181.652 100.531 181.671ZM101.882 194.741C101.873 194.82 101.891 194.9 101.932 194.967C101.974 195.035 102.037 195.087 102.111 195.114C102.141 195.126 102.172 195.132 102.204 195.13C102.236 195.129 102.267 195.121 102.295 195.106C102.323 195.092 102.348 195.071 102.367 195.046C102.387 195.021 102.401 194.993 102.409 194.962L104.448 180.552C104.458 180.473 104.441 180.393 104.399 180.325C104.358 180.257 104.294 180.206 104.218 180.179C104.158 180.163 104.093 180.171 104.038 180.201C103.982 180.231 103.941 180.281 103.921 180.34C103.92 180.354 103.92 180.369 103.921 180.383L101.882 194.741Z" fill="white"/>
<path d="M54.8241 110.979C54.6783 111.225 54.5696 111.49 54.5012 111.768C54.3035 112.231 54.2015 112.73 54.2015 113.234C54.2015 113.738 54.3035 114.237 54.5012 114.7C54.6442 115.072 54.8418 115.421 55.0875 115.734C55.3404 116.05 55.6945 116.268 56.0902 116.353C56.1322 116.362 56.1756 116.362 56.2176 116.353C56.2532 116.337 56.2829 116.311 56.3026 116.277C56.4044 116.018 56.4044 115.731 56.3026 115.472C56.1414 114.454 56.217 113.413 56.5235 112.429C56.6433 112.067 56.7091 111.69 56.719 111.31C56.7316 111.102 56.6716 110.896 56.5492 110.728C56.4268 110.559 56.2495 110.439 56.0477 110.386C55.8075 110.349 55.5618 110.387 55.3433 110.493C55.1247 110.599 54.9436 110.768 54.8241 110.979Z" fill="#4FC3F7"/>
<path fill-rule="evenodd" clip-rule="evenodd" d="M68.4536 162.566L97.3102 182.798L96.8598 184.222L68.717 164.074L68.4536 162.566Z" fill="white"/>
<path fill-rule="evenodd" clip-rule="evenodd" d="M75.2939 168.575L77.979 184.748L78.5398 184.917L76.339 169.186L75.2939 168.575ZM80.5197 172.22L81.9812 187.774L82.542 187.96L81.5648 172.839L80.5197 172.22ZM85.6435 175.619L85.8134 190.427L86.3743 190.614L86.6887 176.255L85.6435 175.619ZM89.4673 178.857L90.181 193.919L90.7418 194.106L90.5124 179.484L89.4673 178.857Z" fill="white"/>
<path fill-rule="evenodd" clip-rule="evenodd" d="M95.3898 196.462L74.4866 181.391L74.3422 182.765L95.5172 197.946L95.3898 196.462Z" fill="white"/>
<path d="M38.3479 75.3961V89.7464C38.3367 90.4031 38.4552 91.0557 38.6968 91.6667C38.9384 92.2778 39.2983 92.8354 39.756 93.3076C40.2137 93.7799 40.7601 94.1576 41.3641 94.4192C41.9682 94.6808 42.6179 94.8211 43.2763 94.8321H54.3227L59.2936 102.011V94.8321H68.6405C69.3004 94.8233 69.952 94.6846 70.5579 94.424C71.1639 94.1634 71.7124 93.7861 72.1718 93.3136C72.6313 92.8411 72.9927 92.2827 73.2354 91.6706C73.478 91.0585 73.5971 90.4045 73.5859 89.7464V75.3368C73.6041 74.0088 73.0938 72.7278 72.1668 71.7745C71.2398 70.8212 69.9717 70.2733 68.6405 70.251H43.2848C42.6209 70.262 41.9658 70.4042 41.3573 70.6694C40.7489 70.9345 40.1992 71.3175 39.7401 71.7959C39.281 72.2744 38.9215 72.839 38.6826 73.4569C38.4436 74.0749 38.3299 74.734 38.3479 75.3961Z" fill="white"/>
<path d="M53.9743 92.9843L54.0678 90.5431C52.8094 90.4838 51.5957 90.0596 50.5754 89.3225L51.1872 87.746C52.1477 88.4495 53.2941 88.8562 54.4842 88.9157C56.1836 88.975 57.2967 88.0681 57.3477 86.678C57.3987 85.2878 56.498 84.508 54.7986 83.7113C52.4618 82.6602 51.0343 81.4905 51.1193 79.4138C51.1568 78.444 51.5586 77.5238 52.245 76.836C52.9314 76.1482 53.852 75.7431 54.824 75.7012L54.909 73.2601L56.3535 73.3194L56.2686 75.6419C57.3325 75.7009 58.363 76.0338 59.2596 76.6082L58.6308 78.1932C57.7562 77.6028 56.7296 77.2762 55.6738 77.2524C53.8809 77.1761 53.1246 78.2526 53.1246 79.2104C53.0736 80.4564 53.9148 81.1091 55.8862 82.0584C58.2569 83.1603 59.4125 84.4572 59.2851 86.5847C59.2416 87.5944 58.8267 88.5527 58.1198 89.2766C57.4129 90.0005 56.4635 90.4393 55.4528 90.5092L55.3594 93.0012L53.9743 92.9843Z" fill="#4FC3F7"/>
</g>
<defs>
<linearGradient id="paint0_linear" x1="78.8882" y1="158.472" x2="81.5009" y2="330.777" gradientUnits="userSpaceOnUse">
<stop offset="0.01"/>
<stop offset="0.08" stop-opacity="0.69"/>
<stop offset="0.21" stop-opacity="0.32"/>
<stop offset="1" stop-opacity="0"/>
</linearGradient>
<linearGradient id="paint1_linear" x1="-221.458" y1="34.6426" x2="-222.202" y2="35.7267" gradientUnits="userSpaceOnUse">
<stop offset="0.01"/>
<stop offset="0.08" stop-opacity="0.69"/>
<stop offset="0.21" stop-opacity="0.32"/>
<stop offset="1" stop-opacity="0"/>
</linearGradient>
<linearGradient id="paint2_linear" x1="201171" y1="-21985.1" x2="167170" y2="55202.5" gradientUnits="userSpaceOnUse">
<stop offset="0.01"/>
<stop offset="0.08" stop-opacity="0.69"/>
<stop offset="0.21" stop-opacity="0.32"/>
<stop offset="1" stop-opacity="0"/>
</linearGradient>
<linearGradient id="paint3_linear" x1="129157" y1="-11924.1" x2="127323" y2="3284.55" gradientUnits="userSpaceOnUse">
<stop offset="0.01"/>
<stop offset="0.08" stop-opacity="0.69"/>
<stop offset="0.21" stop-opacity="0.32"/>
<stop offset="1" stop-opacity="0"/>
</linearGradient>
<linearGradient id="paint4_linear" x1="91249.9" y1="-8375.71" x2="91724.4" y2="2407.33" gradientUnits="userSpaceOnUse">
<stop offset="0.01"/>
<stop offset="0.08" stop-opacity="0.69"/>
<stop offset="0.21" stop-opacity="0.32"/>
<stop offset="1" stop-opacity="0"/>
</linearGradient>
<linearGradient id="paint5_linear" x1="46032" y1="-4431.28" x2="46349.1" y2="929.668" gradientUnits="userSpaceOnUse">
<stop offset="0.01"/>
<stop offset="0.08" stop-opacity="0.69"/>
<stop offset="0.21" stop-opacity="0.32"/>
<stop offset="1" stop-opacity="0"/>
</linearGradient>
<linearGradient id="paint6_linear" x1="21315" y1="-930.701" x2="21362.5" y2="-518.984" gradientUnits="userSpaceOnUse">
<stop offset="0.01"/>
<stop offset="0.08" stop-opacity="0.69"/>
<stop offset="0.21" stop-opacity="0.32"/>
<stop offset="1" stop-opacity="0"/>
</linearGradient>
<linearGradient id="paint7_linear" x1="89305.5" y1="-28133.8" x2="83959.6" y2="33251.1" gradientUnits="userSpaceOnUse">
<stop offset="0.01"/>
<stop offset="0.08" stop-opacity="0.69"/>
<stop offset="0.21" stop-opacity="0.32"/>
<stop offset="1" stop-opacity="0"/>
</linearGradient>
<linearGradient id="paint8_linear" x1="8587.91" y1="13864.7" x2="1869.74" y2="5359.45" gradientUnits="userSpaceOnUse">
<stop offset="0.01"/>
<stop offset="0.08" stop-opacity="0.69"/>
<stop offset="0.21" stop-opacity="0.32"/>
<stop offset="1" stop-opacity="0"/>
</linearGradient>
<linearGradient id="paint9_linear" x1="15851.4" y1="-4149.63" x2="15992.2" y2="-1913.34" gradientUnits="userSpaceOnUse">
<stop offset="0.01"/>
<stop offset="0.08" stop-opacity="0.69"/>
<stop offset="0.21" stop-opacity="0.32"/>
<stop offset="1" stop-opacity="0"/>
</linearGradient>
<linearGradient id="paint10_linear" x1="149.653" y1="96.5274" x2="289.305" y2="237.417" gradientUnits="userSpaceOnUse">
<stop stop-color="white" stop-opacity="0"/>
<stop offset="0.54" stop-color="white"/>
</linearGradient>
<linearGradient id="paint11_linear" x1="168.644" y1="182.934" x2="164.594" y2="100.214" gradientUnits="userSpaceOnUse">
<stop offset="0.01"/>
<stop offset="0.13" stop-opacity="0.69"/>
<stop offset="0.25" stop-opacity="0.32"/>
<stop offset="1" stop-opacity="0"/>
</linearGradient>
<linearGradient id="paint12_linear" x1="26962.4" y1="4952.07" x2="26606" y2="6833.01" gradientUnits="userSpaceOnUse">
<stop offset="0.01"/>
<stop offset="0.13" stop-opacity="0.69"/>
<stop offset="0.25" stop-opacity="0.32"/>
<stop offset="1" stop-opacity="0"/>
</linearGradient>
<linearGradient id="paint13_linear" x1="1922.73" y1="4987.26" x2="2340.75" y2="4987.26" gradientUnits="userSpaceOnUse">
<stop offset="0.01"/>
<stop offset="0.08" stop-opacity="0.69"/>
<stop offset="0.21" stop-opacity="0.32"/>
<stop offset="1" stop-opacity="0"/>
</linearGradient>
<linearGradient id="paint14_linear" x1="697.255" y1="4884.56" x2="757.783" y2="4884.56" gradientUnits="userSpaceOnUse">
<stop offset="0.01"/>
<stop offset="0.08" stop-opacity="0.69"/>
<stop offset="0.21" stop-opacity="0.32"/>
<stop offset="1" stop-opacity="0"/>
</linearGradient>
<linearGradient id="paint15_linear" x1="700.325" y1="3577.73" x2="1327" y2="2863.36" gradientUnits="userSpaceOnUse">
<stop offset="0.01"/>
<stop offset="0.08" stop-opacity="0.69"/>
<stop offset="0.21" stop-opacity="0.32"/>
<stop offset="1" stop-opacity="0"/>
</linearGradient>
<linearGradient id="paint16_linear" x1="733.39" y1="699.691" x2="828.489" y2="1036.63" gradientUnits="userSpaceOnUse">
<stop stop-color="white" stop-opacity="0"/>
<stop offset="0.54" stop-color="white"/>
</linearGradient>
<linearGradient id="paint17_linear" x1="301.159" y1="260.329" x2="306.43" y2="306.569" gradientUnits="userSpaceOnUse">
<stop stop-color="white" stop-opacity="0"/>
<stop offset="0.54" stop-color="white"/>
</linearGradient>
<linearGradient id="paint18_linear" x1="307.853" y1="263.996" x2="313.038" y2="309.888" gradientUnits="userSpaceOnUse">
<stop stop-color="white" stop-opacity="0"/>
<stop offset="0.54" stop-color="white"/>
</linearGradient>
<linearGradient id="paint19_linear" x1="288.329" y1="346.661" x2="316.596" y2="446.329" gradientUnits="userSpaceOnUse">
<stop stop-color="white" stop-opacity="0"/>
<stop offset="0.54" stop-color="white"/>
</linearGradient>
<linearGradient id="paint20_linear" x1="249.523" y1="635.655" x2="408.133" y2="785.856" gradientUnits="userSpaceOnUse">
<stop stop-color="white" stop-opacity="0"/>
<stop offset="0.54" stop-color="white"/>
</linearGradient>
<linearGradient id="paint21_linear" x1="2545" y1="3141.86" x2="3243.08" y2="4964.9" gradientUnits="userSpaceOnUse">
<stop stop-color="white" stop-opacity="0"/>
<stop offset="0.54" stop-color="white"/>
</linearGradient>
<linearGradient id="paint22_linear" x1="4119" y1="3807.76" x2="4797.65" y2="6176.44" gradientUnits="userSpaceOnUse">
<stop stop-color="white" stop-opacity="0"/>
<stop offset="0.54" stop-color="white"/>
</linearGradient>
<linearGradient id="paint23_linear" x1="2492.86" y1="3035.08" x2="3006.47" y2="4797.02" gradientUnits="userSpaceOnUse">
<stop stop-color="white" stop-opacity="0"/>
<stop offset="0.54" stop-color="white"/>
</linearGradient>
<linearGradient id="paint24_linear" x1="1573.32" y1="2704.56" x2="2180.91" y2="4143.33" gradientUnits="userSpaceOnUse">
<stop stop-color="white" stop-opacity="0"/>
<stop offset="0.54" stop-color="white"/>
</linearGradient>
<linearGradient id="paint25_linear" x1="509.577" y1="3888.68" x2="1407.03" y2="4260.61" gradientUnits="userSpaceOnUse">
<stop stop-color="white" stop-opacity="0"/>
<stop offset="0.54" stop-color="white"/>
</linearGradient>
<linearGradient id="paint26_linear" x1="1138.05" y1="3700.74" x2="2246.32" y2="5191.08" gradientUnits="userSpaceOnUse">
<stop stop-color="white" stop-opacity="0"/>
<stop offset="0.54" stop-color="white"/>
</linearGradient>
<linearGradient id="paint27_linear" x1="578.02" y1="731.92" x2="672.991" y2="1068.71" gradientUnits="userSpaceOnUse">
<stop stop-color="white" stop-opacity="0"/>
<stop offset="0.54" stop-color="white"/>
</linearGradient>
<linearGradient id="paint28_linear" x1="233.688" y1="260.534" x2="238.852" y2="306.315" gradientUnits="userSpaceOnUse">
<stop stop-color="white" stop-opacity="0"/>
<stop offset="0.54" stop-color="white"/>
</linearGradient>
<linearGradient id="paint29_linear" x1="240.383" y1="265.693" x2="245.688" y2="312.096" gradientUnits="userSpaceOnUse">
<stop stop-color="white" stop-opacity="0"/>
<stop offset="0.54" stop-color="white"/>
</linearGradient>
<linearGradient id="paint30_linear" x1="223.967" y1="354.012" x2="252.354" y2="453.892" gradientUnits="userSpaceOnUse">
<stop stop-color="white" stop-opacity="0"/>
<stop offset="0.54" stop-color="white"/>
</linearGradient>
<linearGradient id="paint31_linear" x1="663.468" y1="721.021" x2="758.507" y2="1058.03" gradientUnits="userSpaceOnUse">
<stop stop-color="white" stop-opacity="0"/>
<stop offset="0.54" stop-color="white"/>
</linearGradient>
<linearGradient id="paint32_linear" x1="269.631" y1="268.499" x2="275.018" y2="315.233" gradientUnits="userSpaceOnUse">
<stop stop-color="white" stop-opacity="0"/>
<stop offset="0.54" stop-color="white"/>
</linearGradient>
<linearGradient id="paint33_linear" x1="276.479" y1="271.421" x2="281.669" y2="317.309" gradientUnits="userSpaceOnUse">
<stop stop-color="white" stop-opacity="0"/>
<stop offset="0.54" stop-color="white"/>
</linearGradient>
<linearGradient id="paint34_linear" x1="3738.68" y1="1688.58" x2="3868.62" y2="2719.01" gradientUnits="userSpaceOnUse">
<stop stop-color="white" stop-opacity="0"/>
<stop offset="0.54" stop-color="white"/>
</linearGradient>
<clipPath id="clip0">
<rect width="318" height="260" fill="white"/>
</clipPath>
</defs>
</svg>
