<svg width="318" height="260" viewBox="0 0 318 260" fill="none" xmlns="http://www.w3.org/2000/svg">
<g clip-path="url(#clip0)">
<path opacity="0.18" d="M313.849 163.882C310.578 153.975 305.579 144.659 299.06 136.325C288.548 122.901 274.448 111.816 266.851 96.7249C242.08 47.5325 208.342 0.0478836 145.076 0C86.3148 0 68.2317 42.8558 64.7697 49.1525C56.3668 64.4354 57.3163 82.7349 52.2578 99.2946C45.2077 122.351 27.1246 140.546 12.2935 159.947C7.03326 166.842 2.01672 174.264 0.529401 182.66C-0.378114 187.799 0.0840464 193.035 0.588221 198.254C1.82345 210.951 8.15085 218.325 13.8396 229.083C19.4084 239.621 28.3199 248.233 39.3173 253.703C59.0137 263.352 87.3567 259.84 108.532 256.321C134.203 252.059 158.605 242.267 185.108 243.376C201.078 244.071 216.956 246.066 232.568 249.338C243.122 251.557 250.953 256.457 262.104 255.012C285.153 252.019 305.606 234.31 313.479 213.968C319.672 197.967 319.235 180.266 313.849 163.882Z" fill="#4FC3F7"/>
<path d="M56.9718 231.717L56.8373 231.844C48.6697 239.705 68.5258 244.494 73.6432 245.3C86.298 247.287 101.81 243.496 114.616 242.722C143.746 240.982 172.946 240.418 202.216 241.03C216.4 241.333 231.265 241.78 243.979 235.787C245.659 234.989 247.399 233.919 247.752 232.204C248.415 229.011 243.945 226.481 244.525 223.313C247.424 220.512 252.13 220.775 256.188 220.017C260.247 219.259 264.667 215.532 262.759 212.037C262.053 210.736 260.633 209.946 259.264 209.267C244.096 201.734 229.08 199.1 211.972 198.047C173.73 195.708 137.102 199.866 99.2889 204.351C76.8951 207.009 54.6526 202.755 32.9814 207.951C27.4607 209.283 27.2086 216.729 32.6117 218.413C39.3581 220.492 46.3283 221.846 53.3921 222.451C54.4748 222.547 55.5067 222.933 56.3683 223.563C57.2299 224.193 57.8859 225.042 58.2605 226.011C58.6351 226.981 58.7128 228.031 58.4848 229.041C58.2567 230.051 57.7321 230.978 56.9718 231.717Z" fill="url(#paint0_linear)"/>
<path opacity="0.41" d="M66.7444 143.858H98.6251V170.234H66.7444V143.858Z" fill="#4FC3F7"/>
<path d="M98.3729 123.34H130.254V170.226H98.3729V123.34Z" fill="#4FC3F7"/>
<path opacity="0.5" d="M130.002 101.689H161.882V170.234H130.002V101.689Z" fill="#4FC3F7"/>
<path d="M161.63 80.604H193.511V170.226H161.63V80.604Z" fill="#4FC3F7"/>
<path d="M193.259 59.3597H225.139V170.234H193.259V59.3597Z" fill="#4FC3F7"/>
<path d="M193.259 59.3597H225.139V170.234H193.259V59.3597Z" fill="url(#paint1_linear)"/>
<path d="M72.013 167.704L238.273 154.608L245.651 228.748L79.3824 241.844L72.013 167.704Z" fill="#4FC3F7"/>
<path d="M82.6259 176.196L229.467 164.632L234.979 220.009L88.1382 231.573L82.6259 176.196Z" fill="url(#paint2_linear)"/>
<path d="M111.666 239.298L234.988 192.093L219.728 156.069L223.61 155.765L209.157 121.999L188.15 127.466L178.201 134.409L89.0205 240.439L111.666 239.298Z" fill="url(#paint3_linear)"/>
<path d="M178.155 199.284C178.968 187.568 169.244 177.42 156.435 176.618C143.626 175.817 132.584 184.665 131.771 196.381C130.958 208.098 140.683 218.245 153.491 219.047C166.3 219.849 177.342 211 178.155 199.284Z" fill="#4FC3F7"/>
<path d="M154.109 214.287L153.891 210.361C151.613 210.45 149.353 209.948 147.354 208.908L148.194 206.291C150.061 207.284 152.181 207.767 154.32 207.687C157.328 207.559 159.244 205.907 159.126 203.697C159.008 201.486 157.294 200.337 154.084 199.3C149.698 197.943 146.95 196.283 146.765 192.915C146.58 189.723 148.925 187.193 152.773 186.451L152.555 182.532L155.168 182.413L155.37 186.148C157.286 186.089 159.189 186.473 160.916 187.265L160.034 189.898C158.376 189.085 156.519 188.707 154.656 188.805C151.412 188.941 150.295 190.768 150.379 192.309C150.496 194.304 152.11 195.237 155.815 196.474C160.26 197.903 162.538 199.818 162.739 203.242C162.907 206.283 160.748 209.235 156.462 210.073L156.681 214.064L154.109 214.287Z" fill="url(#paint4_linear)"/>
<path d="M115.152 202.511C115.36 199.516 112.871 196.921 109.592 196.716C106.314 196.511 103.487 198.773 103.28 201.768C103.072 204.763 105.561 207.357 108.84 207.562C112.118 207.767 114.945 205.506 115.152 202.511Z" fill="#4FC3F7"/>
<path d="M208.162 195.773C208.382 192.779 205.904 190.175 202.626 189.958C199.348 189.74 196.513 191.991 196.292 194.985C196.072 197.979 198.55 200.583 201.828 200.801C205.106 201.018 207.941 198.767 208.162 195.773Z" fill="#4FC3F7"/>
<path d="M239.207 165.238C239.548 160.326 235.47 156.071 230.098 155.734C224.727 155.398 220.096 159.108 219.755 164.021C219.414 168.933 223.492 173.188 228.864 173.525C234.236 173.861 238.867 170.151 239.207 165.238Z" fill="#4FC3F7"/>
<path d="M244.721 220.612C245.062 215.7 240.983 211.445 235.612 211.108C230.24 210.772 225.609 214.482 225.268 219.395C224.927 224.307 229.006 228.562 234.377 228.898C239.749 229.235 244.38 225.525 244.721 220.612Z" fill="#4FC3F7"/>
<path d="M92.3481 176.806C92.689 171.894 88.6107 167.639 83.239 167.303C77.8673 166.967 73.2364 170.676 72.8955 175.589C72.5547 180.502 76.633 184.757 82.0047 185.093C87.3764 185.429 92.0073 181.719 92.3481 176.806Z" fill="#4FC3F7"/>
<path d="M97.8695 232.172C98.2104 227.259 94.1321 223.004 88.7604 222.668C83.3887 222.332 78.7578 226.042 78.417 230.954C78.0761 235.867 82.1544 240.122 87.5261 240.458C92.8978 240.794 97.5287 237.084 97.8695 232.172Z" fill="#4FC3F7"/>
<path d="M46.2413 174.288L202.048 120.116L231.265 189.699L75.4582 243.871L46.2413 174.288Z" fill="#4FC3F7"/>
<path d="M58.9717 179.819L196.578 131.975L218.409 183.945L80.8025 231.789L58.9717 179.819Z" fill="url(#paint5_linear)"/>
<path d="M158.109 184.034C158.922 172.317 149.197 162.17 136.388 161.368C123.58 160.566 112.537 169.415 111.724 181.131C110.911 192.847 120.636 202.995 133.445 203.797C146.253 204.598 157.296 195.75 158.109 184.034Z" fill="#4FC3F7"/>
<path d="M139.009 198.645L137.631 194.926C135.454 195.578 133.131 195.658 130.909 195.158L130.951 192.412C133.029 192.906 135.21 192.845 137.253 192.237C140.11 191.359 141.455 189.284 140.682 187.201C139.909 185.118 137.942 184.4 134.581 184.208C129.96 184.001 126.825 183.083 125.64 179.907C124.514 176.874 126.01 173.857 129.489 172.173L128.094 168.439L130.573 167.641L131.884 171.184C133.718 170.649 135.661 170.545 137.547 170.881L137.48 173.634C135.653 173.267 133.756 173.369 131.985 173.929C128.909 174.871 128.38 176.906 128.926 178.366C129.632 180.266 131.447 180.761 135.388 181.024C140.085 181.287 142.85 182.556 144.06 185.812C145.135 188.701 143.942 192.085 140.068 193.969L141.48 197.767L139.009 198.645Z" fill="url(#paint6_linear)"/>
<path d="M98.1911 198.543C98.3989 195.548 95.9095 192.954 92.631 192.749C89.3524 192.543 86.5261 194.805 86.3183 197.8C86.1105 200.795 88.5999 203.389 91.8785 203.595C95.157 203.8 97.9833 201.538 98.1911 198.543Z" fill="#4FC3F7"/>
<path d="M185.287 169.099C185.507 166.105 183.029 163.501 179.751 163.283C176.474 163.066 173.638 165.317 173.417 168.311C173.197 171.305 175.675 173.909 178.953 174.127C182.231 174.344 185.067 172.093 185.287 169.099Z" fill="#4FC3F7"/>
<path d="M206.314 132.585C206.655 127.673 202.577 123.418 197.205 123.082C191.833 122.746 187.202 126.455 186.862 131.368C186.521 136.281 190.599 140.536 195.971 140.872C201.342 141.208 205.973 137.498 206.314 132.585Z" fill="#4FC3F7"/>
<path d="M228.151 184.537C228.492 179.624 224.413 175.369 219.042 175.033C213.67 174.697 209.039 178.407 208.698 183.32C208.357 188.232 212.436 192.487 217.807 192.823C223.179 193.159 227.81 189.45 228.151 184.537Z" fill="#4FC3F7"/>
<path d="M68.7013 180.436C69.0422 175.523 64.9638 171.268 59.5922 170.932C54.2205 170.596 49.5896 174.306 49.2487 179.218C48.9079 184.131 52.9862 188.386 58.3579 188.722C63.7296 189.058 68.3605 185.348 68.7013 180.436Z" fill="#4FC3F7"/>
<path d="M90.5213 232.386C90.8622 227.474 86.7839 223.219 81.4122 222.883C76.0405 222.546 71.4096 226.256 71.0687 231.169C70.7279 236.082 74.8062 240.336 80.1779 240.673C85.5496 241.009 90.1805 237.299 90.5213 232.386Z" fill="#4FC3F7"/>
<path d="M95.1294 118.727C95.0808 118.777 95.041 118.833 95.0118 118.895C94.8561 119.525 94.8561 120.18 95.0118 120.81C95.2185 122.197 95.5704 123.56 96.0622 124.88C96.0971 125.005 96.1634 125.12 96.2554 125.216C96.3636 125.292 96.4975 125.329 96.6321 125.319C96.7667 125.309 96.8927 125.252 96.9865 125.16C97.1645 124.967 97.2862 124.733 97.3394 124.481C97.5263 123.745 97.6666 122.999 97.7596 122.247C97.9024 121.289 99.2637 120.747 100.045 120.316C100.111 120.286 100.166 120.239 100.205 120.18C100.205 120.1 100.675 121.114 100.65 121.034C100.46 120.453 100.221 119.887 99.9359 119.342C99.9359 119.294 99.4317 118.137 99.3897 118.113C99.3477 118.089 99.2133 118.113 99.1376 118.161C98.4864 118.453 97.7443 118.507 97.0537 118.312C96.722 118.224 96.3721 118.215 96.0361 118.288C95.7 118.36 95.3883 118.511 95.1294 118.727Z" fill="#FCAB9A"/>
<path d="M96.2218 118.041C95.6415 117.908 95.0309 117.967 94.4908 118.209C94.3156 118.277 94.1682 118.398 94.0706 118.552C94.0062 118.706 93.9831 118.874 94.0034 119.039C94.0416 121.179 94.4067 123.303 95.0874 125.343C95.1652 125.608 95.2934 125.857 95.4655 126.077C95.5526 126.189 95.669 126.278 95.8031 126.334C95.9373 126.39 96.0845 126.411 96.2302 126.397C96.4318 126.363 96.6187 126.274 96.768 126.141C97.0408 125.915 97.2631 125.639 97.4217 125.329C97.5804 125.02 97.6722 124.684 97.6918 124.34C97.7114 123.996 97.6583 123.652 97.5357 123.329C97.4132 123.005 97.2235 122.707 96.9781 122.454C96.7825 122.288 96.6077 122.1 96.4571 121.896C96.3364 121.688 96.2567 121.46 96.2218 121.225C96.0961 120.628 96.0202 120.022 95.9949 119.414C96.044 118.953 96.1197 118.494 96.2218 118.041ZM113.75 107.618C113.301 108.901 112.739 110.145 112.07 111.337C110.574 113.732 108.23 115.583 105.868 117.267C104.587 118.183 103.284 119.072 101.961 119.932C101.272 120.29 100.552 120.591 99.8098 120.834C99.7391 120.875 99.6571 120.894 99.5746 120.89C99.5095 120.871 99.4514 120.835 99.4065 120.786C98.3813 119.916 97.6587 118.791 98.7847 117.921C99.9242 117.096 100.964 116.154 101.885 115.112C103.7 112.941 105.247 110.459 107.65 108.831C107.918 108.709 108.131 108.499 108.252 108.24C108.372 107.981 108.391 107.69 108.305 107.419C108.07 104.227 107.949 101.016 107.944 97.7863C107.877 96.9053 108.021 96.0215 108.364 95.2005C109.398 93.1655 113.137 92.9101 115.154 93.0937C115.627 93.097 116.09 93.227 116.49 93.4688C118.8 95.2006 117.767 97.3633 116.943 99.4702L113.75 107.618Z" fill="#473F47"/>
<path d="M124.876 81.8889C125.313 82.256 131.959 84.2831 132.817 84.0596C133.833 83.8122 136.48 76.7494 137.27 74.1717C137.301 74.1023 137.317 74.0276 137.317 73.9522C137.317 73.8768 137.301 73.8021 137.27 73.7327C137.233 73.6737 137.181 73.6243 137.119 73.5891C135.489 72.5915 134.514 74.9378 134.119 75.9833C133.492 77.598 132.645 79.1275 131.598 80.5322C129.918 80.6599 125.876 79.1196 125.388 79.1037C125.128 79.0961 124.87 79.1569 124.643 79.2793C124.416 79.4018 124.229 79.5813 124.103 79.798C123.725 80.5641 124.288 81.3702 124.876 81.8889Z" fill="#FCAB9A"/>
<path d="M125.598 78.0103C125.8 78.138 126.002 78.2577 126.212 78.3694C126.303 78.4036 126.378 78.4691 126.422 78.553C126.443 78.6207 126.443 78.6928 126.422 78.7605L126.027 80.4683C125.906 81.2314 125.62 81.9623 125.187 82.6151C124.943 82.9264 123.162 81.8171 122.909 81.6335C122.17 81.169 121.524 80.5825 121.002 79.9017C120.76 79.608 120.575 79.2756 120.456 78.9201C120.286 78.056 120.425 77.1628 120.851 76.3823C121.548 75.0974 122.708 75.7279 123.599 76.518C124.212 77.0763 124.882 77.5761 125.598 78.0103Z" fill="#4FC3F7"/>
<path d="M115.33 122.263C115.368 122.311 115.414 122.354 115.465 122.391C116.042 122.65 116.674 122.781 117.313 122.774C118.685 122.855 120.061 122.804 121.422 122.622C121.552 122.615 121.679 122.58 121.792 122.518C121.884 122.439 121.942 122.33 121.956 122.213C121.97 122.095 121.939 121.977 121.868 121.88C121.717 121.685 121.514 121.534 121.279 121.441C120.605 121.135 119.912 120.868 119.204 120.643C118.893 120.531 118.624 120.483 118.624 120.108C118.629 119.932 118.669 119.759 118.742 119.597L118.96 118.991C119.036 118.775 119.111 118.512 118.96 118.344C118.857 118.258 118.728 118.205 118.59 118.193C117.968 118.073 117.334 118.017 116.7 118.025C116.638 118.018 116.575 118.032 116.523 118.065C116.488 118.095 116.462 118.134 116.448 118.177C116.002 119.158 114.498 121.249 115.33 122.263Z" fill="#FCAB9A"/>
<path d="M109.902 90.8271C109.902 90.8271 106.541 95.2963 109.994 99.2706C112.406 102.032 116.011 103.907 119.33 105.488C119.91 105.767 120.599 105.998 121.162 106.333C122.262 106.98 121.582 107.539 121.002 108.416C119.548 110.651 118.069 112.862 116.582 115.072C115.715 116.18 115.123 117.459 114.851 118.815L118.616 119.892C120.634 116.612 122.936 113.497 125.498 110.579C126.607 109.318 128.018 107.778 127.842 106.022C127.584 104.406 126.834 102.896 125.682 101.681L118.616 93.9077L109.902 90.8271Z" fill="#473F47"/>
<path d="M126.262 69.4791C126.38 69.8143 126.716 70.0697 126.766 70.4288C126.817 70.7879 126.439 71.2269 126.195 71.57C125.859 72.0728 125.775 72.7033 125.439 73.214C125.379 73.3276 125.286 73.4219 125.17 73.4854C125.058 73.5175 124.942 73.5336 124.825 73.5332C124.377 73.524 123.933 73.4541 123.506 73.3258C123.431 73.2802 123.342 73.2604 123.254 73.2699C123.179 73.313 123.12 73.3771 123.086 73.4534C122.586 74.4486 122.347 75.5438 122.389 76.6457C122.389 76.9968 122.389 77.4437 122.086 77.6273C121.972 77.6918 121.84 77.7224 121.708 77.7151C120.868 77.7151 120.17 76.9809 119.75 76.2467C119.385 75.5888 119.103 74.8923 118.91 74.1717C118.843 73.9625 118.817 73.7433 118.834 73.5253C118.876 73.2683 118.97 73.0216 119.111 72.799C119.549 71.9852 119.9 71.1325 120.162 70.2532C120.39 69.1053 120.807 67.9985 121.397 66.9732C121.616 66.6391 121.943 66.3815 122.33 66.239C122.769 66.1419 123.227 66.1584 123.657 66.2869C124.549 66.4219 125.351 66.8759 125.901 67.5558C126.044 67.8112 126.119 69.0641 126.262 69.4791Z" fill="#FCAB9A"/>
<path d="M117.641 94.4903C116.888 94.6093 116.117 94.5712 115.381 94.3786C114.3 94.1684 113.193 94.1092 112.095 94.203C111.442 94.3494 110.804 94.5497 110.188 94.8016C108.961 95.1447 106.734 94.8574 106.759 93.3172C106.852 88.5288 108.801 83.9719 110.961 79.6464C111.876 77.7869 112.927 75.8556 114.759 74.7782C115.402 74.3908 116.126 74.14 116.881 74.0432C117.636 73.9464 118.405 74.0057 119.133 74.2172C119.862 74.4287 120.534 74.7873 121.103 75.2684C121.672 75.7496 122.125 76.3419 122.431 77.0048C122.929 78.1238 123.214 79.3183 123.271 80.5323C123.414 82.0486 123.439 83.7245 122.548 84.9615C122.127 85.4869 121.663 85.9806 121.162 86.4379C119.96 87.6744 119.156 89.2111 118.843 90.8671C118.565 92.144 119.708 94.0913 117.641 94.4903Z" fill="#4FC3F7"/>
<path d="M125.85 67.0211C125.245 67.9389 124.229 67.5638 123.397 67.9388C122.565 68.3139 122.556 69.4631 121.716 69.9899C121.363 70.2373 120.926 70.4128 120.716 70.7879C120.575 71.1107 120.526 71.4629 120.573 71.8094C120.603 72.3225 120.603 72.8367 120.573 73.3497C120.575 73.8087 120.428 74.257 120.153 74.6346C119.54 75.3129 118.414 75.1294 117.473 75.2172C115.632 75.3927 115.011 77.0447 113.792 78.162C113.196 78.7127 112.532 79.1915 111.986 79.7581C111.161 80.7155 110.506 81.7936 110.045 82.9504C109.681 83.8606 109.198 84.7239 108.608 85.5201C108.314 85.9186 107.94 86.2578 107.507 86.518C107.074 86.7783 106.592 86.9545 106.087 87.0364C105.608 87.0724 105.126 87.0137 104.672 86.864C104.217 86.7143 103.801 86.4768 103.448 86.1665C102.833 85.6304 102.394 84.937 102.184 84.1697C101.974 83.4025 102.002 82.5939 102.263 81.8411C102.404 81.5974 102.443 81.3126 102.373 81.043C102.292 80.8976 102.181 80.7698 102.045 80.6679C101.437 80.0723 101.096 79.2751 101.096 78.4453C101.096 77.6155 101.437 76.8183 102.045 76.2227C102.709 75.6242 104.297 75.0575 104.381 74.0759C104.465 73.0943 103.541 72.1366 103.936 71.0114C104.069 70.6674 104.265 70.3486 104.515 70.0697C104.989 69.3933 105.637 68.8437 106.398 68.4736C107.159 68.222 107.961 68.0978 108.767 68.1064C111.355 67.9309 114.061 67.1807 115.767 65.3132C116.154 64.8291 116.578 64.373 117.036 63.9485C117.572 63.5554 118.182 63.2629 118.834 63.0866C120.402 62.5215 122.13 62.496 123.716 63.0148C124.266 63.2359 124.756 63.5716 125.15 63.9972C125.544 64.4227 125.832 64.927 125.993 65.4728C126.091 65.725 126.128 65.9945 126.104 66.2621C126.079 66.5297 125.993 66.7888 125.85 67.0211Z" fill="#FC682D"/>
<path d="M125.556 71.1231C125.229 71.1231 124.716 71.1231 124.422 71.0353C124.321 71.2268 124.809 71.9371 124.918 72.0249C124.969 72.0681 125.034 72.0919 125.103 72.0919C125.171 72.0919 125.237 72.0681 125.287 72.0249C125.34 71.9694 125.372 71.8995 125.38 71.8254L125.556 71.1151" fill="white"/>
<path d="M124.666 69.543C124.833 69.543 124.968 69.4144 124.968 69.2557C124.968 69.097 124.833 68.9684 124.666 68.9684C124.499 68.9684 124.363 69.097 124.363 69.2557C124.363 69.4144 124.499 69.543 124.666 69.543Z" fill="#231F20"/>
<path d="M135.203 71.8733C134.953 71.8941 134.713 71.9794 134.51 72.12C134.307 72.2607 134.149 72.4513 134.052 72.6714C133.973 72.9659 133.99 73.2763 134.101 73.5613C134.212 73.8463 134.412 74.0926 134.674 74.2675C135.204 74.6049 135.812 74.8157 136.447 74.882C136.538 74.909 136.634 74.9165 136.728 74.9041C136.823 74.8917 136.913 74.8596 136.993 74.8102C137.076 74.7226 137.131 74.6148 137.152 74.4989C137.305 74.0897 137.368 73.6552 137.337 73.222C137.199 72.7987 136.911 72.4336 136.522 72.188C136.133 71.9424 135.668 71.8313 135.203 71.8733Z" fill="#FCAB9A"/>
<path d="M114.868 121.177C114.631 121.656 114.575 122.197 114.708 122.71C114.742 122.875 114.83 123.026 114.96 123.141C115.097 123.226 115.252 123.281 115.414 123.3C117.495 123.667 119.62 123.747 121.725 123.54C121.995 123.521 122.26 123.457 122.506 123.348C122.628 123.29 122.733 123.204 122.812 123.098C122.891 122.993 122.942 122.87 122.96 122.742C122.96 122.566 122.908 122.395 122.809 122.247C122.645 121.963 122.422 121.714 122.154 121.514C121.886 121.315 121.578 121.169 121.249 121.085C120.92 121.002 120.577 120.982 120.24 121.028C119.903 121.074 119.579 121.185 119.288 121.353C119.089 121.488 118.879 121.606 118.658 121.704C118.434 121.764 118.201 121.788 117.969 121.776C117.366 121.78 116.764 121.732 116.17 121.632C115.727 121.506 115.292 121.354 114.868 121.177Z" fill="#473F47"/>
<path d="M111.053 77.6592C110.33 77.6592 110.213 76.5579 109.633 76.9888C107.946 78.2319 106.38 79.6154 104.952 81.1228C103.961 82.2081 100.675 87.619 100.003 88.4888C98.9517 89.6549 98.1625 91.0128 97.6839 92.4791C97.54 92.8996 97.5579 93.3549 97.7343 93.764C98.5746 95.3601 101.289 92.3036 101.776 91.5534C102.146 91.8088 102.7 92.0322 103.003 91.705C103.423 91.2581 102.784 90.5877 102.583 90.1727C102.344 89.6207 102.326 89.0047 102.532 88.441C102.803 87.7705 103.202 87.1536 103.709 86.6214C105.949 84.0446 108.731 81.9407 111.876 80.4444C112.33 80.2289 112.843 79.9735 112.977 79.5107C113.034 79.2817 113.013 79.0417 112.918 78.8243C112.774 78.47 112.516 78.1674 112.182 77.9585C111.847 77.7497 111.453 77.645 111.053 77.6592Z" fill="#FCAB9A"/>
<path d="M118.616 78.2977C118.616 78.2977 110.213 82.0885 109.725 82.4955C109.238 82.9025 106.734 78.0822 106.734 78.0822C106.734 78.0822 115.019 73.4375 117.658 73.7248C120.296 74.0121 121.237 76.7176 118.616 78.2977Z" fill="#4FC3F7"/>
<path d="M209.199 59.3517C216.972 59.3517 223.274 53.3669 223.274 45.9842C223.274 38.6015 216.972 32.6167 209.199 32.6167C201.426 32.6167 195.124 38.6015 195.124 45.9842C195.124 53.3669 201.426 59.3517 209.199 59.3517Z" fill="#F8C244"/>
<path d="M209.199 57.3805C215.826 57.3805 221.198 52.2782 221.198 45.9842C221.198 39.6902 215.826 34.5879 209.199 34.5879C202.572 34.5879 197.2 39.6902 197.2 45.9842C197.2 52.2782 202.572 57.3805 209.199 57.3805Z" fill="#E8A825"/>
<path d="M210.081 53.1908L209.586 51.4191C208.592 51.6722 207.543 51.6529 206.56 51.3632L206.67 50.0863C207.589 50.371 208.575 50.3987 209.51 50.1661C210.829 49.8389 211.51 48.8972 211.233 47.9076C210.955 46.918 210.081 46.5269 208.569 46.3115C206.493 46.088 205.107 45.5773 204.687 44.0609C204.498 43.3441 204.597 42.5863 204.966 41.9354C205.334 41.2846 205.945 40.7876 206.678 40.5415L206.182 38.7778L207.325 38.4905L207.796 40.1824C208.637 39.979 209.518 39.979 210.359 40.1824L210.207 41.5471C209.397 41.3277 208.539 41.3277 207.728 41.5471C206.308 41.9062 206.006 42.8399 206.199 43.5422C206.451 44.452 207.258 44.7313 209.031 44.9548C211.14 45.2101 212.35 45.8805 212.787 47.4288C212.97 48.1758 212.863 48.9604 212.486 49.6389C212.11 50.3174 211.489 50.8445 210.737 51.1238L211.249 52.9433L210.081 53.1908Z" fill="#F8C244"/>
</g>
<defs>
<linearGradient id="paint0_linear" x1="145.715" y1="116.636" x2="146.321" y2="370.659" gradientUnits="userSpaceOnUse">
<stop offset="0.01"/>
<stop offset="0.08" stop-opacity="0.69"/>
<stop offset="0.21" stop-opacity="0.32"/>
<stop offset="1" stop-opacity="0"/>
</linearGradient>
<linearGradient id="paint1_linear" x1="5093.32" y1="8522.41" x2="20766" y2="11716.2" gradientUnits="userSpaceOnUse">
<stop offset="0.01"/>
<stop offset="0.08" stop-opacity="0.69"/>
<stop offset="0.21" stop-opacity="0.32"/>
<stop offset="1" stop-opacity="0"/>
</linearGradient>
<linearGradient id="paint2_linear" x1="139.868" y1="46.3183" x2="173.452" y2="493.067" gradientUnits="userSpaceOnUse">
<stop offset="0.01"/>
<stop offset="0.13" stop-opacity="0.69"/>
<stop offset="0.25" stop-opacity="0.32"/>
<stop offset="1" stop-opacity="0"/>
</linearGradient>
<linearGradient id="paint3_linear" x1="22427.8" y1="18248.1" x2="32523.4" y2="54148.8" gradientUnits="userSpaceOnUse">
<stop offset="0.01"/>
<stop offset="0.08" stop-opacity="0.69"/>
<stop offset="0.21" stop-opacity="0.32"/>
<stop offset="1" stop-opacity="0"/>
</linearGradient>
<linearGradient id="paint4_linear" x1="-21165.5" y1="-92116.6" x2="-11265.5" y2="-82343.4" gradientUnits="userSpaceOnUse">
<stop offset="0.01"/>
<stop offset="0.13" stop-opacity="0.69"/>
<stop offset="0.25" stop-opacity="0.32"/>
<stop offset="1" stop-opacity="0"/>
</linearGradient>
<linearGradient id="paint5_linear" x1="-183545" y1="-291380" x2="-164481" y2="-238518" gradientUnits="userSpaceOnUse">
<stop offset="0.01"/>
<stop offset="0.13" stop-opacity="0.69"/>
<stop offset="0.25" stop-opacity="0.32"/>
<stop offset="1" stop-opacity="0"/>
</linearGradient>
<linearGradient id="paint6_linear" x1="-44911.3" y1="-90291.4" x2="-32600.9" y2="-81899.3" gradientUnits="userSpaceOnUse">
<stop offset="0.01"/>
<stop offset="0.13" stop-opacity="0.69"/>
<stop offset="0.25" stop-opacity="0.32"/>
<stop offset="1" stop-opacity="0"/>
</linearGradient>
<clipPath id="clip0">
<rect width="318" height="260" fill="white"/>
</clipPath>
</defs>
</svg>
