<svg width="318" height="260" viewBox="0 0 318 260" fill="none" xmlns="http://www.w3.org/2000/svg">
<g clip-path="url(#clip0)">
<path opacity="0.18" d="M46.3606 18.0214C31.2205 26.9024 17.8074 39.6665 10.151 55.8555C2.49458 72.0445 1.18973 90.0456 0.383792 107.808C-0.422146 127.72 -0.326201 147.633 4.3751 166.948C8.731 184.73 16.9247 201.258 26.1162 216.929C32.8708 228.439 40.4888 239.908 51.3881 247.256C59.3819 252.256 68.2184 255.635 77.4276 257.213C108.531 263.46 140.752 258.882 169.093 244.19C190.201 233.198 208.546 216.81 230.824 209.024C250.378 202.194 272.33 202.174 289.946 191.102C311.898 177.164 321.953 147.414 316.58 121.308C311.207 95.203 292.306 73.518 269.394 61.3315C256.403 54.4417 242.357 50.4591 229.27 44.0273C216.183 37.5956 204.228 28.7941 191.468 21.6455C145.875 -3.94232 92.2991 -8.9404 46.3606 18.0214Z" fill="#4FC3F7"/>
<path d="M202.674 90.2841L205.226 91.3992C206.158 91.663 206.96 92.2816 207.471 93.1316C207.738 94.029 207.69 94.9952 207.337 95.8597C206.992 97.0345 206.589 98.2094 206.147 99.3643C205.572 100.898 204.9 102.411 204.459 103.984C203.594 107.963 203.438 112.073 203.998 116.111C203.998 117.425 202.386 118.102 201.139 118.281C198.787 118.795 196.347 118.664 194.058 117.903C193.846 117.841 193.65 117.733 193.483 117.584C193.275 117.308 193.178 116.958 193.214 116.609C193.08 114.438 193.08 112.188 192.792 110.197C192.677 109.11 192.465 108.037 192.159 106.991C191.941 105.965 191.775 104.928 191.66 103.884C191.487 103.048 191.238 102.232 191.103 101.395C190.937 100.552 190.997 99.6773 191.276 98.8665C191.621 97.9903 192.101 97.1739 192.523 96.3376C192.975 95.4278 193.372 94.4901 193.713 93.5299C193.897 92.8293 194.174 92.159 194.538 91.5386C194.997 90.9734 195.57 90.5198 196.217 90.2101C196.863 89.9004 197.568 89.7421 198.28 89.7465C199.765 89.5934 201.264 89.7768 202.674 90.2841Z" fill="#FFBBAB"/>
<path d="M186.958 79.9892C186.231 79.042 185.643 77.9885 185.212 76.863C184.729 75.4231 184.433 73.9233 184.33 72.4025C184.251 71.8561 184.291 71.2985 184.445 70.7697C184.694 70.0528 185.308 69.5152 185.5 68.7784C185.528 68.7014 185.528 68.6164 185.5 68.5394C185.5 68.5394 185.404 68.3801 185.251 68.3801L184.445 68.1611C184.58 67.4807 184.471 66.7725 184.138 66.1698C184.04 65.9504 183.883 65.7656 183.685 65.6382C183.487 65.5107 183.257 65.4463 183.025 65.453C182.526 65.453 182.276 66.1101 181.854 66.4088C181.432 66.7075 180.971 66.7473 180.607 67.046C180.219 67.4798 180 68.0474 179.993 68.639C179.967 70.0721 180.174 71.4994 180.607 72.8605C180.883 74.4496 181.254 76.0192 181.72 77.5599C183.196 82.3109 185.556 86.7152 188.666 90.5231C189.856 91.9767 194.423 97.7116 196.227 96.238C198.779 94.2467 197.109 90.9611 195.344 89.388C192.19 86.6218 189.374 83.4654 186.958 79.9892Z" fill="#FFBBAB"/>
<path d="M197.685 89.3284C196.822 90.7023 195.977 92.1161 195.19 93.5499C195.04 93.7627 194.933 94.0043 194.873 94.2606C194.814 94.517 194.804 94.783 194.845 95.0433C194.988 95.3814 195.248 95.6515 195.574 95.8C196.244 96.1107 196.979 96.2408 197.71 96.1781C198.442 96.1155 199.146 95.8621 199.757 95.4416C200.963 94.561 202.031 93.4931 202.924 92.2754C203.405 91.602 204.004 91.028 204.689 90.5829C205.037 90.3671 205.435 90.2532 205.84 90.2532C206.246 90.2532 206.644 90.3671 206.992 90.5829C207.159 90.6936 207.301 90.84 207.41 91.0122C207.519 91.1844 207.591 91.3786 207.621 91.5819C207.652 91.7852 207.641 91.993 207.589 92.1915C207.537 92.39 207.444 92.5747 207.318 92.7334C207.318 92.0962 206.57 91.698 205.975 91.8573C205.397 92.1036 204.917 92.5458 204.612 93.1118C204.15 93.7953 203.727 94.5068 203.346 95.2424C203.039 95.7814 202.812 96.3655 202.674 96.9748C202.635 97.73 202.742 98.4857 202.989 99.1971C203.237 99.9085 203.619 100.561 204.113 101.117C204.469 101.557 204.755 102.055 204.958 102.59C205.104 103.45 205.038 104.333 204.766 105.159C204.065 108.668 203.891 112.268 204.248 115.832C204.338 116.173 204.348 116.532 204.278 116.878C204.208 117.225 204.059 117.548 203.845 117.823C203.474 118.124 203.01 118.273 202.54 118.242C200.333 118.242 198.146 117.724 195.92 117.784C194.556 117.936 193.185 118.009 191.813 118.003C191.713 118.015 191.611 118.001 191.517 117.962C191.424 117.922 191.341 117.859 191.278 117.777C191.215 117.695 191.172 117.598 191.155 117.495C191.138 117.391 191.147 117.285 191.18 117.186C191.794 113.235 191.891 109.216 191.468 105.239C191.006 103.435 190.723 101.586 190.623 99.7228C190.606 99.3131 190.678 98.9046 190.835 98.528C191.012 98.1647 191.238 97.8294 191.506 97.5324C192.948 95.7276 193.983 93.612 194.538 91.3395" fill="white"/>
<path opacity="0.1" d="M203.269 107.748C203.283 108.08 203.223 108.411 203.093 108.715C202.963 109.019 202.767 109.288 202.521 109.5C202.361 109.574 202.207 109.661 202.06 109.759C201.772 110.038 201.811 110.515 201.753 110.914C201.507 111.645 201.13 112.321 200.64 112.905C200.408 113.216 200.282 113.597 200.282 113.99C200.282 114.383 200.408 114.765 200.64 115.075C200.986 115.434 201.561 115.494 201.849 115.912C202.137 116.33 201.849 117.684 202.444 118.102C202.637 118.187 202.854 118.198 203.055 118.132C203.255 118.067 203.426 117.929 203.538 117.744C203.744 117.367 203.856 116.942 203.864 116.509C204.312 112.035 204.721 107.542 205.092 103.028C205.143 102.792 205.137 102.546 205.073 102.313C205.009 102.08 204.89 101.867 204.727 101.694C204.44 101.276 204.056 100.479 203.634 100.26C203.154 100.997 203.518 102.59 203.518 103.446C203.442 104.9 203.384 106.334 203.269 107.748Z" fill="#020202"/>
<path d="M192.753 81.5623C192.502 81.8987 192.337 82.2962 192.274 82.7172C192.322 83.0144 192.426 83.2987 192.581 83.5535C192.857 84.1812 193.019 84.8562 193.06 85.5448C193.044 86.0621 193.17 86.5734 193.425 87.0184C193.649 87.239 193.915 87.4081 194.206 87.5145C194.497 87.6209 194.806 87.6622 195.114 87.6356H196.534C196.703 87.5863 196.882 87.5863 197.052 87.6356C197.208 87.7192 197.336 87.8515 197.416 88.014C197.857 89.0894 198.123 90.2333 198.203 91.3991C198.243 91.5968 198.328 91.7814 198.453 91.9368C198.55 92.0818 198.683 92.1984 198.836 92.2753C199.835 92.6836 200.946 92.6836 201.945 92.2753C202.202 92.1947 202.425 92.0263 202.578 91.7974C202.676 91.5074 202.676 91.1914 202.578 90.9013C202.469 90.0996 202.302 89.3076 202.079 88.5317C201.679 87.5136 201.471 86.4253 201.465 85.3258C201.465 84.35 201.983 83.454 202.137 82.4982C202.249 81.4889 202.047 80.469 201.56 79.5876C201.073 78.7062 200.327 78.0096 199.431 77.5997C198.669 77.2873 197.849 77.1572 197.031 77.2193C196.214 77.2814 195.421 77.5339 194.711 77.9581C194.193 78.2369 193.77 78.3762 193.521 78.9537C193.272 79.5312 193.214 80.7459 192.753 81.5623Z" fill="#FFBBAB"/>
<path d="M192.888 75.6285C192.804 75.2629 192.759 74.889 192.753 74.5133C192.753 73.2389 193.463 71.7853 194.672 71.7455C195.536 71.7455 196.303 72.4225 197.186 72.4225C197.55 72.3716 197.909 72.2917 198.261 72.1836C199.183 71.9645 200.14 71.9645 201.062 72.1836C203.054 72.5493 204.83 73.7065 206.013 75.4094C206.602 76.2778 206.933 77.3055 206.967 78.3666C207.001 79.4277 206.736 80.4761 206.205 81.3832C205.572 82.3789 204.593 83.0957 203.921 84.0714C203.599 84.6807 203.247 85.2722 202.866 85.8437C202.521 86.2618 201.715 86.9389 201.139 86.6402C200.563 86.3415 200.525 85.3658 200.122 84.9476C200.517 84.6238 200.895 84.2781 201.254 83.9121C201.429 83.7265 201.55 83.4939 201.604 83.2407C201.659 82.9874 201.644 82.7234 201.561 82.4784C201.331 82.0005 200.544 81.901 200.352 82.4784C200.412 81.8078 200.322 81.132 200.089 80.5035C199.856 79.875 199.486 79.3106 199.009 78.8543C198.871 78.6767 198.702 78.528 198.51 78.4162C198.301 78.3762 198.086 78.3762 197.877 78.4162H196.111C195.094 78.4162 194.596 78.7149 193.866 77.8189C193.366 77.1867 193.03 76.4329 192.888 75.6285Z" fill="#FC682D"/>
<path d="M198.644 87.8349C198.803 87.8201 198.962 87.8701 199.086 87.9743C199.188 88.1108 199.242 88.2794 199.239 88.4522C199.316 89.3332 199.316 90.2196 199.239 91.1006C199.218 91.3346 199.16 91.5634 199.067 91.7776C199.011 91.8817 198.931 91.9693 198.833 92.032C198.736 92.0948 198.625 92.1306 198.51 92.1361C198.261 92.1361 198.05 91.917 197.781 91.8573C197.641 91.8259 197.496 91.8275 197.356 91.8619C197.217 91.8964 197.086 91.9628 196.975 92.0564C196.759 92.2508 196.565 92.4715 196.399 92.7135C195.974 93.2699 195.505 93.7894 194.999 94.2667C195.34 93.0573 195.858 91.909 196.534 90.8617C196.687 90.5593 196.929 90.3152 197.224 90.1647C197.455 90.1647 197.743 90.1647 197.896 89.9059C198.05 89.647 197.896 89.1492 197.723 88.8107C197.551 88.4721 197.109 87.9942 197.378 87.7553C197.647 87.5163 198.414 87.815 198.644 87.8349Z" fill="#E0A194"/>
<path d="M217.143 83.1355C217.9 82.3993 218.606 81.6074 219.253 80.7658C221.107 78.3633 222.121 75.3804 222.132 72.303C222.065 71.968 222.065 71.6223 222.132 71.2874C222.171 71.1246 222.256 70.9773 222.375 70.864C222.495 70.7507 222.644 70.6764 222.803 70.6502C222.943 70.6701 223.085 70.6701 223.226 70.6502C223.437 70.6502 223.533 70.3515 223.705 70.1922C223.849 70.0985 224.015 70.0488 224.185 70.0488C224.355 70.0488 224.521 70.0985 224.665 70.1922C224.958 70.3845 225.213 70.6349 225.413 70.929C225.72 71.3671 226.027 71.8251 226.296 72.283C226.539 72.6339 226.685 73.0471 226.718 73.4778C226.637 74.1724 226.3 74.8075 225.778 75.25C225.183 75.25 224.722 76.9028 224.569 77.2413C224.262 78.1374 223.916 79.0334 223.533 79.8897C221.245 85.0666 217.86 89.6408 213.631 93.271C212.211 94.4857 206.838 99.2448 205.226 97.5522C203.02 95.1229 205.226 92.1957 207.145 90.9412C210.78 88.7849 214.139 86.1624 217.143 83.1355Z" fill="#FFBBAB"/>
<path d="M193.943 83.6333C194.294 83.6034 194.647 83.6034 194.999 83.6333C195.019 83.6227 195.042 83.6172 195.066 83.6172C195.089 83.6172 195.112 83.6227 195.133 83.6333C195.325 84.1936 195.325 84.8054 195.133 85.3657C195.059 85.5808 194.934 85.7728 194.768 85.9232C194.677 85.9858 194.57 86.0191 194.461 86.0191C194.352 86.0191 194.245 85.9858 194.154 85.9232C194.01 85.7979 193.903 85.632 193.847 85.4453C193.579 84.8843 193.466 84.257 193.521 83.6333C193.736 83.5835 193.959 83.5835 194.173 83.6333" fill="white"/>
<path d="M191.679 84.9873H191.506C191.517 84.9746 191.53 84.9645 191.545 84.9575C191.56 84.9505 191.576 84.9469 191.592 84.9469C191.609 84.9469 191.625 84.9505 191.64 84.9575C191.655 84.9645 191.668 84.9746 191.679 84.9873Z" fill="#4FC3F7"/>
<path d="M223.648 80.1088C223.586 81.1854 223.291 82.2336 222.784 83.1753C219.718 89.8521 214.479 95.1907 207.99 98.2493C207.617 98.3742 207.281 98.5932 207.011 98.8865C206.816 99.1663 206.679 99.4849 206.608 99.8224C205.13 105.796 205.457 111.889 204.401 117.863C204.366 118.398 204.156 118.903 203.806 119.297C203.3 119.669 202.673 119.819 202.06 119.715H200.813C197.85 119.549 194.897 119.223 191.967 118.739C191.452 118.712 190.965 118.485 190.604 118.102C190.356 117.627 190.288 117.073 190.412 116.549C190.55 112.447 190.39 108.34 189.933 104.263C189.77 102.275 189.77 100.277 189.933 98.2891C190.173 97.2956 190.173 96.2558 189.933 95.2623C189.823 94.9723 189.667 94.7032 189.472 94.4658C188.634 93.6364 187.75 92.8585 186.824 92.1361C185.551 90.6352 184.642 88.8393 184.176 86.899C183.293 84.1511 182.372 81.423 181.528 78.6751C180.895 76.6838 181.893 75.7479 183.332 74.9912C183.85 74.7124 184.425 74.4536 185.02 74.1748C185.53 76.3029 186.263 78.3664 187.208 80.3278C188.141 82.2652 189.648 83.8421 191.506 84.8281C191.476 84.8281 191.446 84.8407 191.425 84.8631C191.403 84.8855 191.391 84.9159 191.391 84.9476C191.391 85.0221 191.408 85.0955 191.442 85.1614C191.475 85.2273 191.524 85.2838 191.583 85.3259C192.869 86.5605 194.173 87.7752 195.421 89.0297C195.661 89.2894 195.957 89.4872 196.284 89.6071C196.668 89.6071 197.992 89.2487 197.935 89.9855C197.943 90.0248 197.943 90.0657 197.935 90.105C197.935 90.3638 197.704 90.563 197.666 90.8218C197.659 90.9791 197.697 91.1349 197.776 91.2696C197.855 91.4042 197.97 91.5118 198.107 91.5785C198.38 91.7204 198.687 91.7758 198.99 91.7378C199.325 91.7169 199.655 91.643 199.969 91.5188C200.487 91.2997 200.909 90.9214 201.408 90.6625C202.169 90.3669 202.999 90.3183 203.787 90.5231C204.647 90.5902 205.512 90.5366 206.358 90.3638C208.807 89.7714 211.072 88.5452 212.94 86.7995C215.552 84.1715 217.977 81.3497 220.194 78.3565C220.441 78.0117 220.763 77.7321 221.134 77.54C221.447 77.4326 221.784 77.4205 222.103 77.5052C222.423 77.5899 222.712 77.7678 222.938 78.018C223.194 78.2933 223.389 78.6225 223.512 78.9832C223.634 79.344 223.681 79.7278 223.648 80.1088Z" fill="white"/>
<path d="M223.648 80.1088C223.586 81.1854 223.291 82.2336 222.784 83.1753C219.718 89.8521 214.479 95.1907 207.99 98.2493C207.617 98.3742 207.281 98.5932 207.011 98.8865C206.816 99.1663 206.679 99.4849 206.608 99.8224C205.13 105.796 205.457 111.889 204.401 117.863C204.366 118.398 204.156 118.903 203.806 119.297C203.3 119.669 202.673 119.819 202.06 119.715H200.813C197.85 119.549 194.897 119.223 191.967 118.739C191.452 118.712 190.965 118.485 190.604 118.102C190.356 117.627 190.288 117.073 190.412 116.549C190.55 112.447 190.39 108.34 189.933 104.263C189.77 102.275 189.77 100.277 189.933 98.2891C190.173 97.2956 190.173 96.2558 189.933 95.2623C189.823 94.9723 189.667 94.7032 189.472 94.4658C188.634 93.6364 187.75 92.8585 186.824 92.1361C185.551 90.6352 184.642 88.8393 184.176 86.899C183.293 84.1511 182.372 81.423 181.528 78.6751C180.895 76.6838 181.892 75.7479 183.332 74.9912C183.85 74.7124 184.425 74.4536 185.02 74.1748C185.53 76.3029 186.263 78.3664 187.208 80.3278C188.141 82.2652 189.648 83.8421 191.506 84.8281C191.476 84.8281 191.446 84.8407 191.425 84.8631C191.403 84.8855 191.391 84.9159 191.391 84.9476C191.391 85.0221 191.408 85.0955 191.442 85.1614C191.475 85.2273 191.524 85.2838 191.583 85.3259C192.869 86.5605 194.173 87.7752 195.421 89.0297C195.661 89.2894 195.957 89.4872 196.284 89.6071C196.668 89.6071 197.992 89.2487 197.934 89.9855C197.943 90.0248 197.943 90.0657 197.934 90.105C197.934 90.3638 197.704 90.563 197.666 90.8218C197.659 90.9791 197.697 91.1349 197.776 91.2696C197.855 91.4042 197.97 91.5118 198.107 91.5785C198.38 91.7204 198.687 91.7758 198.99 91.7378C199.325 91.7169 199.655 91.643 199.969 91.5188C200.487 91.2997 200.909 90.9214 201.408 90.6625C202.169 90.3669 202.999 90.3183 203.787 90.5231C204.647 90.5902 205.512 90.5366 206.358 90.3638C208.807 89.7714 211.072 88.5452 212.94 86.7995C215.552 84.1715 217.977 81.3497 220.194 78.3565C220.441 78.0117 220.763 77.7321 221.134 77.54C221.447 77.4326 221.784 77.4205 222.103 77.5052C222.423 77.5899 222.712 77.7678 222.938 78.018C223.194 78.2933 223.389 78.6225 223.512 78.9832C223.634 79.344 223.681 79.7278 223.648 80.1088Z" fill="url(#paint0_linear)"/>
<path d="M189.971 95.1827C189.817 94.9437 189.683 94.6849 189.51 94.4658C188.672 93.6364 187.788 92.8585 186.862 92.136C185.589 90.6352 184.681 88.8393 184.214 86.899C183.332 84.1511 182.411 81.423 181.566 78.6751C180.933 76.6838 181.931 75.7479 183.37 74.9912C183.665 75.2769 183.9 75.6226 184.061 76.0068C184.359 76.8509 184.572 77.7252 184.694 78.6153C185.167 80.6477 185.986 82.5763 187.112 84.3104C188.244 86.1821 189.319 88.0938 190.451 89.9656C190.517 90.0701 190.569 90.1841 190.604 90.3041C190.651 90.4868 190.651 90.6789 190.604 90.8616C190.377 91.5982 190.235 92.3603 190.182 93.1317C190.086 93.6096 190.336 94.9238 189.971 95.1827Z" fill="url(#paint1_linear)"/>
<path d="M223.648 80.1088C223.586 81.1853 223.291 82.2336 222.784 83.1753C219.718 89.8521 214.479 95.1907 207.99 98.2492C207.618 98.3742 207.281 98.5932 207.011 98.8864C206.816 99.1663 206.679 99.4849 206.608 99.8223C205.13 105.796 205.457 111.889 204.401 117.863C204.366 118.398 204.156 118.903 203.806 119.297C203.3 119.669 202.673 119.819 202.06 119.715H200.813C200.453 119.689 200.107 119.558 199.815 119.337C199.538 119.062 199.362 118.696 199.316 118.301C199.056 116.042 198.96 113.765 199.028 111.491C199.069 110.346 198.847 109.207 198.38 108.168C197.912 107.129 197.214 106.221 196.342 105.517C195.899 105.298 195.492 105.009 195.133 104.661C194.964 104.479 194.87 104.237 194.87 103.984C194.87 103.732 194.964 103.489 195.133 103.307C195.315 103.181 195.528 103.112 195.747 103.108C196.997 103.016 198.24 102.843 199.47 102.59C200.704 102.353 201.807 101.642 202.559 100.599C203.192 99.6033 203.327 98.3289 204.017 97.3731C204.958 96.3859 206.149 95.6955 207.452 95.3818C211.972 93.551 215.972 90.5646 219.081 86.6999C220.462 84.9675 221.518 81.8412 223.226 80.5468C223.345 80.3804 223.487 80.2329 223.648 80.1088Z" fill="url(#paint2_linear)"/>
<path d="M126.782 157.111C118.855 163.051 110.444 168.262 101.644 172.683L100.397 172.842H100.051C99.7146 172.827 99.3851 172.735 99.0858 172.574C98.7865 172.413 98.5245 172.186 98.3182 171.91C98.1118 171.633 97.966 171.313 97.8909 170.972C97.8157 170.631 97.8131 170.277 97.8831 169.935C97.964 169.211 98.0857 168.493 98.2476 167.784C99.3606 162.368 100.48 156.958 101.606 151.555C101.669 151.358 101.666 151.143 101.596 150.948C101.526 150.752 101.394 150.587 101.222 150.48L81.1311 134.291C81.0037 134.162 80.8385 134.08 80.6614 134.058C80.4843 134.036 80.3053 134.076 80.1524 134.172C78.9627 134.809 77.7346 135.386 76.5065 135.964C72.189 138.075 68.025 140.066 63.765 142.057C63.4856 142.204 63.1795 142.287 62.8667 142.303C62.554 142.318 62.2417 142.265 61.9501 142.146C61.6585 142.028 61.3943 141.847 61.1747 141.616C60.9551 141.384 60.785 141.107 60.6756 140.803L60.4261 140.205V139.887C60.6169 138.287 60.8859 136.699 61.2321 135.127C63.3778 126.863 66.0117 118.743 69.1188 110.814C70.5718 106.547 73.4157 102.941 77.1589 100.619C79.9988 98.9527 83.1299 97.89 86.3697 97.4925C88.8754 97.1179 91.3996 96.8918 93.9301 96.8154H96.3287C96.4956 96.7917 96.6562 96.7337 96.8012 96.6448C96.9461 96.5559 97.0726 96.4379 97.1731 96.2977C99.092 93.3905 100.896 90.3239 102.93 87.5361C105.764 83.3403 108.813 79.3055 112.064 75.4491C115.453 71.867 119.014 68.4643 122.733 65.2538C126.493 61.8 130.539 58.695 134.822 55.9745C141.253 52.1391 148.144 49.1999 155.316 47.2329C156.697 46.7948 158.098 46.4164 159.499 46.0182L162.377 45.6996H162.895C163.567 45.7822 164.202 46.0622 164.726 46.5067C165.249 46.9512 165.639 47.5417 165.85 48.2086C165.86 48.2946 165.86 48.3814 165.85 48.4674C165.981 49.1246 166.07 49.7897 166.119 50.4587C166.401 53.9543 166.337 57.4707 165.927 60.9527C165.508 67.2443 164.315 73.4544 162.377 79.4317C160.435 84.9923 158.126 90.408 155.469 95.6406C153.373 100.11 150.894 104.375 148.062 108.385C143.546 114.523 138.717 120.406 133.594 126.007C133.434 126.157 133.322 126.352 133.27 126.569C133.219 126.785 133.231 127.013 133.306 127.222C133.651 128.775 133.978 130.329 134.246 131.882C134.933 135.102 135.191 138.405 135.014 141.699C134.9 144.757 134.095 147.745 132.666 150.422C131.236 153.099 129.22 155.39 126.782 157.111Z" fill="white"/>
<path d="M93.2969 142.575L81.2078 132.798C81.2078 132.798 86.408 116.171 93.9301 96.8154H96.3288C96.4956 96.7917 96.6562 96.7337 96.8012 96.6448C96.9461 96.5559 97.0726 96.4379 97.1731 96.2977C99.092 93.3905 100.896 90.3239 102.93 87.5361C105.764 83.3403 108.813 79.3055 112.064 75.4491C115.453 71.867 119.014 68.4643 122.733 65.2538C126.493 61.8 130.539 58.695 134.822 55.9745C141.253 52.1391 148.144 49.1999 155.316 47.2329C156.697 46.7948 158.098 46.4164 159.499 46.0182L162.377 45.6996H162.895C163.567 45.7822 164.202 46.0622 164.726 46.5067C165.249 46.9512 165.639 47.5417 165.85 48.2086C165.86 48.2946 165.86 48.3814 165.85 48.4674C159 54.2421 109.512 96.6761 93.2969 142.575Z" fill="url(#paint3_linear)"/>
<path d="M107.171 105.517C108.699 104.682 110.07 103.57 111.219 102.232C113.58 105.477 114.405 109.619 115.997 113.323C116.296 114.234 116.876 115.018 117.648 115.553C118.339 115.853 119.089 115.976 119.835 115.912H124.268C125.843 115.919 127.401 115.573 128.835 114.896C129.622 114.498 130.389 113.701 130.159 112.905C129.929 112.108 128.816 111.75 127.914 111.75C126.779 111.825 125.64 111.718 124.537 111.431C123.146 110.807 122.04 109.652 121.447 108.206C120.832 106.859 120.332 105.46 119.95 104.024C119.162 101.584 118.186 99.2136 117.034 96.935C116.381 95.5159 115.491 94.2282 114.405 93.1316C113.862 92.5885 113.217 92.1668 112.511 91.8928C111.805 91.6188 111.051 91.4982 110.298 91.5386C107.573 91.8373 105.808 94.7047 103.275 95.78C102.068 96.0877 100.892 96.5144 99.7636 97.0544C99.0482 97.596 98.4365 98.2713 97.9598 99.0457C96.4741 101.209 95.3876 103.64 94.7552 106.214C98.8474 107.474 103.233 107.228 107.171 105.517Z" fill="url(#paint4_linear)"/>
<path d="M111.258 89.866C111.258 89.866 115.096 89.5076 116.516 90.9612C118.727 93.6197 120.264 96.8093 120.987 100.241C121.332 101.555 121.754 102.829 122.042 104.223C122.223 105.456 122.572 106.656 123.078 107.787C123.39 108.419 123.916 108.909 124.556 109.161C125.059 109.281 125.576 109.321 126.091 109.281C126.733 109.275 127.375 109.321 128.01 109.42C128.133 109.43 128.251 109.471 128.355 109.54C128.427 109.639 128.474 109.755 128.49 109.878C128.527 110.222 128.478 110.569 128.347 110.887C128.215 111.205 128.007 111.482 127.741 111.69C126.117 112.498 124.279 112.716 122.522 112.308C120.411 111.571 119.739 107.509 118.972 105.617C117.86 102.859 116.67 100.137 115.403 97.4527C115.269 97.0966 115.059 96.7766 114.789 96.5168C114.47 96.2997 114.11 96.157 113.733 96.0987L109.109 95.0632C109.55 93.3308 110.778 91.5785 111.258 89.866Z" fill="#FFBBAB"/>
<path d="M131.905 102.988C138.168 102.988 143.246 97.7196 143.246 91.2201C143.246 84.7206 138.168 79.4517 131.905 79.4517C125.642 79.4517 120.564 84.7206 120.564 91.2201C120.564 97.7196 125.642 102.988 131.905 102.988Z" fill="#4FC3F7"/>
<path d="M131.905 99.0458C136.07 99.0458 139.446 95.5421 139.446 91.2201C139.446 86.8981 136.07 83.3944 131.905 83.3944C127.74 83.3944 124.364 86.8981 124.364 91.2201C124.364 95.5421 127.74 99.0458 131.905 99.0458Z" fill="#473F47"/>
<path d="M98.4587 97.5124L80.4786 134.47L63.4196 142.435C63.4196 142.435 60.0999 144.725 60.4261 140.026C60.7523 135.327 69.5601 108.922 72.189 105.258C74.8179 101.595 82.8197 94.9039 98.4587 97.5124ZM133.152 126.426L101.606 151.555L97.0003 173.738C97.6901 174.686 98.6762 175.356 99.7896 175.632C100.903 175.908 102.074 175.773 103.102 175.252C107.42 173.758 129.737 158.326 132.519 154.841C135.302 151.356 139.485 141.48 133.152 126.426ZM150.672 48.7861L165.87 60.9726C165.87 60.9726 166.656 48.348 165.87 45.6996C165.083 43.0512 150.672 48.7861 150.672 48.7861Z" fill="#4FC3F7"/>
<path d="M81.227 132.818L78.2144 138.373L98.4587 154.503L103.122 150.361L81.227 132.818Z" fill="#4FC3F7"/>
<path opacity="0.36" d="M78.2144 138.353C78.2144 138.353 19.7647 202.95 58.1043 232.62C96.4439 262.29 140.751 242.736 140.751 242.736C140.751 242.736 77.4276 257.252 68.1977 220.394C62.8056 198.828 98.4587 154.502 98.4587 154.502L78.2144 138.353Z" fill="url(#paint5_linear)"/>
<path d="M202.175 195.821L216.413 204.802H180.261L194.5 195.244V187.458L192.12 184.531V175.252C168.825 166.888 169.381 115.036 169.381 115.036H227.294V115.653C227.639 121.348 229.577 164.997 207.759 174.515C206.9 174.899 206.015 175.218 205.111 175.471V183.436L203.192 186.004L202.175 187.339V195.821Z" fill="#4FC3F7"/>
<path d="M171.837 159.979C171.135 160.003 170.434 159.884 169.775 159.628C169.117 159.372 168.513 158.983 168 158.485C167.38 157.783 166.963 156.913 166.797 155.977C166.631 155.04 166.722 154.074 167.059 153.188L169.707 153.985C169.539 154.393 169.481 154.841 169.542 155.28C169.603 155.719 169.78 156.132 170.053 156.474C170.46 156.803 170.941 157.021 171.45 157.108C171.96 157.195 172.482 157.148 172.97 156.972C173.327 156.9 173.662 156.739 173.946 156.504C174.23 156.268 174.455 155.964 174.601 155.618C174.37 154.781 170.763 151.635 167.961 148.987C160.286 142.017 150.691 133.355 153.819 126.386C154.251 125.29 154.929 124.316 155.797 123.547C156.665 122.778 157.697 122.236 158.808 121.965C164.949 120.492 173.085 127.342 173.43 127.64L171.684 129.851C169.631 128.098 163.413 123.877 159.422 124.753C158.721 124.932 158.072 125.284 157.531 125.78C156.989 126.276 156.572 126.901 156.314 127.601C154.049 132.619 163.509 141.161 169.746 146.816C175.311 151.854 177.748 154.164 177.268 156.295C177.02 157.145 176.559 157.913 175.932 158.518C175.305 159.123 174.534 159.545 173.699 159.74C173.09 159.898 172.465 159.978 171.837 159.979ZM226.641 159.979C226.025 159.981 225.411 159.894 224.818 159.72C223.979 159.528 223.204 159.108 222.574 158.502C221.943 157.897 221.479 157.128 221.23 156.275C220.75 154.144 223.149 151.834 228.752 146.796C235.008 141.141 244.468 132.599 242.184 127.581C241.936 126.932 241.542 126.355 241.034 125.898C240.527 125.441 239.921 125.116 239.268 124.952C234.912 123.957 227.754 128.935 225.432 130.926L223.782 128.696C224.185 128.377 233.377 120.731 239.978 122.184C241.045 122.434 242.04 122.946 242.878 123.677C243.716 124.408 244.373 125.337 244.794 126.386C247.941 133.355 238.346 142.017 230.652 148.987C227.793 151.575 224.243 154.781 224.012 155.817C224.166 156.315 224.953 156.773 225.643 156.972C226.127 157.154 226.647 157.204 227.155 157.117C227.663 157.03 228.14 156.808 228.541 156.474C228.795 156.125 228.952 155.71 228.996 155.275C229.04 154.84 228.969 154.401 228.79 154.005L231.458 153.208C231.795 154.095 231.884 155.063 231.714 156C231.545 156.938 231.123 157.806 230.498 158.505C229.981 159.003 229.374 159.39 228.712 159.643C228.05 159.896 227.346 160.01 226.641 159.979Z" fill="#4FC3F7"/>
<path opacity="0.28" d="M207.798 174.535C206.938 174.919 206.053 175.238 205.15 175.491V175.69H192.12V175.252C168.825 166.888 169.381 115.036 169.381 115.036H183.581C183.581 115.036 177.287 149.385 198.453 170.194C202.962 174.654 204.593 173.539 207.798 174.535Z" fill="white"/>
<path d="M215.55 175.67C214.672 175.803 213.78 175.803 212.902 175.67H215.55Z" fill="#4FC3F7"/>
<path opacity="0.28" d="M196.38 175.69V184.352L198.453 187.239V195.264L192.849 204.842H182.065L196.035 195.802V187.418L193.272 183.914V175.192L196.38 175.69Z" fill="white"/>
<path d="M192.12 175.71V175.272C168.825 166.908 169.381 115.056 169.381 115.056H173.507C173.507 115.056 170.974 160.715 193.272 175.192L194.039 175.71H192.12Z" fill="url(#paint6_linear)"/>
<path d="M205.15 175.49V183.456L203.231 186.024C199.163 184.571 198.529 181.464 205.15 175.49Z" fill="#4FC3F7"/>
<path d="M207.798 174.535C206.938 174.919 206.053 175.238 205.15 175.491C226.718 156.076 215.55 115.056 215.55 115.056L227.332 115.673C227.62 121.368 229.539 165.016 207.798 174.535Z" fill="url(#paint7_linear)"/>
<path d="M100.512 62.5258L101.855 59.6783C103.104 56.8631 104.574 54.1591 106.249 51.5937C109.723 46.6355 111.526 40.6418 114.52 35.345C114.716 35.0572 114.835 34.7205 114.865 34.3693C114.865 33.5927 113.983 33.1546 113.234 32.9555C112.251 32.6157 111.202 32.5404 110.183 32.7364C109.676 32.8418 109.208 33.097 108.837 33.4715C108.466 33.8459 108.207 34.3236 108.092 34.8472C108.079 35.4543 108.124 36.0612 108.226 36.6592C108.167 38.3542 107.604 39.9887 106.614 41.3387L99.0536 54.043C98.0123 55.4662 97.3504 57.1488 97.1347 58.9216C97.1787 59.8459 97.546 60.7218 98.1677 61.3853C98.7894 62.0488 99.6229 62.4543 100.512 62.5258Z" fill="#FFBBAB"/>
<path d="M100.512 62.5258C101.125 61.5568 101.352 60.3791 101.145 59.2402C100.925 57.7421 100.925 56.218 101.145 54.72C101.602 53.2807 101.681 51.7412 101.376 50.2595C101.376 50.2595 101.376 50.1202 101.26 50.0803C101.214 50.0503 101.161 50.0343 101.107 50.0343C101.053 50.0343 100.999 50.0503 100.953 50.0803C100.485 50.3725 100.137 50.8332 99.9747 51.3747C99.1688 53.3659 96.7126 56.7312 97.058 58.9017C97.0993 59.8423 97.4753 60.7335 98.1134 61.403C98.7514 62.0724 99.6061 62.4725 100.512 62.5258Z" fill="url(#paint8_linear)"/>
<path d="M94.2372 63.8201L98.1901 58.6229L102.891 63.0834L98.4588 67.2252L94.2372 63.8201Z" fill="#4FC3F7"/>
<path d="M94.2372 63.8201L98.1901 58.6229L102.891 63.0834L98.4588 67.2252L94.2372 63.8201Z" fill="url(#paint9_linear)"/>
<path d="M104.35 70.232L106.173 70.8892C106.806 71.1082 108.092 71.9844 108.686 71.387C109.281 70.7896 108.686 68.9775 108.686 68.3204C108.384 65.963 107.837 63.6464 107.055 61.4107C106.765 60.8765 106.586 60.285 106.53 59.6744C106.473 59.0638 106.541 58.4478 106.729 57.8663C106.894 57.5616 107.134 57.3074 107.423 57.1291C107.713 56.9508 108.043 56.8548 108.379 56.8507C108.712 56.8563 109.038 56.9464 109.329 57.113C109.62 57.2797 109.867 57.5178 110.049 57.8065C110.309 58.4453 110.496 59.1137 110.605 59.7978C110.809 60.2441 110.889 60.7407 110.836 61.2315C110.73 61.4498 110.64 61.6762 110.567 61.9085C110.554 62.1682 110.6 62.4275 110.701 62.6652L113.1 69.2165C113.764 70.6165 114.018 72.1883 113.829 73.7367C113.496 74.7548 112.841 75.6259 111.969 76.2081C111.098 76.7903 110.063 77.0492 109.032 76.9426C106.744 76.7071 104.542 75.9158 102.604 74.6327C102.392 74.5133 102.143 74.2942 102.22 74.0553C102.278 73.9514 102.365 73.8681 102.469 73.8163C103.09 73.4444 103.611 72.9173 103.985 72.283C104.194 71.9934 104.335 71.6576 104.399 71.3018C104.462 70.9461 104.445 70.58 104.35 70.232ZM98.9384 59.5787C98.8927 59.8516 98.7651 60.1025 98.5738 60.2956C98.2783 60.4878 97.9428 60.6039 97.5952 60.6341C97.2377 60.6756 96.8985 60.8205 96.6166 61.0523C96.5729 61.1346 96.55 61.2271 96.55 61.3211C96.55 61.4151 96.5729 61.5076 96.6166 61.5899L97.1347 63.8799C97.1917 64.0474 97.1917 64.2301 97.1347 64.3976C97.0323 64.5957 96.8606 64.7454 96.6549 64.8158C95.8874 65.1941 94.9087 65.5326 94.2371 64.995C93.8989 64.6789 93.6642 64.2613 93.5655 63.8002C92.5774 61.258 91.9816 58.57 91.8001 55.8352C91.728 55.0115 91.8277 54.1814 92.0926 53.4013C92.3576 52.6213 92.7814 51.9097 93.3352 51.315C94.4134 50.4073 95.7902 49.9715 97.173 50.1003C97.4827 50.116 97.7842 50.2093 98.0515 50.3723C98.3189 50.5353 98.5442 50.7631 98.7082 51.0362C98.9192 51.4345 98.7082 51.8526 98.8425 52.2907C98.9029 52.9292 99.012 53.5618 99.1687 54.1824C99.2474 54.4803 99.3435 54.7729 99.4565 55.0586C99.5854 55.2938 99.6762 55.5494 99.7252 55.8152C99.7268 56.3045 99.6219 56.7878 99.4182 57.229C99.2259 57.7698 99.0908 58.3307 99.0152 58.9017C99.0536 59.1805 99.0536 59.3796 98.9384 59.5787Z" fill="#FFBBAB"/>
<path d="M99.5333 49.8414C99.4564 50.3485 99.2604 50.8281 98.9625 51.2379C98.6647 51.6477 98.2742 51.9751 97.8255 52.1911C95.7531 53.2067 92.798 53.0673 93.5847 56.1737C94.0376 57.3864 94.2143 58.6913 94.1011 59.9866C93.988 61.2819 93.588 62.5325 92.9323 63.6409C92.4526 64.3777 91.8577 65.0149 91.4356 65.7915C90.7448 66.9863 90.5337 68.4399 89.7853 69.5948C88.2886 71.8848 85.2567 72.3627 82.6086 72.3627C81.5956 72.34 80.5892 72.5367 79.6535 72.9402C77.4852 74.0553 76.5065 77.3608 74.1079 77.4803C71.7093 77.5997 70.8841 74.354 69.5409 72.761C68.6233 71.8022 68.006 70.5784 67.7698 69.2496C67.5336 67.9208 67.6894 66.549 68.2169 65.3136C70.6923 60.0567 78.7708 60.3753 81.8219 55.3573C83.7024 52.45 83.7024 48.4675 86.9645 46.5957C88.7573 45.7298 90.7258 45.3281 92.701 45.4252C94.6763 45.5223 96.5994 46.1153 98.3052 47.1532C98.7554 47.4114 99.1161 47.8098 99.3364 48.2921C99.5568 48.7744 99.6256 49.3164 99.5333 49.8414Z" fill="#473F47"/>
<path d="M103.083 87.1977C103.316 87.3943 103.583 87.543 103.87 87.6357C104.875 87.8917 105.918 87.9391 106.94 87.7751C108.417 87.6955 109.896 87.6955 111.373 87.7751C111.732 87.7561 112.087 87.8535 112.39 88.0539C112.889 88.492 112.735 89.3084 112.524 89.9456C111.605 92.8442 110.535 95.6892 109.32 98.4682C108.9 99.6829 108.17 100.756 107.209 101.575C106.449 102.064 105.6 102.382 104.714 102.511C102.935 102.889 101.134 103.148 99.3222 103.287C97.5583 103.554 95.7576 103.306 94.122 102.57C92.3751 101.477 91.0875 99.7432 90.5145 97.7116C89.7797 95.7538 89.5999 93.6188 89.9964 91.5585C90.4761 89.3681 91.4356 88.7309 90.8407 86.3812C90.0532 83.467 89.5012 80.4897 89.1905 77.4803C88.941 74.7487 89.1884 71.9927 89.9196 69.3559C90.2101 68.1349 90.7036 66.9759 91.378 65.9309C92.0666 64.9048 93.0772 64.1588 94.2372 63.8202C94.8123 63.6666 95.4162 63.6722 95.9886 63.8364C96.561 64.0006 97.0819 64.3177 97.4993 64.7561C99.7444 67.285 102.815 67.4244 105.367 69.5948C105.516 69.6942 105.63 69.8409 105.693 70.013C105.76 70.1925 105.76 70.3911 105.693 70.5706L104.024 74.7323C103.859 75.1803 103.647 75.6077 103.39 76.0067C103.16 76.3452 102.872 76.624 102.661 76.9625C102.082 77.9801 101.789 79.1461 101.817 80.3278C101.798 82.319 101.337 85.7839 103.083 87.1977Z" fill="#4FC3F7"/>
<path d="M100.646 89.866C100.343 90.0201 100.006 90.0883 99.6688 90.0638C99.3319 90.0394 99.0071 89.923 98.7274 89.7266C97.3842 88.6911 98.4204 87.9743 98.7274 86.899C99.1384 85.4119 99.2495 83.8528 99.0536 82.3191C98.8425 79.3521 98.6123 76.3453 98.4012 73.3982C98.5163 74.135 101.894 75.1704 103.218 76.1063C102.987 76.4448 102.7 76.7236 102.488 77.0621C100.992 79.3322 101.778 83.8723 101.817 86.441C101.913 87.6756 101.759 89.2288 100.646 89.866Z" fill="url(#paint10_linear)"/>
<path d="M116.209 51.5539C116.78 53.8257 116.78 56.2117 116.209 58.4835C116.106 58.5908 115.981 58.6725 115.844 58.7224C115.738 58.7604 115.623 58.7604 115.518 58.7224C114.654 58.5432 109.761 55.2178 104.004 57.3086C103.713 57.4217 103.401 57.4666 103.091 57.44C102.781 57.4134 102.481 57.3161 102.211 57.1549C101.942 56.9938 101.71 56.7728 101.532 56.5078C101.354 56.2428 101.235 55.9404 101.184 55.6221C101.132 55.3038 101.148 54.9776 101.232 54.6667C101.316 54.3559 101.465 54.0681 101.669 53.8239C101.872 53.5798 102.125 53.3854 102.409 53.2546C102.694 53.1238 103.003 53.0598 103.313 53.0672C103.313 53.0672 110.855 50.4587 112.486 45.819C112.697 45.1221 113.119 44.8632 113.599 44.9429C113.901 45.005 114.184 45.1416 114.424 45.3411C115.386 47.2788 115.991 49.3858 116.209 51.5539Z" fill="#4FC3F7"/>
<path d="M116.209 51.5539C116.78 53.8257 116.78 56.2117 116.209 58.4835C116.181 58.5433 116.141 58.5959 116.091 58.6373C116.041 58.6787 115.983 58.7078 115.921 58.7225C115.153 58.7225 114.002 55.7355 113.465 52.0517C112.927 48.3679 112.966 45.4805 113.599 44.9429H113.752C113.963 44.9429 114.175 45.0823 114.424 45.4208C115.377 47.334 115.982 49.4131 116.209 51.5539Z" fill="url(#paint11_linear)"/>
<path d="M127.396 108.962C127.135 109.041 126.911 109.216 126.766 109.455C126.621 109.693 126.565 109.978 126.609 110.256C126.609 110.575 126.974 110.894 126.839 111.192C126.793 111.274 126.729 111.343 126.652 111.395C126.576 111.447 126.489 111.48 126.398 111.491C124.598 112.063 122.659 111.928 120.948 111.113C120.906 111.27 120.905 111.436 120.946 111.593C120.986 111.751 121.067 111.894 121.178 112.009C121.441 112.514 121.833 112.934 122.311 113.223C122.629 113.351 122.967 113.418 123.308 113.423C125.987 113.386 128.585 112.473 130.735 110.814C130.939 110.681 131.121 110.512 131.272 110.316C131.336 110.209 131.371 110.085 131.371 109.958C131.371 109.831 131.336 109.707 131.272 109.599C131.157 109.301 130.811 109.201 130.504 109.141C129.97 109.059 129.432 109.006 128.892 108.982C128.4 108.87 127.891 108.864 127.396 108.962Z" fill="#4FC3F7"/>
</g>
<defs>
<linearGradient id="paint0_linear" x1="197.666" y1="139.249" x2="203.82" y2="68.0794" gradientUnits="userSpaceOnUse">
<stop offset="0.01"/>
<stop offset="0.08" stop-opacity="0.69"/>
<stop offset="0.21" stop-opacity="0.32"/>
<stop offset="1" stop-opacity="0"/>
</linearGradient>
<linearGradient id="paint1_linear" x1="1127.62" y1="1502.73" x2="1475.49" y2="998.781" gradientUnits="userSpaceOnUse">
<stop offset="0.01"/>
<stop offset="0.08" stop-opacity="0.69"/>
<stop offset="0.21" stop-opacity="0.32"/>
<stop offset="1" stop-opacity="0"/>
</linearGradient>
<linearGradient id="paint2_linear" x1="-2189.83" y1="12630.7" x2="-3104.53" y2="11960.6" gradientUnits="userSpaceOnUse">
<stop offset="0.01"/>
<stop offset="0.08" stop-opacity="0.69"/>
<stop offset="0.21" stop-opacity="0.32"/>
<stop offset="1" stop-opacity="0"/>
</linearGradient>
<linearGradient id="paint3_linear" x1="39.9323" y1="75.9868" x2="220.569" y2="110.605" gradientUnits="userSpaceOnUse">
<stop offset="0.01"/>
<stop offset="0.13" stop-opacity="0.69"/>
<stop offset="0.25" stop-opacity="0.32"/>
<stop offset="1" stop-opacity="0"/>
</linearGradient>
<linearGradient id="paint4_linear" x1="2592.93" y1="1298.47" x2="2496.46" y2="2438.72" gradientUnits="userSpaceOnUse">
<stop offset="0.01"/>
<stop offset="0.13" stop-opacity="0.69"/>
<stop offset="0.25" stop-opacity="0.32"/>
<stop offset="1" stop-opacity="0"/>
</linearGradient>
<linearGradient id="paint5_linear" x1="2479.19" y1="7281.02" x2="12510.4" y2="24621.8" gradientUnits="userSpaceOnUse">
<stop offset="0.01"/>
<stop offset="0.08" stop-opacity="0.69"/>
<stop offset="0.21" stop-opacity="0.32"/>
<stop offset="1" stop-opacity="0"/>
</linearGradient>
<linearGradient id="paint6_linear" x1="1913.27" y1="5798.34" x2="3571.77" y2="5676.42" gradientUnits="userSpaceOnUse">
<stop offset="0.01"/>
<stop offset="0.13" stop-opacity="0.69"/>
<stop offset="0.25" stop-opacity="0.32"/>
<stop offset="1" stop-opacity="0"/>
</linearGradient>
<linearGradient id="paint7_linear" x1="3623.98" y1="5680.51" x2="1831.09" y2="5587.73" gradientUnits="userSpaceOnUse">
<stop offset="0.01"/>
<stop offset="0.13" stop-opacity="0.69"/>
<stop offset="0.25" stop-opacity="0.32"/>
<stop offset="1" stop-opacity="0"/>
</linearGradient>
<linearGradient id="paint8_linear" x1="901.623" y1="-1618.04" x2="936.166" y2="-1627.9" gradientUnits="userSpaceOnUse">
<stop offset="0.01"/>
<stop offset="0.13" stop-opacity="0.69"/>
<stop offset="0.25" stop-opacity="0.32"/>
<stop offset="1" stop-opacity="0"/>
</linearGradient>
<linearGradient id="paint9_linear" x1="2426.28" y1="-1283.11" x2="2545.18" y2="-1319.44" gradientUnits="userSpaceOnUse">
<stop offset="0.01"/>
<stop offset="0.13" stop-opacity="0.69"/>
<stop offset="0.25" stop-opacity="0.32"/>
<stop offset="1" stop-opacity="0"/>
</linearGradient>
<linearGradient id="paint10_linear" x1="1023.58" y1="-2094.77" x2="1123.84" y2="-2104" gradientUnits="userSpaceOnUse">
<stop offset="0.01"/>
<stop offset="0.13" stop-opacity="0.69"/>
<stop offset="0.25" stop-opacity="0.32"/>
<stop offset="1" stop-opacity="0"/>
</linearGradient>
<linearGradient id="paint11_linear" x1="548.284" y1="-1809.63" x2="592.736" y2="-1813.23" gradientUnits="userSpaceOnUse">
<stop offset="0.01"/>
<stop offset="0.13" stop-opacity="0.69"/>
<stop offset="0.25" stop-opacity="0.32"/>
<stop offset="1" stop-opacity="0"/>
</linearGradient>
<clipPath id="clip0">
<rect width="318" height="260" fill="white"/>
</clipPath>
</defs>
</svg>
