<svg width="44" height="45" viewBox="0 0 44 45" fill="none" xmlns="http://www.w3.org/2000/svg">
<path d="M14.6667 22.5H7.33333C6.32081 22.5 5.5 23.3208 5.5 24.3333V35.3333C5.5 36.3459 6.32081 37.1667 7.33333 37.1667H14.6667C15.6792 37.1667 16.5 36.3459 16.5 35.3333V24.3333C16.5 23.3208 15.6792 22.5 14.6667 22.5Z" stroke="#03A9F4" stroke-width="2.75" stroke-linecap="round" stroke-linejoin="round"/>
<path d="M25.6667 15.1667H18.3333C17.3208 15.1667 16.5 15.9875 16.5 17V35.3333C16.5 36.3458 17.3208 37.1667 18.3333 37.1667H25.6667C26.6792 37.1667 27.5 36.3458 27.5 35.3333V17C27.5 15.9875 26.6792 15.1667 25.6667 15.1667Z" stroke="#03A9F4" stroke-width="2.75" stroke-linecap="round" stroke-linejoin="round"/>
<path d="M36.6667 7.83331H29.3333C28.3208 7.83331 27.5 8.65412 27.5 9.66665V35.3333C27.5 36.3458 28.3208 37.1666 29.3333 37.1666H36.6667C37.6792 37.1666 38.5 36.3458 38.5 35.3333V9.66665C38.5 8.65412 37.6792 7.83331 36.6667 7.83331Z" stroke="#03A9F4" stroke-width="2.75" stroke-linecap="round" stroke-linejoin="round"/>
<path d="M7.33331 37.1667H33" stroke="#03A9F4" stroke-width="2.75" stroke-linecap="round" stroke-linejoin="round"/>
</svg>
